<svg width="23" height="16" viewBox="0 0 23 16" fill="none" xmlns="http://www.w3.org/2000/svg">
<rect x="0.5" y="0.5" width="22" height="15" rx="2" fill="white" stroke="#D9D9D9"/>
<path fill-rule="evenodd" clip-rule="evenodd" d="M9.94549 8.31283H9.21676V8.02272C9.21676 7.64539 9.42924 7.53742 9.61256 7.53742C9.81481 7.53742 9.97238 7.62849 9.97238 7.62849L10.2205 7.05327C10.2205 7.05327 9.96897 6.88651 9.51181 6.88651C8.99783 6.88651 8.41303 7.18045 8.41303 8.10303V8.31283H7.19305V8.02272C7.19305 7.64539 7.40554 7.53742 7.58848 7.53742C7.69263 7.53742 7.83278 7.56201 7.94867 7.62849L8.19676 7.05327C8.04867 6.96489 7.81081 6.88651 7.48811 6.88651C6.97413 6.88651 6.38933 7.18045 6.38933 8.10303V8.31283H5.9227V8.94223H6.38933V11.1659H7.19305V8.94223H8.41303V11.1659H9.21676V8.94223H9.94549V8.31283ZM11.9034 8.31279V11.1658H12.7079V9.79137C12.7079 9.13777 13.0977 8.94603 13.3696 8.94603C13.4757 8.94603 13.6188 8.97715 13.7135 9.04901L13.8601 8.29473C13.7359 8.24094 13.606 8.22902 13.4995 8.22902C13.0859 8.22902 12.8261 8.415 12.6545 8.79233V8.31279H11.9034ZM4.07752 10.654C3.86617 10.654 3.76088 10.5487 3.76088 10.3747C3.76088 10.0527 4.11615 9.9424 4.76459 9.87285C4.76459 10.3036 4.47749 10.654 4.07752 10.654ZM4.35704 8.22904C3.89382 8.22904 3.36053 8.45075 3.07116 8.68476L3.33553 9.24922C3.56771 9.03365 3.94306 8.8496 4.28167 8.8496C4.60323 8.8496 4.78087 8.95873 4.78087 9.17813C4.78087 9.32645 4.66308 9.40099 4.44037 9.4302C3.60937 9.54009 2.95715 9.77256 2.95715 10.4227C2.95715 10.938 3.31887 11.25 3.88397 11.25C4.28697 11.25 4.64603 11.0225 4.81685 10.7224V11.1658H5.56831V9.30801C5.56831 8.54066 5.04259 8.22904 4.35704 8.22904ZM16.6804 8.73015C16.8459 8.48423 17.1637 8.22909 17.589 8.22909C18.103 8.22909 18.5284 8.55262 18.5284 9.19393V11.1659H17.7246V9.45176C17.7246 9.07405 17.5004 8.91727 17.2879 8.91727C17.022 8.91727 16.7561 9.16396 16.7561 9.69729V11.1659H15.9524V9.45753C15.9524 9.06828 15.7411 8.91727 15.5112 8.91727C15.257 8.91727 14.9851 9.16972 14.9851 9.69729V11.1659H14.1802V8.31285H14.9555V8.74436C15.0915 8.46886 15.3858 8.22909 15.8111 8.22909C16.2009 8.22909 16.5266 8.41237 16.6804 8.73015ZM11.2284 11.166H10.4254V8.31292H11.2284V11.166Z" fill="#060809"/>
<path fill-rule="evenodd" clip-rule="evenodd" d="M15.1099 4.33334C12.9389 4.33334 11.0038 5.86226 10.4546 7.82807H11.2416C11.7003 6.36409 13.2574 5.07917 15.1099 5.07917C17.3616 5.07917 19.3077 6.81827 19.3077 9.52567C19.3077 10.1335 19.23 10.6815 19.0831 11.1656H19.8466L19.8542 11.1391C19.9792 10.6396 20.0428 10.097 20.0428 9.52567C20.0428 6.50626 17.8741 4.33334 15.1099 4.33334Z" fill="#0FA0EA"/>
</svg>
