<svg width="23" height="16" viewBox="0 0 23 16" fill="none" xmlns="http://www.w3.org/2000/svg">
<rect x="0.5" y="0.5" width="22" height="15" rx="2" fill="white" stroke="#D9D9D9"/>
<path d="M20.9956 7.0486L21 7.04375H20.3026L19.8621 8.57046H19.8388L19.3331 7.04375H18.5043L19.5015 9.56329L19.0849 10.3313V10.3498H19.7356L20.9956 7.0486Z" fill="black"/>
<path d="M13.2637 7.04375H12.5239V9.55403H13.2637V7.04375Z" fill="black"/>
<path d="M18.3588 8.92626V7.87744C18.3588 7.30608 18.0215 6.99219 17.4268 6.99219C17.0472 6.99219 16.7853 7.05788 16.3074 7.20292L16.4384 7.77913C16.8739 7.58251 17.0657 7.4983 17.2672 7.4983C17.5105 7.4983 17.6186 7.67156 17.6186 7.93872V7.95724C16.7708 8.11639 16.5085 8.20545 16.3449 8.36945C16.2232 8.49113 16.1716 8.66439 16.1716 8.86586C16.1716 9.34817 16.5464 9.60564 16.8973 9.60564C17.1596 9.60564 17.3703 9.50732 17.656 9.29174L17.7076 9.55406H18.4474L18.3588 8.92626ZM17.619 8.94522C17.4224 9.05279 17.3099 9.09511 17.179 9.09511C17.0009 9.09511 16.8885 8.97784 16.8885 8.79092C16.8885 8.72082 16.9026 8.65028 16.9586 8.59429C17.0476 8.50524 17.2209 8.43955 17.619 8.34608V8.94522Z" fill="black"/>
<path d="M15.1043 6.99219C14.8328 6.99219 14.622 7.09535 14.3831 7.29198V7.04377H13.6433V10.3498H14.3831V9.53025C14.5237 9.56772 14.6547 9.58668 14.8138 9.58668C15.4742 9.58668 16.069 9.09952 16.069 8.23322C16.069 7.45598 15.6382 6.99219 15.1043 6.99219ZM14.6357 9.12289C14.5515 9.12289 14.4717 9.11363 14.3826 9.08541V7.72755C14.5374 7.61998 14.6635 7.5684 14.8226 7.5684C15.099 7.5684 15.319 7.78839 15.319 8.25703C15.3195 8.85616 14.9963 9.12289 14.6357 9.12289Z" fill="black"/>
<path d="M6.25311 5.75072H3.08108C2.66799 5.75072 2.33337 6.08842 2.33337 6.5046V9.70351C2.33337 10.1197 2.66799 10.4574 3.08108 10.4574H6.25311C6.6662 10.4574 7.00037 10.1197 7.00037 9.70351V6.5046C7.00081 6.08798 6.6662 5.75072 6.25311 5.75072Z" fill="#1677FF"/>
<path d="M6.17594 8.7062C5.98946 8.64316 5.73861 8.54661 5.45954 8.44477C5.62707 8.15071 5.76109 7.8161 5.84926 7.45238H4.92918V7.11821H6.05603V6.93172H4.92918V6.37447H4.46935C4.38868 6.37447 4.38868 6.4547 4.38868 6.4547V6.93128H3.24904V7.11777H4.38868V7.45194H3.44743V7.63843H5.27261C5.20604 7.87032 5.1161 8.08855 5.00985 8.2865C4.41777 8.08943 3.78557 7.92984 3.38879 8.02815C3.13486 8.09119 2.97129 8.20362 2.87519 8.32177C2.43432 8.86271 2.75042 9.68448 3.68153 9.68448C4.23217 9.68448 4.76253 9.37499 5.17342 8.86491C5.78666 9.16206 7.00036 9.67258 7.00036 9.67258V8.94515C7.0008 8.94515 6.84826 8.93281 6.17594 8.7062ZM3.59468 9.37014C2.86857 9.37014 2.65387 8.79349 3.01274 8.47783C3.13265 8.37114 3.35132 8.31912 3.46771 8.30766C3.89887 8.2649 4.2983 8.43066 4.76958 8.66256C4.43849 9.09813 4.01659 9.37014 3.59468 9.37014Z" fill="white"/>
<path d="M9.98103 6.25244H8.9882L7.87854 9.55408H8.56232L8.74969 8.90777H9.92504L10.1031 9.55408H10.9787L9.98103 6.25244ZM8.90399 8.36904L9.34398 6.84717H9.36249L9.77911 8.36904H8.90399Z" fill="black"/>
<path d="M12.0178 6.13515H11.2781V9.55361H12.0178V6.13515Z" fill="black"/>
<path d="M12.4675 6.43974C12.4675 6.6831 12.6456 6.8471 12.8938 6.8471C13.1421 6.8471 13.3202 6.6831 13.3202 6.43974C13.3202 6.20079 13.1421 6.03238 12.8938 6.03238C12.6456 6.03238 12.4675 6.20079 12.4675 6.43974Z" fill="#1677FF"/>
</svg>
