<svg width="23" height="16" viewBox="0 0 23 16" fill="none" xmlns="http://www.w3.org/2000/svg">
<rect x="0.5" y="0.5" width="22" height="15" rx="2" fill="white" stroke="#D9D9D9"/>
<path fill-rule="evenodd" clip-rule="evenodd" d="M13.8684 11.2299C13.9979 10.8964 14.2861 10.149 14.149 9.96784H14.15C14.0136 9.78633 13.2478 9.88159 12.9033 9.92443L12.9026 9.92452C12.7978 9.93757 12.7817 9.8431 12.8759 9.77472C13.4875 9.3295 14.4896 9.45685 14.606 9.60718C14.7224 9.7575 14.5742 10.7983 14.0014 11.2952C13.9132 11.3714 13.8291 11.3307 13.8684 11.2299ZM9.7528 11.7445C11.0849 11.7445 12.6361 11.3087 13.7047 10.4918V10.4934C13.8815 10.3556 13.7299 10.1531 13.5495 10.2324C12.3831 10.7421 11.131 11.0082 9.86515 11.0154C8.10888 11.0154 6.41004 10.5164 5.03566 9.68803C4.91525 9.61548 4.82557 9.74336 4.92633 9.83679C6.24948 11.0736 7.97073 11.7539 9.7528 11.7445Z" fill="#FF9900"/>
<path fill-rule="evenodd" clip-rule="evenodd" d="M18.4631 9.29875H19.0304H19.0309C19.0902 9.29991 19.1395 9.25161 19.1417 9.19016V7.56116C19.1417 7.35655 19.1523 7.17178 19.2319 6.98701C19.2865 6.84645 19.4153 6.75182 19.5614 6.74482C19.9242 6.74482 19.9208 7.15678 19.918 7.48041C19.9178 7.5077 19.9176 7.53437 19.9176 7.56011V9.20373C19.9246 9.25647 19.967 9.29645 20.0183 9.29875H20.5907C20.6449 9.29992 20.6917 9.25931 20.7 9.20373V7.29914C20.7 7.00632 20.7 6.59868 20.5514 6.35649C20.3906 6.09552 20.1418 6 19.8868 6C19.4939 6 19.2707 6.1973 19.1115 6.6112H19.1004V6.14823C19.0889 6.09984 19.0477 6.06528 18.9996 6.06368H18.4716C18.4159 6.06226 18.3683 6.10537 18.3623 6.16285V9.19016C18.363 9.24821 18.4071 9.29571 18.4631 9.29875ZM17.9291 7.71097C17.9291 6.7558 17.4721 6.00419 16.6272 6.00419C15.804 6.00419 15.3471 6.74327 15.3471 7.67913C15.3471 8.61499 15.7985 9.3666 16.6272 9.3666C17.4253 9.3666 17.9291 8.6343 17.9291 7.71097ZM16.1864 7.58358C16.1864 7.21404 16.2131 6.62215 16.6328 6.62215C16.8131 6.62215 16.9406 6.70618 17.0046 6.91496C17.0791 7.15663 17.0897 7.46249 17.0897 7.7172C17.0897 8.10553 17.0731 8.74232 16.6272 8.74232C16.1862 8.74232 16.1863 7.97026 16.1864 7.59583L16.1864 7.58358ZM5.54097 9.30502H6.10977H6.11027C6.13882 9.30569 6.16646 9.29457 6.18707 9.2741C6.20769 9.25362 6.21957 9.22548 6.2201 9.1959V7.59195L6.22009 7.56684V7.56684C6.21985 7.21808 6.21955 6.75683 6.61307 6.75683C6.97687 6.75683 6.97125 7.1621 6.9667 7.48937V7.48942V7.48947V7.48952V7.48956C6.96621 7.5248 6.96573 7.55913 6.96573 7.59195V9.19642C6.9667 9.25436 7.01065 9.30172 7.06649 9.30502H7.6368C7.66527 9.30555 7.69278 9.29437 7.71328 9.27391C7.73378 9.25345 7.7456 9.22539 7.74613 9.1959V7.59195L7.74608 7.55381C7.74573 7.38387 7.74527 7.15454 7.79953 7.01206C7.85486 6.86642 7.9886 6.76891 8.1396 6.76413C8.30435 6.76413 8.43181 6.82155 8.47413 7.02511C8.49573 7.12308 8.49293 7.35019 8.49108 7.5008V7.50081V7.50084V7.50087V7.50089V7.50092C8.49064 7.53642 8.49025 7.56766 8.49025 7.59195V9.19642C8.49097 9.25447 8.53506 9.30197 8.59101 9.30502H9.15981C9.18836 9.30569 9.216 9.29457 9.23661 9.2741C9.25723 9.25362 9.26911 9.22548 9.26964 9.1959V7.28608C9.26964 7.23952 9.27042 7.19193 9.2712 7.14383C9.27586 6.85866 9.28081 6.55512 9.12606 6.33718C8.93846 6.08996 8.63675 5.96677 8.33679 6.0149C8.03683 6.06303 7.78524 6.27501 7.67862 6.56945C7.51891 6.18686 7.29069 6.00887 6.94004 6.00887C6.58939 6.00887 6.32892 6.18686 6.19088 6.56945H6.1803V6.17433C6.1773 6.11801 6.1339 6.07305 6.07954 6.06994H5.54903C5.49045 6.06934 5.44212 6.11732 5.44021 6.17798V9.2053C5.44537 9.25977 5.4882 9.30215 5.54097 9.30502ZM4.551 9.32802C4.51353 9.36168 4.45969 9.36732 4.41648 9.34211C4.25528 9.20316 4.20668 9.12805 4.13205 9.01271L4.13204 9.0127L4.132 9.01263L4.13194 9.01254C4.11913 8.99275 4.10556 8.97177 4.09052 8.94908C3.77765 9.27896 3.55648 9.3776 3.15192 9.3776C2.6728 9.3776 2.29999 9.07122 2.29999 8.45845C2.29999 7.97982 2.55189 7.65464 2.90456 7.49493C3.16497 7.37654 3.51243 7.33979 3.81282 7.30802L3.81283 7.30802L3.81285 7.30802L3.81288 7.30801L3.81293 7.30801L3.81297 7.308C3.86877 7.3021 3.92295 7.29637 3.97464 7.29032V7.21412L3.97487 7.16973C3.97587 7.0398 3.97697 6.89513 3.90562 6.78612C3.83609 6.67755 3.7041 6.63319 3.58621 6.63319C3.36907 6.63319 3.1756 6.74854 3.12825 6.98707C3.12224 7.04271 3.08092 7.08724 3.02748 7.09563L2.48035 7.03352C2.45305 7.02947 2.42854 7.014 2.41255 6.99073C2.39655 6.96745 2.39047 6.93839 2.39571 6.91034C2.52217 6.21719 3.12673 6.00789 3.66833 6.00789C3.94542 6.00789 4.30715 6.08409 4.5248 6.30122C4.78029 6.54905 4.77871 6.87348 4.77699 7.22802L4.7767 7.31642V8.23453C4.7767 8.4818 4.86525 8.60479 4.95853 8.73435C4.96961 8.74974 4.98075 8.76522 4.99183 8.78101C5.0281 8.83321 5.03616 8.89845 4.99183 8.9376C4.87545 9.03834 4.66889 9.22415 4.55553 9.32906L4.551 9.32802ZM3.97713 7.89051L3.97715 7.91909C3.97735 8.13619 3.97752 8.32029 3.87083 8.51685C3.78015 8.68283 3.63656 8.78513 3.47635 8.78513C3.2582 8.78513 3.13074 8.61289 3.13074 8.35713C3.13074 7.85502 3.56552 7.76368 3.97713 7.76368V7.89051ZM12.4178 8.73211C12.4289 8.74752 12.4401 8.76302 12.4512 8.77884C12.4895 8.83312 12.4975 8.8968 12.4487 8.93282C12.3323 9.03355 12.1257 9.21989 12.0124 9.32428C11.9747 9.35748 11.921 9.36289 11.8779 9.33785C11.716 9.19831 11.668 9.1243 11.5923 9.00745C11.5797 8.98794 11.5662 8.96723 11.5514 8.94482C11.239 9.27469 11.0163 9.37334 10.6133 9.37334C10.1342 9.37334 9.76137 9.06696 9.76137 8.45471C9.76137 7.97556 10.0118 7.65038 10.3685 7.49067C10.6294 7.37183 10.9788 7.33525 11.2801 7.30371L11.2801 7.30371C11.3348 7.29799 11.3879 7.29243 11.4385 7.28658V7.21195L11.4388 7.16778C11.4398 7.03779 11.4409 6.89308 11.369 6.78447C11.3015 6.6759 11.167 6.63101 11.0496 6.63101C10.8325 6.63101 10.64 6.74637 10.5921 6.9849C10.586 7.04046 10.5447 7.0849 10.4914 7.09346L9.93971 7.03187C9.91221 7.02796 9.88749 7.01247 9.87137 6.98906C9.85526 6.96564 9.84918 6.93638 9.85457 6.90817C9.98153 6.2145 10.5861 6.00572 11.1277 6.00572C11.4043 6.00572 11.766 6.08192 11.9842 6.29905C12.2402 6.54559 12.2384 6.86751 12.2364 7.22024C12.2362 7.25135 12.2361 7.28269 12.2361 7.31425V8.23288C12.2361 8.47963 12.3246 8.60258 12.4178 8.73211ZM10.9388 8.78197C11.0985 8.78197 11.2426 8.67967 11.3328 8.51421C11.4398 8.31658 11.4397 8.13161 11.4396 7.91179L11.4396 7.88839V7.76103C11.028 7.76103 10.5932 7.85185 10.5932 8.35449C10.5932 8.60973 10.7206 8.78197 10.9388 8.78197ZM12.9328 6.16758V6.59871C12.9325 6.62828 12.9439 6.65669 12.9644 6.6773C12.9849 6.69792 13.0126 6.70894 13.0411 6.70779H14.0205L12.8975 8.37804C12.8463 8.46763 12.8221 8.57106 12.828 8.67503V9.11608C12.828 9.17975 12.896 9.25231 12.961 9.21629C13.5804 8.88358 14.3169 8.88222 14.9375 9.21264C15.0085 9.25074 15.0755 9.17714 15.0755 9.11347V8.64997C15.0736 8.5791 15.0351 8.51474 14.9747 8.48138C14.6478 8.29087 14.2674 8.23502 13.9077 8.2439L14.877 6.81062C14.9672 6.68222 15.0176 6.60079 15.0176 6.53868V6.16758C15.0179 6.1381 15.0065 6.10977 14.9861 6.08917C14.9658 6.06857 14.9382 6.05749 14.9097 6.05849H13.0391C13.0106 6.05683 12.9828 6.06775 12.9626 6.08855C12.9423 6.10934 12.9315 6.13806 12.9328 6.16758Z" fill="black"/>
</svg>
