<svg width="23" height="16" viewBox="0 0 23 16" fill="none" xmlns="http://www.w3.org/2000/svg">
<rect x="0.5" y="0.5" width="22" height="15" rx="2" fill="white" stroke="#D9D9D9"/>
<path fill-rule="evenodd" clip-rule="evenodd" d="M5.98797 11.7239C5.98797 11.6274 5.96555 11.5439 5.92081 11.4734C5.87602 11.4028 5.81711 11.349 5.74404 11.3119C5.81711 11.2748 5.87374 11.22 5.91398 11.1476C5.95416 11.0752 5.97425 10.9936 5.97425 10.9027V10.8526C5.97425 10.7412 5.95325 10.6484 5.91125 10.5742C5.86919 10.4999 5.81023 10.4405 5.73442 10.396C5.65861 10.3514 5.56766 10.3195 5.46174 10.2999C5.35571 10.2804 5.2379 10.2707 5.10813 10.2707C5.06431 10.2707 5.01861 10.2716 4.97114 10.2735C4.92356 10.2753 4.87746 10.2777 4.83273 10.2804C4.78794 10.2832 4.74679 10.2865 4.70939 10.2902C4.67189 10.294 4.64127 10.2977 4.61753 10.3013C4.56455 10.3107 4.5271 10.3273 4.50519 10.3514C4.48327 10.3756 4.47229 10.4192 4.47229 10.4823V12.1749C4.47229 12.238 4.48367 12.2816 4.50655 12.3057C4.52937 12.3299 4.56819 12.3465 4.62306 12.3558C4.65043 12.3614 4.68333 12.366 4.72169 12.3698C4.76005 12.3735 4.8016 12.3767 4.84639 12.3795C4.89118 12.3823 4.93728 12.3846 4.9848 12.3865C5.03233 12.3883 5.07888 12.3893 5.12458 12.3893C5.24336 12.3893 5.35526 12.3799 5.46038 12.3614C5.56538 12.3429 5.65673 12.3099 5.73442 12.2625C5.81211 12.2153 5.87374 12.1512 5.91945 12.0705C5.96509 11.9897 5.98797 11.8881 5.98797 11.7656V11.7239ZM5.52206 10.9248C5.52206 10.9546 5.51751 10.9829 5.50835 11.0098C5.49918 11.0366 5.48416 11.0598 5.46316 11.0794C5.4421 11.0988 5.41381 11.1146 5.37819 11.1266C5.34256 11.1387 5.29731 11.1447 5.2425 11.1447H4.93556V10.6631C4.94467 10.6631 4.95884 10.6627 4.97802 10.6618C4.9972 10.6608 5.01729 10.6604 5.03829 10.6604H5.14381C5.28451 10.6604 5.38274 10.6785 5.43846 10.7147C5.49418 10.7508 5.52206 10.807 5.52206 10.883V10.9248ZM5.45217 11.9354C5.50607 11.8928 5.53305 11.8324 5.53305 11.7545V11.7239C5.53305 11.657 5.51199 11.5991 5.46999 11.5499C5.42793 11.5007 5.35212 11.4761 5.2425 11.4761H4.93556V11.9967H4.98349C5.00449 11.9967 5.0264 11.9972 5.04928 11.9981C5.0721 11.999 5.09401 11.9995 5.11507 11.9995H5.16026C5.30095 11.9995 5.39828 11.9782 5.45217 11.9354ZM7.48995 11.3147C7.48995 11.2126 7.47487 11.1258 7.4447 11.0544C7.41459 10.983 7.37208 10.9245 7.31727 10.879C7.26246 10.8335 7.1953 10.8002 7.1158 10.7788C7.03634 10.7575 6.94727 10.7468 6.84858 10.7468C6.75718 10.7468 6.66811 10.7533 6.58137 10.7663C6.49452 10.7793 6.42554 10.7923 6.37443 10.8052C6.33972 10.8146 6.32236 10.8349 6.32236 10.8664V11.0919C6.32236 11.1106 6.32691 11.1236 6.33607 11.1309C6.34518 11.1384 6.35702 11.1421 6.3717 11.1421H6.38536L6.4676 11.1351C6.5005 11.1323 6.53749 11.1301 6.57864 11.1281C6.61973 11.1263 6.66265 11.1249 6.70744 11.124C6.75217 11.123 6.79651 11.1226 6.84039 11.1226C6.9043 11.1226 6.95456 11.1347 6.9911 11.1588C7.02764 11.1829 7.04591 11.2349 7.04591 11.3147V11.4149H6.89793C6.66219 11.4149 6.49088 11.4525 6.38399 11.5276C6.27711 11.6028 6.22367 11.722 6.22367 11.8854V11.9105C6.22367 12.0014 6.23693 12.0774 6.26339 12.1387C6.28986 12.1999 6.32509 12.2491 6.36891 12.2863C6.41279 12.3234 6.46254 12.3498 6.51831 12.3656C6.57403 12.3813 6.63208 12.3893 6.69235 12.3893C6.7746 12.3893 6.8454 12.3781 6.90476 12.3558C6.96412 12.3336 7.02029 12.303 7.07334 12.264V12.3085C7.07334 12.3234 7.0788 12.3364 7.08979 12.3475C7.10077 12.3586 7.11352 12.3642 7.12815 12.3642H7.43514C7.44971 12.3642 7.46252 12.3586 7.4735 12.3475C7.48448 12.3364 7.48995 12.3234 7.48995 12.3085V11.3147ZM6.94865 12.0314C6.98604 12.0194 7.02127 12.005 7.05417 11.9883V11.6821H6.89794C6.85042 11.6821 6.81115 11.6862 6.78007 11.6946C6.749 11.7029 6.7243 11.7155 6.70608 11.7322C6.68781 11.7488 6.67501 11.7702 6.66772 11.7962C6.66038 11.8222 6.65674 11.8518 6.65674 11.8853V11.9104C6.65674 11.9697 6.67085 12.0078 6.6992 12.0245C6.72754 12.0412 6.77091 12.0495 6.82942 12.0495C6.87142 12.0495 6.91115 12.0435 6.94865 12.0314ZM9.16735 12.3057V11.3787C9.16735 11.2915 9.16052 11.2093 9.14681 11.1323C9.13309 11.0554 9.10845 10.9885 9.07282 10.9319C9.03719 10.8753 8.98784 10.8302 8.92478 10.7969C8.86178 10.7635 8.78091 10.7468 8.68222 10.7468C8.59451 10.7468 8.51682 10.7575 8.44927 10.779C8.38165 10.8005 8.3104 10.8384 8.2355 10.8926V10.8252C8.2355 10.8102 8.22998 10.7971 8.21905 10.7859C8.20806 10.7747 8.19526 10.769 8.18063 10.769H7.87369C7.85901 10.769 7.84626 10.7746 7.83533 10.7857C7.82435 10.7969 7.81889 10.8099 7.81889 10.8247V12.3057C7.81889 12.3206 7.82475 12.3341 7.8367 12.3461C7.84854 12.3582 7.8618 12.3642 7.87643 12.3642H8.20806C8.22269 12.3642 8.2355 12.3582 8.24642 12.3461C8.25741 12.3341 8.26287 12.3207 8.26287 12.3058V11.2114C8.3104 11.1855 8.35513 11.1643 8.39719 11.1476C8.43919 11.1309 8.48028 11.1226 8.52052 11.1226C8.56253 11.1226 8.59679 11.1267 8.62331 11.1351C8.64978 11.1434 8.67032 11.1578 8.68495 11.1782C8.69957 11.1985 8.70965 11.2254 8.71511 11.2587C8.72058 11.292 8.72337 11.3328 8.72337 11.3809V12.3058C8.72337 12.3207 8.72883 12.3341 8.73981 12.3461C8.75074 12.3582 8.76349 12.3642 8.77817 12.3642H9.10981C9.12438 12.3642 9.13764 12.3582 9.14954 12.3461C9.16143 12.3341 9.16735 12.3206 9.16735 12.3057ZM10.5158 12.0358V12.2835C10.5158 12.3039 10.5112 12.3183 10.5021 12.3266C10.4929 12.335 10.4783 12.3419 10.4582 12.3475C10.4199 12.3568 10.3701 12.366 10.3089 12.3754C10.2476 12.3846 10.1759 12.3893 10.0937 12.3893C9.9 12.3893 9.74514 12.329 9.62915 12.2083C9.5131 12.0877 9.4551 11.9132 9.4551 11.6849V11.4511C9.4551 11.2228 9.5131 11.0484 9.62915 10.9278C9.74514 10.8071 9.9 10.7468 10.0937 10.7468C10.1759 10.7468 10.2476 10.7514 10.3089 10.7606C10.3701 10.77 10.4199 10.7793 10.4582 10.7885C10.4783 10.7941 10.4929 10.8011 10.5021 10.8094C10.5112 10.8178 10.5158 10.8322 10.5158 10.8526V11.1003C10.5158 11.1152 10.5107 11.1267 10.5007 11.1351C10.4907 11.1434 10.4783 11.1476 10.4637 11.1476H10.4582C10.407 11.1421 10.3582 11.1374 10.3116 11.1337C10.265 11.1301 10.2024 11.1281 10.1238 11.1281C10.0928 11.1281 10.0636 11.1333 10.0361 11.1434C10.0087 11.1537 9.98497 11.1713 9.96488 11.1963C9.94473 11.2214 9.9288 11.2548 9.9169 11.2966C9.90501 11.3383 9.89909 11.3898 9.89909 11.4511V11.6849C9.89909 11.7461 9.90501 11.7977 9.9169 11.8395C9.9288 11.8812 9.94473 11.9146 9.96488 11.9396C9.98497 11.9647 10.0087 11.9824 10.0361 11.9925C10.0636 12.0028 10.0928 12.0078 10.1238 12.0078C10.2024 12.0078 10.265 12.006 10.3116 12.0023C10.3582 11.9986 10.407 11.9939 10.4582 11.9884H10.4637C10.4783 11.9884 10.4907 11.9925 10.5007 12.0009C10.5107 12.0093 10.5158 12.0209 10.5158 12.0358ZM12.0371 11.4706C12.0371 11.3592 12.022 11.259 11.9917 11.1699C11.9615 11.0808 11.9176 11.0052 11.8599 10.943C11.8023 10.8809 11.7308 10.8326 11.6458 10.7983C11.5606 10.764 11.4622 10.7468 11.3505 10.7468C11.2388 10.7468 11.1404 10.764 11.0553 10.7983C10.9701 10.8326 10.8983 10.8809 10.8397 10.943C10.7811 11.0052 10.7367 11.0808 10.7065 11.1699C10.6762 11.259 10.6611 11.3592 10.6611 11.4706V11.6654C10.6611 11.7768 10.6762 11.877 10.7065 11.9661C10.7367 12.0552 10.7811 12.1308 10.8397 12.193C10.8983 12.2552 10.9701 12.3034 11.0553 12.3378C11.1404 12.372 11.2388 12.3893 11.3505 12.3893C11.4622 12.3893 11.5606 12.372 11.6458 12.3378C11.7308 12.3034 11.8023 12.2552 11.8599 12.193C11.9176 12.1308 11.9615 12.0552 11.9917 11.9661C12.022 11.877 12.0371 11.7768 12.0371 11.6654V11.4706ZM11.3505 12.0079C11.5122 12.0079 11.5931 11.8937 11.5931 11.6655V11.4706C11.5931 11.2442 11.5122 11.1309 11.3505 11.1309C11.2705 11.1309 11.2097 11.1592 11.1679 11.2158C11.1261 11.2725 11.1052 11.3574 11.1052 11.4706V11.6655C11.1052 11.7787 11.1261 11.864 11.1679 11.9216C11.2097 11.9791 11.2705 12.0079 11.3505 12.0079ZM13.6678 12.3057V11.3787C13.6678 11.2915 13.6608 11.2093 13.6472 11.1323C13.6335 11.0554 13.6088 10.9885 13.5731 10.9319C13.5375 10.8753 13.4882 10.8302 13.4252 10.7969C13.3621 10.7635 13.2813 10.7468 13.1826 10.7468C13.0949 10.7468 13.0172 10.7575 12.9496 10.779C12.882 10.8005 12.8108 10.8384 12.7359 10.8926V10.8252C12.7359 10.8102 12.7304 10.7971 12.7193 10.7859C12.7085 10.7747 12.6956 10.769 12.681 10.769H12.374C12.3594 10.769 12.3467 10.7746 12.3357 10.7857C12.3248 10.7969 12.3192 10.8099 12.3192 10.8247V12.3057C12.3192 12.3206 12.3252 12.3341 12.3371 12.3461C12.3489 12.3582 12.3622 12.3642 12.3768 12.3642H12.7085C12.723 12.3642 12.7359 12.3582 12.7468 12.3461C12.7578 12.3341 12.7633 12.3207 12.7633 12.3058V11.2114C12.8108 11.1855 12.8555 11.1643 12.8975 11.1476C12.9396 11.1309 12.9807 11.1226 13.0209 11.1226C13.0629 11.1226 13.0972 11.1267 13.1237 11.1351C13.1501 11.1434 13.1707 11.1578 13.1854 11.1782C13.2 11.1985 13.21 11.2254 13.2155 11.2587C13.221 11.292 13.2237 11.3328 13.2237 11.3809V12.3058C13.2237 12.3207 13.2292 12.3341 13.2402 12.3461C13.2512 12.3582 13.2639 12.3642 13.2785 12.3642H13.6102C13.6248 12.3642 13.6381 12.3582 13.65 12.3461C13.6618 12.3341 13.6678 12.3206 13.6678 12.3057ZM14.8629 12.0966V12.312C14.8629 12.3433 14.8455 12.3617 14.8108 12.3672C14.7687 12.3746 14.7322 12.3801 14.7012 12.3838C14.6701 12.3875 14.6344 12.3893 14.5943 12.3893C14.5197 12.3893 14.4539 12.3832 14.3967 12.3712C14.3395 12.3591 14.2917 12.3355 14.2536 12.3002C14.2155 12.265 14.1864 12.2162 14.1665 12.154C14.1466 12.0919 14.1365 12.0117 14.1365 11.9133V11.106L13.9173 11.0697C13.9026 11.066 13.8894 11.0591 13.8775 11.0489C13.8656 11.0387 13.8597 11.0261 13.8597 11.0113V10.8275C13.8597 10.8127 13.8656 10.7992 13.8775 10.7872C13.8894 10.7751 13.9026 10.7691 13.9173 10.7691H14.1365V10.5408C14.1365 10.5259 14.142 10.5139 14.1529 10.5046C14.1637 10.4954 14.1765 10.4889 14.1911 10.4851L14.5234 10.4267H14.5315C14.546 10.4267 14.5579 10.4308 14.567 10.4392C14.576 10.4475 14.5806 10.4592 14.5806 10.474V10.7691H14.8053C14.8199 10.7691 14.8327 10.7747 14.8437 10.7859C14.8547 10.7971 14.8601 10.8103 14.8601 10.8252V11.0526C14.8601 11.0676 14.8547 11.0807 14.8437 11.0919C14.8327 11.1031 14.8199 11.1087 14.8053 11.1087H14.5806V11.9188C14.5806 11.9745 14.5851 12.0103 14.5943 12.026C14.6034 12.0418 14.629 12.0496 14.671 12.0496H14.8053C14.8437 12.0496 14.8629 12.0653 14.8629 12.0966ZM16.3264 11.3147C16.3264 11.2126 16.3114 11.1258 16.2812 11.0544C16.2511 10.983 16.2086 10.9245 16.1538 10.879C16.099 10.8335 16.0318 10.8002 15.9523 10.7788C15.8729 10.7575 15.7838 10.7468 15.6851 10.7468C15.5936 10.7468 15.5046 10.7533 15.4179 10.7663C15.331 10.7793 15.2621 10.7923 15.2109 10.8052C15.1761 10.8146 15.1589 10.8349 15.1589 10.8664V11.0919C15.1589 11.1106 15.1634 11.1236 15.1725 11.1309C15.1817 11.1384 15.1935 11.1421 15.2082 11.1421H15.2219L15.3041 11.1351C15.337 11.1323 15.374 11.1301 15.4151 11.1281C15.4562 11.1263 15.4992 11.1249 15.544 11.124C15.5887 11.123 15.633 11.1226 15.6768 11.1226C15.7408 11.1226 15.7911 11.1347 15.8276 11.1588C15.8642 11.1829 15.8824 11.2349 15.8824 11.3147V11.4149H15.7344C15.4987 11.4149 15.3274 11.4525 15.2205 11.5276C15.1136 11.6028 15.0602 11.722 15.0602 11.8854V11.9105C15.0602 12.0014 15.0734 12.0774 15.0999 12.1387C15.1263 12.1999 15.1616 12.2491 15.2054 12.2863C15.2493 12.3234 15.2991 12.3498 15.3548 12.3656C15.4105 12.3813 15.4685 12.3893 15.5289 12.3893C15.6111 12.3893 15.6819 12.3781 15.7413 12.3558C15.8006 12.3336 15.8568 12.303 15.9099 12.264V12.3085C15.9099 12.3234 15.9153 12.3364 15.9263 12.3475C15.9372 12.3586 15.95 12.3642 15.9647 12.3642H16.2717C16.2862 12.3642 16.299 12.3586 16.31 12.3475C16.3209 12.3364 16.3264 12.3234 16.3264 12.3085V11.3147ZM15.7852 12.0314C15.8226 12.0194 15.8578 12.005 15.8907 11.9883V11.6821H15.7345C15.6869 11.6821 15.6477 11.6862 15.6166 11.6946C15.5855 11.7029 15.5608 11.7155 15.5426 11.7322C15.5243 11.7488 15.5115 11.7702 15.5042 11.7962C15.4969 11.8222 15.4933 11.8518 15.4933 11.8853V11.9104C15.4933 11.9697 15.5074 12.0078 15.5357 12.0245C15.5641 12.0412 15.6074 12.0495 15.6659 12.0495C15.7079 12.0495 15.7476 12.0435 15.7852 12.0314ZM17.6749 12.2835V12.0358C17.6749 12.0209 17.6699 12.0093 17.6599 12.0009C17.6498 11.9925 17.6375 11.9884 17.6229 11.9884H17.6174C17.5662 11.9939 17.5173 11.9986 17.4707 12.0023C17.4242 12.006 17.3616 12.0078 17.283 12.0078C17.2519 12.0078 17.2226 12.0028 17.1953 11.9925C17.1679 11.9824 17.1441 11.9647 17.124 11.9396C17.1039 11.9146 17.0879 11.8812 17.0761 11.8395C17.0641 11.7977 17.0583 11.7461 17.0583 11.6849V11.4511C17.0583 11.3898 17.0641 11.3383 17.0761 11.2966C17.0879 11.2548 17.1039 11.2214 17.124 11.1963C17.1441 11.1713 17.1679 11.1537 17.1953 11.1434C17.2226 11.1333 17.2519 11.1281 17.283 11.1281C17.3616 11.1281 17.4242 11.1301 17.4707 11.1337C17.5173 11.1374 17.5662 11.1421 17.6174 11.1476H17.6229C17.6375 11.1476 17.6498 11.1434 17.6599 11.1351C17.6699 11.1267 17.6749 11.1152 17.6749 11.1003V10.8526C17.6749 10.8322 17.6704 10.8178 17.6612 10.8094C17.652 10.8011 17.6375 10.7941 17.6174 10.7885C17.579 10.7793 17.5292 10.77 17.468 10.7606C17.4068 10.7514 17.3351 10.7468 17.2529 10.7468C17.0591 10.7468 16.9043 10.8071 16.7883 10.9278C16.6722 11.0484 16.6142 11.2228 16.6142 11.4511V11.6849C16.6142 11.9132 16.6722 12.0877 16.7883 12.2083C16.9043 12.329 17.0591 12.3893 17.2529 12.3893C17.3351 12.3893 17.4068 12.3846 17.468 12.3754C17.5292 12.366 17.579 12.3568 17.6174 12.3475C17.6375 12.3419 17.652 12.335 17.6612 12.3266C17.6704 12.3183 17.6749 12.3039 17.6749 12.2835ZM18.8562 12.0966V12.312C18.8562 12.3433 18.8388 12.3617 18.8041 12.3672C18.7621 12.3746 18.7255 12.3801 18.6945 12.3838C18.6634 12.3875 18.6277 12.3893 18.5876 12.3893C18.5131 12.3893 18.4472 12.3832 18.39 12.3712C18.3328 12.3591 18.2851 12.3355 18.247 12.3002C18.2089 12.265 18.1798 12.2162 18.1598 12.154C18.1399 12.0919 18.1299 12.0117 18.1299 11.9133V11.106L17.9106 11.0697C17.8959 11.066 17.8827 11.0591 17.8708 11.0489C17.8589 11.0387 17.853 11.0261 17.853 11.0113V10.8275C17.853 10.8127 17.8589 10.7992 17.8708 10.7872C17.8827 10.7751 17.8959 10.7691 17.9106 10.7691H18.1299V10.5408C18.1299 10.5259 18.1353 10.5139 18.1462 10.5046C18.157 10.4954 18.1698 10.4889 18.1843 10.4851L18.5166 10.4267H18.5248C18.5394 10.4267 18.5512 10.4308 18.5602 10.4392C18.5693 10.4475 18.5739 10.4592 18.5739 10.474V10.7691H18.7987C18.8132 10.7691 18.826 10.7747 18.837 10.7859C18.8479 10.7971 18.8535 10.8103 18.8535 10.8252V11.0526C18.8535 11.0676 18.8479 11.0807 18.837 11.0919C18.826 11.1031 18.8132 11.1087 18.7987 11.1087H18.5739V11.9188C18.5739 11.9745 18.5785 12.0103 18.5876 12.026C18.5967 12.0418 18.6223 12.0496 18.6643 12.0496H18.7987C18.837 12.0496 18.8562 12.0653 18.8562 12.0966Z" fill="#005697"/>
<path d="M17.289 4.91324H12.8361L12.3832 5.43114L10.9137 7.11161V7.11166L10.4608 7.62951H6.06674L6.5126 7.10507L6.72364 6.85685L7.16951 6.33242H5.14484C4.77496 6.33242 4.47229 6.64764 4.47229 7.03287V8.51084C4.47229 8.89613 4.77496 9.21135 5.14484 9.21135H12.8961C13.266 9.21135 13.7713 8.97723 14.019 8.69109L15.1915 7.33654L17.289 4.91324Z" fill="#005697"/>
<path d="M18.1837 3.33334C18.5536 3.33334 18.8563 3.64857 18.8563 4.03386V5.51177C18.8563 5.897 18.5536 6.21228 18.1837 6.21228H16.1657L16.6157 5.69178H16.6158L16.8389 5.43373L17.289 4.91329H12.8362L10.4609 7.63152H6.03955L9.21029 3.99004L9.33027 3.85223C9.57881 3.56683 10.0848 3.33334 10.4547 3.33334H18.1837V3.33334Z" fill="#FBD500"/>
</svg>
