<svg width="23" height="16" viewBox="0 0 23 16" fill="none" xmlns="http://www.w3.org/2000/svg">
<rect x="0.5" y="0.5" width="22" height="15" rx="2" fill="white" stroke="#D9D9D9"/>
<path fill-rule="evenodd" clip-rule="evenodd" d="M16.1684 5.38774C17.6004 7.96656 16.6896 11.246 14.1341 12.7125C11.5785 14.179 8.34604 13.2773 6.91408 10.6985C5.48211 8.11967 6.39293 4.84027 8.94845 3.37375C11.504 1.90723 14.7365 2.80892 16.1684 5.38774ZM11.6901 5.66916C12.458 5.52276 13.1146 5.58658 13.3675 6.26144C13.5532 6.75531 13.4244 7.11962 13.1336 7.38817C13.7243 7.36503 14.1327 7.73006 14.293 8.36285C14.457 9.31172 13.8398 9.75369 12.878 10.0877L13.1388 11.0591L12.5578 11.2239L12.3003 10.2654C12.1498 10.3083 11.995 10.3505 11.8349 10.3927L12.0938 11.3557L11.5133 11.5201L11.2512 10.5471L10.0792 10.876L10.0066 10.1435C10.0066 10.1435 10.4383 10.0279 10.429 10.0236C10.5934 9.97668 10.605 9.84519 10.5954 9.76788L9.88647 7.13167C9.83236 7.01905 9.71865 6.90329 9.48316 6.96986C9.48792 6.95981 9.06123 7.08989 9.06123 7.08989L8.89283 6.46437L10.0638 6.13019L9.80528 5.16778L10.386 5.00321L10.6397 5.94648C10.7942 5.89902 10.9496 5.85181 11.1022 5.80852L10.8501 4.87135L11.4311 4.70661L11.6901 5.66916ZM11.2461 7.77368C11.645 7.66716 12.5128 7.43536 12.3505 6.83012C12.1841 6.2111 11.359 6.46889 10.9551 6.59512C10.9093 6.60942 10.8689 6.62203 10.8355 6.63149L11.1494 7.80002C11.1769 7.79217 11.2095 7.78346 11.2461 7.7737L11.2461 7.77369L11.2461 7.77368ZM11.7729 9.65101C12.2501 9.52275 13.2938 9.24223 13.1145 8.57556C12.9314 7.89384 11.9392 8.20131 11.4551 8.35133L11.455 8.35134C11.4009 8.3681 11.3532 8.38289 11.3136 8.39412L11.6594 9.68202C11.6918 9.6728 11.73 9.66252 11.7729 9.65101Z" fill="#8FC258"/>
</svg>
