<svg width="23" height="16" viewBox="0 0 23 16" fill="none" xmlns="http://www.w3.org/2000/svg">
<rect x="0.5" y="0.5" width="22" height="15" rx="2" fill="white" stroke="#D9D9D9"/>
<path fill-rule="evenodd" clip-rule="evenodd" d="M4.53474 9.17787C4.40895 9.24867 4.27502 9.284 4.13305 9.284H4.02349C3.99503 9.284 3.95438 9.2816 3.83701 9.26051L4.23387 7.54745C4.30688 7.48089 4.38564 7.43768 4.47695 7.41678C4.56826 7.39598 4.62706 7.39037 4.68394 7.39037C4.85832 7.39037 4.99326 7.44173 5.05823 7.55419C5.1231 7.66655 5.15561 7.82269 5.15561 8.02251C5.15561 8.18492 5.12917 8.34105 5.07648 8.49091C5.0237 8.64078 4.9517 8.77503 4.86044 8.89371C4.76913 9.01234 4.66049 9.10711 4.53474 9.17787ZM5.42953 6.71738C5.28741 6.64662 5.11909 6.61119 4.92429 6.61119C4.83091 6.61119 4.7437 6.62162 4.66259 6.64242C4.58135 6.66332 4.50485 6.69025 4.42375 6.72771L4.79652 5.11865L3.85304 5.26851L2.80005 9.80859C2.9177 9.86694 3.04244 9.9127 3.17439 9.94595C3.3062 9.97926 3.43098 10.0042 3.54868 10.0209C3.66633 10.0375 3.77088 10.0469 3.86219 10.049C3.9535 10.0511 4.01741 10.0521 4.05391 10.0521C4.33791 10.0521 4.60172 9.9969 4.84517 9.88661C5.08866 9.77637 5.2996 9.62651 5.47821 9.43702C5.65674 9.24759 5.79775 9.02484 5.90124 8.7688C6.00474 8.51275 6.05646 8.2411 6.05646 7.95382C6.05646 7.76651 6.03407 7.59164 5.98947 7.42928C5.94478 7.26687 5.87582 7.12541 5.78253 7.0046C5.68915 6.88389 5.5715 6.78818 5.42953 6.71738ZM7.92487 6.21041L8.06349 5.61214H7.15969L7.02107 6.21041H7.92487ZM8.95825 9.20803C9.02468 9.24223 9.11622 9.25922 9.23268 9.25922C9.33249 9.25922 9.42918 9.24964 9.52274 9.23044C9.58394 9.21789 9.64743 9.20308 9.71065 9.18096L9.52242 9.98876C9.50762 9.99244 9.48477 9.9981 9.46973 10.0016C9.32413 10.0357 9.15158 10.0528 8.95199 10.0528C8.66501 10.0528 8.44249 10.009 8.28451 9.92164C8.1264 9.83423 8.01412 9.71475 7.94764 9.56323C7.88107 9.41181 7.85192 9.23794 7.86033 9.04162C7.86861 8.84543 7.89776 8.6384 7.94764 8.4208L8.55899 5.77115L9.52587 5.61751L9.28882 6.60957H10.3243L10.1372 7.39039H9.10795L8.83347 8.56802C8.8085 8.66623 8.79292 8.75793 8.78666 8.84321C8.78046 8.92859 8.79076 9.00223 8.81788 9.06402C8.84487 9.12591 8.89163 9.17393 8.95825 9.20803ZM20.2144 6.61062H19.3106L18.7849 8.87974H18.7858L18.7136 9.19187C18.6632 9.2064 18.613 9.21946 18.5631 9.2297C18.4696 9.2489 18.3729 9.25852 18.2731 9.25852C18.1565 9.25852 18.0651 9.24149 17.9986 9.20729C17.932 9.17319 17.8852 9.12522 17.8582 9.06328C17.8311 9.00149 17.8208 8.9279 17.827 8.84247C17.8333 8.75719 17.8489 8.66549 17.8738 8.56728L18.1483 7.38965L18.3292 6.60883L18.3292 6.60859H17.4059L16.988 8.4201C16.9381 8.6377 16.909 8.84469 16.9007 9.04092C16.8923 9.2372 16.9214 9.41112 16.988 9.56249C17.0545 9.71401 17.1668 9.83354 17.3249 9.92095C17.4829 10.0083 17.7054 10.0521 17.9923 10.0521C18.1919 10.0521 18.3645 10.0351 18.5101 10.0009L18.5274 9.99661L18.527 9.99831C18.4865 10.1852 18.4046 10.3368 18.2731 10.4551C18.1415 10.5735 17.9462 10.6327 17.6872 10.6327C17.5766 10.6327 17.4761 10.6259 17.3851 10.613L17.2072 11.3808C17.3275 11.3968 17.4609 11.4051 17.6082 11.4051C17.8834 11.4051 18.1244 11.3728 18.3308 11.3085C18.5372 11.2441 18.7142 11.1465 18.862 11.0157C19.0097 10.8849 19.1332 10.7208 19.2324 10.5237C19.3315 10.3263 19.4115 10.0928 19.4722 9.82283L20.0976 7.12554L20.0953 7.12455L20.2144 6.61062ZM6.12957 10.0528L6.92744 6.60864H7.83125L7.03337 10.0528H6.12957ZM15.7814 7.39038C15.36 7.39038 15.2795 7.39038 15.1068 7.48226C14.9843 7.54746 14.8828 7.64548 14.7937 7.75982C14.7045 7.87421 14.6346 8.00619 14.584 8.15587C14.5332 8.30564 14.5079 8.46154 14.5079 8.62371C14.5079 8.82329 14.5404 8.98141 14.6053 9.09778C14.67 9.21425 14.7896 9.27241 14.9639 9.27241C15.0571 9.27241 15.1412 9.25373 15.2163 9.21627C15.2912 9.17887 15.3713 9.11646 15.4564 9.02915C15.4645 8.92528 15.4777 8.81612 15.4959 8.70168C15.5126 8.59723 15.5333 8.49971 15.5523 8.4106L15.5523 8.41055L15.5523 8.4105L15.5523 8.41047L15.5523 8.41046L15.5523 8.41045L15.5576 8.38564L15.7814 7.39038ZM16.4231 8.54884C16.3663 8.78592 16.3501 9.02395 16.3744 9.26306C16.3988 9.50226 16.4879 9.86869 16.5749 10.0521H15.7003C15.6206 9.91397 15.603 9.83052 15.5909 9.77283L15.5909 9.77282L15.5908 9.7728C15.5867 9.75308 15.5832 9.73637 15.578 9.72151C15.4645 9.81722 15.3388 9.89619 15.2011 9.95855C15.0633 10.0209 14.9092 10.0521 14.739 10.0521C14.5363 10.0521 14.363 10.0157 14.2192 9.94298C14.0753 9.87024 13.9578 9.7725 13.8666 9.64981C13.7754 9.52722 13.7094 9.38372 13.669 9.21942C13.6284 9.05517 13.6082 8.87946 13.6082 8.69233C13.6082 8.40539 13.6578 8.1351 13.7572 7.88146C13.8564 7.62782 13.9943 7.40636 14.1706 7.21711C14.3469 7.0279 14.7724 6.61067 15.4706 6.61067L16.8727 6.61063L16.4231 8.54884ZM11.1351 9.26065C11.2045 9.27744 11.2901 9.28579 11.3922 9.28579C11.5513 9.28579 11.6961 9.25546 11.8267 9.19475C11.9573 9.13409 12.0685 9.04933 12.1603 8.94041C12.2521 8.83158 12.3234 8.70083 12.3745 8.54794C12.4254 8.39516 12.451 8.22671 12.451 8.04246C12.451 7.8625 12.4122 7.70962 12.3347 7.58405C12.2572 7.45843 12.1212 7.39169 11.9295 7.39088C11.7954 7.39037 11.5727 7.39037 11.5727 7.39037L11.1351 9.26065ZM13.3568 7.97338C13.3568 8.27905 13.3079 8.55849 13.2099 8.81171C13.1121 9.06506 12.9763 9.28379 12.803 9.4679C12.6295 9.6522 12.4214 9.79555 12.1787 9.8981C11.9359 10.0006 11.6716 10.0519 11.386 10.0519C11.2473 10.0519 11.1085 10.0394 10.9698 10.0142L10.6944 11.1508H9.78858L10.8401 6.61075H12.0471C12.2755 6.61075 12.4724 6.64636 12.6377 6.7175C12.803 6.78873 12.9386 6.88604 13.0447 7.00949C13.1507 7.13303 13.2293 7.27747 13.2803 7.44275C13.3313 7.60823 13.3568 7.78503 13.3568 7.97338Z" fill="#002855"/>
</svg>
