<svg width="23" height="16" viewBox="0 0 23 16" fill="none" xmlns="http://www.w3.org/2000/svg">
<rect x="0.5" y="0.5" width="22" height="15" rx="2" fill="white" stroke="#D9D9D9"/>
<path d="M3.52999 6.87195C3.37866 6.87195 3.36373 6.82112 3.36373 6.45062V6.38739C3.36373 6.01563 3.37866 5.96531 3.52999 5.96531H6.99061C7.14247 5.96531 7.15739 6.01563 7.15739 6.38689V6.45011C7.15739 6.82112 7.1422 6.8717 6.99061 6.8717H3.52999V6.87195ZM3.52999 5.24049C3.37866 5.24049 3.36373 5.18991 3.36373 4.81891V4.75569C3.36373 4.38342 3.37866 4.33334 3.52999 4.33334H6.99061C7.14247 4.33334 7.15739 4.38392 7.15739 4.75569V4.81891C7.15739 5.18991 7.1422 5.24049 6.99061 5.24049H3.52999ZM4.04842 10.0855C4.04842 9.47151 4.35816 9.13389 4.82422 9.13389C5.00017 9.13389 5.14104 9.18345 5.31725 9.26818C5.38113 9.29954 5.43402 9.28689 5.51781 9.09494L5.57882 8.96444C5.63904 8.80714 5.64349 8.74214 5.57044 8.70724C5.35443 8.58509 5.02007 8.50796 4.73127 8.50796C3.90834 8.50796 3.28571 9.13768 3.28571 10.0855C3.28571 11.0332 3.90834 11.6629 4.73101 11.6629C5.02007 11.6629 5.36202 11.586 5.57882 11.4631C5.65108 11.429 5.64637 11.3632 5.58667 11.2059L5.52645 11.0681C5.44266 10.8759 5.38951 10.865 5.3251 10.8948C5.14889 10.9801 5.00043 11.0296 4.82422 11.0296C4.35816 11.0296 4.0492 10.6993 4.0492 10.0855H4.04868H4.04842ZM13.854 11.5177C13.854 11.6012 13.8215 11.6239 13.5772 11.6239H13.5529C13.2955 11.6239 13.2596 11.6126 13.2394 11.5516C13.226 11.5102 13.2152 11.4681 13.2072 11.4254C13.0711 11.5827 12.9069 11.6667 12.6569 11.6667C12.0505 11.6667 11.686 11.2367 11.686 10.5453C11.686 9.798 12.0916 9.35543 12.693 9.35543C12.8624 9.35543 13.0185 9.40601 13.1389 9.49806V8.52693C13.1389 8.46193 13.1468 8.43487 13.4845 8.43487H13.5089C13.8215 8.43487 13.8537 8.46193 13.8537 8.52693V11.5177H13.854ZM13.1392 10.0433C13.0979 9.99972 13.0476 9.96493 12.9916 9.94115C12.9356 9.91738 12.8751 9.90514 12.814 9.90523C12.5448 9.90523 12.417 10.1311 12.417 10.5458C12.417 10.7836 12.4691 10.9345 12.5448 11.0137C12.6129 11.0954 12.7176 11.1217 12.8184 11.1217C12.9428 11.1217 13.0389 11.0921 13.0834 11.0372C13.1229 10.9952 13.1389 10.9302 13.1389 10.7805V10.0431L13.1394 10.0433H13.1392ZM17.4976 11.5329C17.4976 11.5974 17.4654 11.6239 17.152 11.6239H17.1279C16.7907 11.6239 16.7836 11.5974 16.7836 11.5329V8.52693C16.7836 8.46193 16.7907 8.43487 17.1276 8.43487H17.1517C17.4649 8.43487 17.4973 8.46193 17.4973 8.52693V11.5329H17.4976ZM14.983 10.7337C15.0228 11.0061 15.1992 11.1371 15.4765 11.1371C15.6899 11.1371 15.8897 11.0916 16.1232 10.9952C16.1719 10.9763 16.2157 10.9952 16.2673 11.1477L16.3039 11.2332C16.3555 11.3905 16.351 11.4254 16.2955 11.4555C16.018 11.605 15.7292 11.6662 15.4079 11.6662C14.6978 11.6662 14.2525 11.2489 14.2525 10.5344C14.2525 9.83973 14.6617 9.35543 15.3642 9.35543C16.0591 9.35543 16.4157 9.83189 16.4157 10.492C16.4157 10.711 16.3961 10.7337 16.3157 10.7337H14.983ZM15.7009 10.3081C15.6899 10.0785 15.5936 9.87817 15.3566 9.87817C15.1511 9.87817 15.0024 10.0274 14.9743 10.3081H15.7009ZM18.6098 10.7337C18.6491 11.0061 18.8261 11.1371 19.1037 11.1371C19.3152 11.1371 19.5168 11.0916 19.7496 10.9952C19.7972 10.9763 19.8423 10.9952 19.8941 11.1477L19.9305 11.2332C19.9821 11.3905 19.9779 11.4254 19.9227 11.4555C19.6451 11.605 19.3558 11.6662 19.0343 11.6662C18.3239 11.6662 17.8791 11.2489 17.8791 10.5344C17.8791 9.83973 18.2875 9.35543 18.9903 9.35543C19.6857 9.35543 20.0428 9.83189 20.0428 10.492C20.0428 10.711 20.0227 10.7337 19.9423 10.7337H18.6096H18.6098ZM19.3286 10.3081C19.3155 10.0785 19.2199 9.87817 18.983 9.87817C18.7782 9.87817 18.629 10.0274 18.6012 10.3081H19.3286ZM10.5434 10.0585C10.5072 10.0124 10.4605 9.97493 10.4069 9.94905C10.3534 9.92318 10.2943 9.90957 10.2344 9.90928C9.96526 9.90928 9.83722 10.1356 9.83722 10.5382C9.83722 10.8797 9.93253 11.1333 10.2258 11.1333C10.3347 11.1333 10.4143 11.1065 10.4711 11.0521C10.523 10.999 10.5434 10.9257 10.5434 10.7653V10.0585ZM11.266 11.5177C11.266 11.6012 11.2344 11.6239 10.9895 11.6239H10.9565C10.7 11.6239 10.6638 11.6126 10.6439 11.5516C10.6301 11.5103 10.6194 11.4682 10.6117 11.4254C10.4756 11.5827 10.3106 11.6667 10.0614 11.6667C9.4793 11.6667 9.10567 11.2438 9.10567 10.5539C9.10567 9.78637 9.56754 9.35543 10.1137 9.35543C10.3347 9.35543 10.5269 9.44445 10.6316 9.5709L10.6439 9.47479C10.6473 9.42927 10.6602 9.39892 10.9241 9.39892H10.9526C11.226 9.39892 11.2655 9.41739 11.2655 9.48744V11.5177H11.266ZM7.91487 8.75024C8.1835 8.75024 8.19974 8.75353 8.19974 8.83799V9.39842H8.66187C8.72575 9.39842 8.74565 9.4098 8.74565 9.62072V9.65182C8.74565 9.86224 8.72575 9.87438 8.66187 9.87438H8.19974V10.8802C8.19974 11.0486 8.23142 11.1371 8.39192 11.1371C8.47571 11.1371 8.54902 11.1217 8.62128 11.0992C8.69721 11.0711 8.72602 11.1065 8.77786 11.2825L8.7899 11.3248C8.84593 11.5177 8.82944 11.5329 8.75796 11.5668C8.61343 11.632 8.4202 11.6667 8.2398 11.6667C7.66979 11.6667 7.50929 11.3905 7.50929 10.91V9.87438H7.24013C7.17205 9.87438 7.15503 9.86173 7.15503 9.65182V9.62072C7.15503 9.4098 7.17179 9.39892 7.24013 9.39892H7.54123C7.57396 9.21861 7.62947 8.9647 7.66586 8.83799C7.68603 8.76491 7.69807 8.75024 7.91487 8.75024ZM6.42139 9.39892C6.7348 9.39892 6.76255 9.42497 6.76255 9.49073V11.5329C6.76255 11.6012 6.7348 11.6239 6.42139 11.6239H6.40096C6.05613 11.6239 6.04828 11.6012 6.04828 11.5329V9.49073C6.04828 9.42497 6.05613 9.39892 6.40096 9.39892H6.42139ZM6.40096 8.40073C6.62718 8.40073 6.79109 8.56941 6.79109 8.76111C6.79008 8.80915 6.77919 8.85652 6.75905 8.90046C6.73891 8.9444 6.70993 8.98403 6.67379 9.01705C6.60048 9.08406 6.50229 9.12048 6.40096 9.11821C6.17736 9.11821 6.01162 8.94952 6.01162 8.76111C6.01162 8.56891 6.17736 8.40073 6.40096 8.40073Z" fill="#EE293D"/>
</svg>
