<svg width="24" height="16" viewBox="0 0 24 16" fill="none" xmlns="http://www.w3.org/2000/svg">
<rect x="0.5" y="0.5" width="22.3333" height="15" rx="2" fill="white" stroke="#D9D9D9"/>
<path d="M5.3804 4.7631C5.40013 3.96706 6.10975 3.27994 6.90052 3.26831C7.69014 3.26588 8.47988 3.26796 9.26951 3.26725C9.26734 5.93064 9.27378 8.59433 9.26625 11.2576C9.23583 12.0439 8.53395 12.718 7.7518 12.7319C6.96068 12.7348 6.16947 12.7323 5.37832 12.7331V9.40842C6.14679 9.58997 6.95265 9.66724 7.73662 9.54683C8.20524 9.47143 8.71796 9.2413 8.87661 8.75513C8.99337 8.33926 8.92763 7.90159 8.94501 7.47476V6.48351H7.58828C7.58218 7.1391 7.60076 7.79582 7.57846 8.45062C7.54189 8.85309 7.14331 9.10881 6.76372 9.09515C6.29296 9.10013 5.3601 8.75398 5.3601 8.75398C5.35775 7.52569 5.37375 5.98744 5.3804 4.76322V4.7631Z" fill="url(#paint0_linear_358_3818)"/>
<path d="M14.8788 8.19155C15.2213 8.199 15.5657 8.17643 15.9067 8.20328C16.2522 8.26772 16.3354 8.79064 16.0285 8.9619C15.8191 9.07472 15.5704 9.00392 15.3434 9.02382H14.8788V8.19155ZM16.1047 7.24954C16.1808 7.51809 15.9219 7.75922 15.6633 7.72223H14.8788C14.8843 7.46898 14.8681 7.1941 14.8868 6.95418C15.201 6.96303 15.5182 6.93613 15.8307 6.96824C15.9649 7.00197 16.0773 7.11234 16.1047 7.24954ZM17.9927 3.26699C18.0073 3.77985 17.9948 4.31983 17.999 4.8431C17.9981 6.97053 18.0011 9.0979 17.9973 11.2254C17.9836 12.0228 17.277 12.7156 16.4852 12.7315C15.6926 12.7347 14.9 12.732 14.1073 12.7328V9.51661C14.9709 9.51216 15.835 9.52567 16.6983 9.50987C17.0988 9.48473 17.5375 9.22048 17.5561 8.77977C17.6033 8.33714 17.186 8.03099 16.7897 7.98264C16.6375 7.97868 16.6419 7.93824 16.7897 7.9206C17.1676 7.83893 17.4644 7.44782 17.3532 7.05613C17.2585 6.64416 16.8031 6.48471 16.4244 6.4855C15.6521 6.48026 14.8797 6.48477 14.1075 6.48325C14.1125 5.88281 14.0971 5.28174 14.1158 4.68175C14.177 3.89883 14.9013 3.25318 15.682 3.26719C16.4523 3.26707 17.2226 3.26707 17.9927 3.26705V3.26699Z" fill="url(#paint1_linear_358_3818)"/>
<path d="M9.7755 6.88309C9.70409 6.89824 9.76114 6.63982 9.74289 6.5418C9.74775 5.922 9.73272 5.30152 9.75118 4.68216C9.81219 3.89593 10.5421 3.24867 11.326 3.26708H13.6342C13.6321 5.93047 13.6385 8.59415 13.631 11.2574C13.6005 12.0438 12.8986 12.7178 12.1164 12.7317C11.3253 12.7347 10.5341 12.7322 9.74286 12.7329V9.09031C10.2832 9.53367 11.0176 9.60268 11.6908 9.60389C12.1983 9.60371 12.7029 9.52546 13.1957 9.40842V8.74109C12.6403 9.0179 11.9874 9.19373 11.3717 9.03469C10.9422 8.92779 10.6304 8.51271 10.6374 8.06947C10.5876 7.60853 10.8578 7.12189 11.3108 6.98486C11.8731 6.8088 12.4861 6.94345 13.0132 7.17236C13.1262 7.23149 13.2408 7.30484 13.1957 7.11606V6.59153C12.314 6.38176 11.3757 6.30457 10.49 6.53277C10.2336 6.6051 9.98377 6.71479 9.7755 6.88314V6.88309Z" fill="url(#paint2_linear_358_3818)"/>
<defs>
<linearGradient id="paint0_linear_358_3818" x1="5.29553" y1="8.09081" x2="9.20571" y2="8.09081" gradientUnits="userSpaceOnUse">
<stop stop-color="#0F6EB6"/>
<stop offset="1" stop-color="#006DBA"/>
</linearGradient>
<linearGradient id="paint1_linear_358_3818" x1="14.0807" y1="7.79752" x2="17.9745" y2="7.79752" gradientUnits="userSpaceOnUse">
<stop stop-color="#58B03A"/>
<stop offset="1" stop-color="#55B330"/>
</linearGradient>
<linearGradient id="paint2_linear_358_3818" x1="9.73715" y1="7.88931" x2="13.6335" y2="7.88931" gradientUnits="userSpaceOnUse">
<stop stop-color="#DE0D3D"/>
<stop offset="1" stop-color="#E30138"/>
</linearGradient>
</defs>
</svg>
