<svg width="23" height="16" viewBox="0 0 23 16" fill="none" xmlns="http://www.w3.org/2000/svg">
<rect x="0.5" y="0.5" width="22" height="15" rx="2" fill="#FEB4C7" stroke="#D9D9D9"/>
<path fill-rule="evenodd" clip-rule="evenodd" d="M3.56448 10.2531H2.6286V6H3.56448V10.2531ZM5.901 6H4.98542C4.98542 6.78268 4.6404 7.50105 4.03885 7.97103L3.67611 8.25436L5.0816 10.2533H6.23719L4.94395 8.41396C5.55697 7.7773 5.901 6.92076 5.901 6ZM7.39373 10.2518H6.50991V6.00074H7.39373V10.2518ZM10.064 7.31133V7.49944C9.82557 7.32976 9.53772 7.23004 9.22726 7.23004C8.4056 7.23004 7.73952 7.92475 7.73952 8.78172C7.73952 9.63869 8.4056 10.3334 9.22726 10.3334C9.53772 10.3334 9.82557 10.2337 10.064 10.064V10.252H10.9082V7.31133H10.064ZM10.0615 8.78181C10.0615 9.19967 9.71901 9.53843 9.29655 9.53843C8.87413 9.53843 8.53165 9.19967 8.53165 8.78181C8.53165 8.36396 8.87413 8.02529 9.29655 8.02529C9.71901 8.02529 10.0615 8.36396 10.0615 8.78181ZM18.9698 7.49944V7.31133H19.814V10.252H18.9698V10.064C18.7314 10.2337 18.4435 10.3334 18.133 10.3334C17.3114 10.3334 16.6453 9.63869 16.6453 8.78172C16.6453 7.92475 17.3114 7.23004 18.133 7.23004C18.4435 7.23004 18.7314 7.32976 18.9698 7.49944ZM18.2023 9.53843C18.6248 9.53843 18.9672 9.19967 18.9672 8.78181C18.9672 8.36396 18.6248 8.02529 18.2023 8.02529C17.7799 8.02529 17.4374 8.36396 17.4374 8.78181C17.4374 9.19967 17.7799 9.53843 18.2023 9.53843ZM15.1452 7.2323C14.808 7.2323 14.4889 7.34149 14.2755 7.64274V7.31157H13.435V10.2521H14.2858V8.70673C14.2858 8.25955 14.5733 8.04057 14.9195 8.04057C15.2905 8.04057 15.5038 8.27173 15.5038 8.70064V10.2521H16.3469V8.38203C16.3469 7.6977 15.8253 7.2323 15.1452 7.2323ZM12.2141 7.31129V7.69429C12.3833 7.46455 12.6986 7.31146 13.0414 7.31146V8.16714L13.0367 8.16695L13.0314 8.16676C12.6974 8.16676 12.216 8.41575 12.216 8.87895V10.2519H11.3498V7.31129H12.2141ZM20.1804 9.76128C20.1804 9.45611 20.4175 9.20876 20.7101 9.20876C21.0026 9.20876 21.2398 9.45611 21.2398 9.76128C21.2398 10.0664 21.0026 10.3138 20.7101 10.3138C20.4175 10.3138 20.1804 10.0664 20.1804 9.76128Z" fill="#17120F"/>
</svg>
