<svg width="23" height="16" viewBox="0 0 23 16" fill="none" xmlns="http://www.w3.org/2000/svg">
<rect x="0.5" y="0.5" width="22" height="15" rx="2" fill="white" stroke="#D9D9D9"/>
<path fill-rule="evenodd" clip-rule="evenodd" d="M6.57141 7.71156C6.57141 10.2929 8.6465 12.3981 11.2157 12.3981C11.531 12.3981 11.8463 12.3701 12.2087 12.3379C12.6127 12.302 13.0752 12.2609 13.6613 12.2477C14.5506 12.2477 15.5141 12.5735 16.5763 13.5258C16.6751 13.6261 16.8234 13.5008 16.7245 13.3755C15.6623 12.0472 14.6989 11.7966 13.7354 11.571C12.5497 11.2954 11.9321 10.6438 11.5121 9.89191C11.438 9.74154 11.3886 9.7666 11.3886 9.9671C11.3639 10.2678 11.3886 10.5435 11.438 10.8192H11.2898C9.60994 10.8192 8.22654 9.41574 8.22654 7.71156C8.22654 6.00738 9.60994 4.60394 11.2898 4.60394C12.9696 4.60394 14.353 6.00738 14.353 7.71156C14.353 7.81181 14.353 7.93712 14.3283 8.06242C14.0813 8.0123 13.6613 8.0123 13.3402 8.03736C13.2166 8.03736 13.2166 8.08748 13.3155 8.11255C14.3036 8.31304 14.9953 8.93957 15.1682 10.0924C15.1682 10.1425 15.1929 10.1425 15.2176 10.1175C15.6129 9.41574 15.8599 8.58871 15.8599 7.71156C15.8599 5.10517 13.7848 3 11.2157 3C8.6465 3 6.57141 5.13023 6.57141 7.71156ZM14.5753 9.64122C14.7482 9.7164 14.8223 9.96702 14.8223 10.0923C14.847 10.2928 14.7976 10.3931 14.7235 10.3931C14.6494 10.3931 14.5506 10.3179 14.4518 10.1425C14.353 9.96702 14.3036 9.79159 14.353 9.69134C14.4271 9.64122 14.5012 9.61616 14.5753 9.64122ZM13.5625 10.4182C13.6613 10.4182 13.7848 10.4683 13.9083 10.5685C14.1059 10.744 14.1801 10.9445 14.0812 11.0948C14.0318 11.17 13.9083 11.2201 13.8095 11.2201C13.686 11.2201 13.5625 11.17 13.4884 11.0948C13.2907 10.9194 13.2413 10.6688 13.3648 10.5184C13.3895 10.4683 13.4637 10.4182 13.5625 10.4182Z" fill="#F28A1A"/>
</svg>
