<svg width="23" height="16" viewBox="0 0 23 16" fill="none" xmlns="http://www.w3.org/2000/svg">
<rect x="0.5" y="0.5" width="22" height="15" rx="2" fill="#5A31F4" stroke="#D9D9D9"/>
<path d="M12.9486 7.37415C12.9486 8.40089 12.2391 9.13383 11.2475 9.13383H10.3134C10.3031 9.13383 10.2929 9.1359 10.2833 9.13991C10.2738 9.14393 10.2652 9.14981 10.2579 9.15723C10.2506 9.16464 10.2449 9.17345 10.2409 9.18313C10.237 9.19281 10.235 9.20318 10.2351 9.21364V10.5631C10.2351 10.5842 10.2269 10.6044 10.2122 10.6194C10.1975 10.6343 10.1776 10.6428 10.1568 10.6429H9.50313C9.48759 10.6428 9.47241 10.6381 9.4595 10.6293C9.44659 10.6205 9.43652 10.6081 9.43054 10.5935C9.42659 10.584 9.42453 10.5738 9.42446 10.5635V5.69391C9.42441 5.68344 9.4264 5.67307 9.43031 5.66339C9.43422 5.65371 9.43998 5.64491 9.44725 5.63749C9.45453 5.63008 9.46318 5.62419 9.4727 5.62018C9.48222 5.61616 9.49243 5.6141 9.50275 5.6141H11.2517C12.2391 5.61294 12.9486 6.34588 12.9486 7.37415ZM12.1334 7.37415C12.1334 6.78387 11.7367 6.35243 11.1985 6.35243H10.3134C10.3031 6.35243 10.2929 6.3545 10.2833 6.35852C10.2738 6.36253 10.2652 6.36842 10.2579 6.37583C10.2506 6.38325 10.2449 6.39205 10.2409 6.40173C10.237 6.41141 10.235 6.42178 10.2351 6.43224V8.31144C10.2351 8.3325 10.2433 8.35271 10.258 8.3676C10.2727 8.3825 10.2926 8.39086 10.3134 8.39086H11.1985C11.7367 8.39472 12.1334 7.9629 12.1334 7.37415ZM13.1425 9.70869C13.1357 9.55122 13.1678 9.39453 13.2359 9.25286C13.304 9.11119 13.4059 8.98903 13.5324 8.89748C13.7874 8.70278 14.1861 8.60215 14.7713 8.58133L15.3946 8.55897V8.37236C15.3946 7.99837 15.1476 7.84029 14.7508 7.84029C14.354 7.84029 14.1025 7.98295 14.0447 8.21621C14.04 8.23261 14.03 8.24696 14.0164 8.25701C14.0028 8.26706 13.9863 8.27224 13.9694 8.27173H13.3538C13.3424 8.27204 13.3312 8.26982 13.3208 8.26521C13.3104 8.26061 13.3011 8.25373 13.2936 8.24508C13.2862 8.23643 13.2807 8.22621 13.2775 8.21516C13.2744 8.2041 13.2737 8.19248 13.2755 8.18112C13.3667 7.62824 13.8201 7.20798 14.7789 7.20798C15.799 7.20798 16.1673 7.68992 16.1673 8.60986V10.5631C16.1671 10.5844 16.1585 10.6047 16.1436 10.6197C16.1286 10.6347 16.1084 10.643 16.0874 10.6429H15.4668C15.4461 10.6428 15.4261 10.6345 15.4113 10.6198C15.4041 10.6124 15.3983 10.6036 15.3944 10.5939C15.3905 10.5843 15.3885 10.5739 15.3885 10.5635V10.4173C15.3888 10.4053 15.3854 10.3934 15.3788 10.3833C15.3723 10.3732 15.3629 10.3654 15.3518 10.3609C15.3408 10.3563 15.3287 10.3552 15.317 10.3578C15.3054 10.3604 15.2948 10.3665 15.2867 10.3753C15.1005 10.5808 14.7998 10.7293 14.3183 10.7293C13.6099 10.7293 13.1425 10.3553 13.1425 9.70869ZM15.3946 9.28535V9.13383L14.5874 9.17701C14.1621 9.19899 13.9147 9.37827 13.9147 9.68016C13.9147 9.95313 14.1416 10.1043 14.538 10.1043C15.0765 10.1043 15.3946 9.80932 15.3946 9.28535ZM16.7905 12.1188V11.5528C16.7907 11.5409 16.7933 11.5292 16.7984 11.5185C16.8035 11.5078 16.8108 11.4984 16.8199 11.4909C16.8289 11.4834 16.8395 11.478 16.8509 11.4751C16.8622 11.4722 16.8741 11.4719 16.8855 11.4741C16.9806 11.4923 17.0775 11.5015 17.1744 11.5019C17.341 11.5101 17.5055 11.4614 17.6416 11.3635C17.7777 11.2657 17.8775 11.1243 17.925 10.9621L17.9653 10.8318C17.9711 10.8143 17.9711 10.7953 17.9653 10.7778L16.672 7.40808C16.6673 7.39587 16.6656 7.38268 16.6671 7.36966C16.6685 7.35664 16.6731 7.34417 16.6803 7.33333C16.6876 7.32248 16.6973 7.31359 16.7087 7.3074C16.7201 7.30121 16.7328 7.29792 16.7457 7.29781H17.3728C17.3888 7.29798 17.4044 7.30304 17.4175 7.31232C17.4307 7.3216 17.4408 7.33468 17.4465 7.34986L18.3248 9.72643C18.3303 9.74222 18.3405 9.75589 18.354 9.76555C18.3674 9.77522 18.3835 9.78042 18.4 9.78042C18.4165 9.78042 18.4326 9.77522 18.4461 9.76555C18.4596 9.75589 18.4698 9.74222 18.4753 9.72643L19.238 7.35642C19.2433 7.34022 19.2535 7.32613 19.2672 7.31616C19.2808 7.30619 19.2972 7.30085 19.314 7.3009H19.9628C19.9758 7.30098 19.9886 7.30425 20 7.31043C20.0115 7.3166 20.0214 7.32551 20.0287 7.33638C20.0361 7.34725 20.0407 7.35976 20.0423 7.37285C20.0438 7.38594 20.0423 7.39922 20.0377 7.41155L18.6543 11.1538C18.3358 12.0236 17.7897 12.246 17.1884 12.246C17.0744 12.2491 16.9604 12.2352 16.8502 12.2048C16.8319 12.1999 16.8158 12.1885 16.8049 12.1728C16.794 12.1571 16.7889 12.138 16.7905 12.1188ZM5.2238 5.33341C4.39988 5.32746 3.60505 5.64205 3.0028 6.21248C2.97704 6.23641 2.96099 6.2692 2.95776 6.30448C2.95453 6.33976 2.96435 6.37499 2.98532 6.40333L3.35814 6.91997C3.37023 6.93717 3.38588 6.95148 3.40401 6.96188C3.42213 6.97228 3.44228 6.97853 3.46304 6.98019C3.4838 6.98184 3.50466 6.97886 3.52416 6.97145C3.54366 6.96405 3.56133 6.9524 3.57591 6.93732C3.79246 6.71768 4.05 6.54404 4.33346 6.42653C4.61693 6.30903 4.92063 6.25002 5.22684 6.25296C6.50531 6.25296 7.17306 7.22919 7.17306 8.19307C7.17306 9.24101 6.47149 9.97819 5.46323 9.99285C4.68413 9.99285 4.09696 9.46888 4.09696 8.7768C4.09777 8.60197 4.13681 8.42949 4.21127 8.27181C4.28573 8.11413 4.39375 7.97517 4.52755 7.86497C4.55583 7.841 4.57371 7.80672 4.57734 7.76951C4.58096 7.73231 4.57004 7.69514 4.54693 7.66602L4.1551 7.16403C4.14325 7.14885 4.12853 7.13623 4.11179 7.12692C4.09505 7.1176 4.07665 7.11179 4.05766 7.10981C4.03867 7.10784 4.01949 7.10974 4.00124 7.11541C3.98299 7.12108 3.96604 7.1304 3.9514 7.14282C3.71076 7.33951 3.51657 7.58835 3.38307 7.87109C3.24957 8.15383 3.18015 8.4633 3.1799 8.7768C3.1799 9.96817 4.17791 10.9028 5.45638 10.9105H5.47349C6.99139 10.8904 8.08897 9.74995 8.08897 8.19115C8.08897 6.807 7.08413 5.33341 5.22418 5.33341H5.2238Z" fill="white"/>
</svg>
