<svg width="23" height="16" viewBox="0 0 23 16" fill="none" xmlns="http://www.w3.org/2000/svg">
<rect x="0.5" y="0.5" width="22" height="15" rx="2" fill="white" stroke="#D9D9D9"/>
<path fill-rule="evenodd" clip-rule="evenodd" d="M15.0864 5.22012C14.7145 5.22012 14.4125 5.52492 14.4125 5.90068C14.4125 6.27665 14.7145 6.58079 15.0864 6.58079C15.4589 6.58079 15.7607 6.27665 15.7607 5.90068C15.7607 5.52492 15.4589 5.22012 15.0864 5.22012ZM5.36499 7.50024C5.19219 7.48897 4.79184 7.46267 4.79184 7.09907C4.79184 6.66032 5.36784 6.66032 5.584 6.66032C5.9642 6.66032 6.4561 6.77349 6.80783 6.87981C6.80783 6.87981 7.00363 6.94965 7.17029 7.02082L7.18584 7.02525V5.8235L7.16504 5.81709C6.74979 5.67055 6.26775 5.52975 5.37353 5.52975C3.83192 5.52975 3.28571 6.43576 3.28571 7.21268C3.28571 7.66005 3.47581 8.71392 5.24081 8.83527L5.24245 8.83537C5.3937 8.84472 5.78812 8.86912 5.78812 9.24351C5.78812 9.55384 5.46289 9.73641 4.91602 9.73641C4.31681 9.73641 3.73512 9.58257 3.38207 9.43603V10.6734C3.91076 10.8137 4.50691 10.8831 5.20555 10.8831C6.71234 10.8831 7.38777 10.0257 7.38777 9.17565C7.38777 8.21218 6.6324 7.586 5.36499 7.50024ZM9.91472 6.96613L9.92166 6.94788H11.5358C11.4898 7.0962 11.2018 7.99115 10.5452 8.83151C10.5452 8.83151 11.2765 10.1248 11.4436 10.8263H9.75346C9.75346 10.8263 9.55153 9.89489 9.14286 9.276V10.8263H7.73155V5.81156L9.14286 5.52975V8.29662C9.64293 7.6862 9.86576 7.09585 9.91472 6.96613ZM18.3465 10.8263V5.77664L19.7143 5.52975V10.8263H18.3465ZM13.6317 6.89553C12.3682 6.93664 11.7263 7.50911 11.7263 8.64698V10.8263H13.1052V9.04882C13.1052 8.36782 13.1937 8.07584 13.9946 8.04799V6.91565C13.8599 6.88669 13.6317 6.89553 13.6317 6.89553ZM14.4031 10.8264V6.95236H15.7706V10.8264H14.4031ZM16.3501 5.77664L17.717 5.52975V10.8263H16.3501V5.77664Z" fill="#862165"/>
</svg>
