<svg width="23" height="16" viewBox="0 0 23 16" fill="none" xmlns="http://www.w3.org/2000/svg">
<rect x="0.5" y="0.5" width="22" height="15" rx="2" fill="white" stroke="#D9D9D9"/>
<path d="M7.11537 3.3349H10.74C11.246 3.3349 11.5607 3.75329 11.4427 4.26829L9.75512 11.6185C9.63603 12.1317 9.12944 12.5505 8.62312 12.5505H4.99882C4.49355 12.5505 4.17815 12.1317 4.29618 11.6185L5.98443 4.26829C6.10246 3.75329 6.60878 3.3349 7.11537 3.3349Z" fill="#E21836"/>
<path d="M10.4382 3.33334H14.6065C15.1124 3.33334 14.8843 3.75173 14.7653 4.26673L13.078 11.617C12.9596 12.1302 12.9965 12.5489 12.4896 12.5489H8.32132C7.81438 12.5489 7.50066 12.1302 7.61975 11.617L9.30693 4.26673C9.42673 3.75173 9.932 3.33334 10.4382 3.33334Z" fill="#00447C"/>
<path d="M14.4412 3.33334H18.0659C18.5725 3.33334 18.8872 3.75173 18.7682 4.26673L17.081 11.617C16.9619 12.1302 16.4549 12.5489 15.9483 12.5489H12.3254C11.8184 12.5489 11.504 12.1302 11.6227 11.617L13.3103 4.26673C13.4283 3.75173 13.9343 3.33334 14.4412 3.33334Z" fill="#007B84"/>
<path d="M8.06182 5.68888C7.68908 5.69274 7.579 5.68888 7.54384 5.68046C7.53032 5.74562 7.27879 6.92271 7.27809 6.92369C7.22393 7.16183 7.18453 7.33159 7.05068 7.44121C6.9747 7.50493 6.886 7.53567 6.78316 7.53567C6.61786 7.53567 6.52156 7.45241 6.5054 7.29448L6.5023 7.24026C6.5023 7.24026 6.55266 6.92127 6.55266 6.91948C6.55266 6.91948 6.81665 5.84681 6.86391 5.70501C6.86639 5.69695 6.86709 5.69274 6.86771 5.68888C6.35388 5.69345 6.26279 5.68888 6.25652 5.68046C6.25307 5.69202 6.24035 5.75852 6.24035 5.75852L5.9708 6.96752L5.94765 7.07005L5.90286 7.40544C5.90286 7.50493 5.92212 7.58613 5.96047 7.65479C6.08327 7.8725 6.43357 7.90512 6.63173 7.90512C6.88706 7.90512 7.12657 7.85009 7.28842 7.74962C7.56937 7.58121 7.64288 7.31797 7.70843 7.08404L7.73882 6.96402C7.73882 6.96402 8.01076 5.84994 8.05696 5.70501C8.05873 5.69695 8.05944 5.69274 8.06182 5.68888ZM8.98706 6.58762C8.92151 6.58762 8.80171 6.60375 8.6941 6.65726C8.65505 6.67761 8.61812 6.70109 8.57916 6.72448L8.61432 6.59569L8.59506 6.574C8.36686 6.62087 8.3158 6.62715 8.105 6.65726L8.08733 6.66918C8.06286 6.87506 8.04112 7.02985 7.95039 7.43452C7.91584 7.58366 7.87998 7.73424 7.84402 7.88302L7.85374 7.90193C8.06975 7.89037 8.1353 7.89037 8.32304 7.89351L8.33824 7.87675C8.36209 7.75279 8.36518 7.72375 8.41801 7.4727C8.44284 7.35367 8.49461 7.09214 8.52015 6.99902C8.56706 6.97697 8.61335 6.95528 8.65753 6.95528C8.76275 6.95528 8.74994 7.0484 8.74587 7.08551C8.74137 7.1478 8.70303 7.35125 8.66371 7.52594L8.63747 7.63869C8.61918 7.72196 8.59913 7.80289 8.58084 7.88544L8.58879 7.90193C8.80171 7.89037 8.86665 7.89037 9.04847 7.89351L9.06985 7.87675C9.10271 7.68315 9.11234 7.63134 9.17065 7.34946L9.19998 7.21995C9.25697 6.96648 9.28559 6.83795 9.24248 6.73327C9.19689 6.61594 9.08752 6.58762 8.98706 6.58762ZM10.0207 6.853C9.90749 6.87505 9.83531 6.88975 9.76357 6.89925C9.69245 6.91081 9.6231 6.9213 9.51372 6.93671L9.50507 6.94469L9.49711 6.95106C9.48572 7.03369 9.47777 7.10513 9.46266 7.18911C9.44985 7.27596 9.43015 7.37464 9.39808 7.51643C9.37325 7.62497 9.36044 7.66279 9.3463 7.70098C9.33252 7.73916 9.31733 7.77626 9.28941 7.88301L9.29595 7.89287L9.30142 7.90192C9.40364 7.89699 9.47052 7.8935 9.53926 7.89287C9.6079 7.89036 9.67902 7.89287 9.78911 7.8935L9.79874 7.88552L9.80907 7.87674C9.82497 7.78048 9.82736 7.75457 9.83708 7.70761C9.84671 7.65724 9.86332 7.58751 9.90405 7.40126C9.92331 7.31378 9.94477 7.22657 9.96474 7.1373C9.9855 7.04839 10.0072 6.96082 10.0279 6.87335L10.0248 6.86277L10.0207 6.853ZM10.0231 6.49519C9.92024 6.43361 9.73974 6.45315 9.61827 6.53821C9.49714 6.62156 9.48336 6.73987 9.58584 6.80225C9.68691 6.86213 9.86811 6.84429 9.98853 6.75852C10.1094 6.67337 10.1245 6.55613 10.0231 6.49519ZM10.645 7.92122C10.8531 7.92122 11.0663 7.86305 11.2269 7.69043C11.3504 7.55043 11.407 7.34213 11.4266 7.25636C11.4905 6.97205 11.4408 6.83932 11.3783 6.75847C11.2834 6.63523 11.1157 6.59571 10.9418 6.59571C10.8372 6.59571 10.588 6.60619 10.3934 6.78823C10.2536 6.91953 10.189 7.09771 10.1501 7.26855C10.1108 7.4426 10.0655 7.75594 10.3496 7.87255C10.4372 7.91073 10.5635 7.92122 10.645 7.92122ZM10.6287 7.28154C10.6767 7.06625 10.7334 6.88556 10.8779 6.88556C10.9911 6.88556 10.9994 7.02001 10.949 7.23601C10.94 7.28396 10.8986 7.46223 10.8427 7.53815C10.8037 7.59417 10.7575 7.62813 10.7064 7.62813C10.6912 7.62813 10.6008 7.62813 10.5994 7.49199C10.5987 7.42477 10.6122 7.35611 10.6287 7.28154ZM11.9467 7.89353L11.963 7.87677C11.986 7.75282 11.9898 7.72369 12.0409 7.47273C12.0664 7.3537 12.1193 7.09217 12.1441 6.99904C12.1911 6.9769 12.2366 6.95521 12.2822 6.95521C12.3867 6.95521 12.374 7.04834 12.3698 7.08544C12.366 7.14783 12.3277 7.35119 12.2877 7.52588L12.2628 7.63863C12.2438 7.72198 12.2232 7.80283 12.2049 7.88547L12.2128 7.90196C12.4265 7.8904 12.4889 7.8904 12.6718 7.89353L12.6939 7.87677C12.726 7.68309 12.7346 7.63128 12.7947 7.34949L12.8233 7.21989C12.8806 6.96642 12.9095 6.83798 12.8671 6.73329C12.8202 6.61597 12.7101 6.58765 12.6111 6.58765C12.5455 6.58765 12.425 6.60369 12.318 6.65729C12.2798 6.67763 12.2415 6.70103 12.2038 6.72451L12.2366 6.59571L12.219 6.57393C11.9909 6.6209 11.9388 6.62717 11.7282 6.65729L11.7121 6.66921C11.6865 6.87509 11.6658 7.02978 11.575 7.43455C11.5405 7.58369 11.5046 7.73426 11.4688 7.88305L11.4784 7.90196C11.6948 7.8904 11.7593 7.8904 11.9467 7.89353ZM13.5163 7.90191C13.5297 7.83541 13.6095 7.44122 13.6102 7.44122C13.6102 7.44122 13.6781 7.15199 13.6823 7.14151C13.6823 7.14151 13.7037 7.11139 13.725 7.09947H13.7565C14.0532 7.09947 14.3884 7.09947 14.651 6.90345C14.8297 6.76901 14.9519 6.57048 15.0064 6.3292C15.0206 6.27005 15.031 6.19969 15.031 6.12933C15.031 6.03693 15.0127 5.94551 14.9599 5.87407C14.8259 5.68397 14.5592 5.68047 14.2513 5.67904C14.2504 5.67904 14.0995 5.68047 14.0995 5.68047C13.7054 5.6854 13.5474 5.68397 13.4824 5.6759C13.477 5.70503 13.4666 5.75684 13.4666 5.75684C13.4666 5.75684 13.3254 6.42063 13.3254 6.4217C13.3254 6.4217 12.9876 7.83299 12.9717 7.89949C13.3158 7.89528 13.4569 7.89528 13.5163 7.90191ZM13.7779 6.72276C13.7779 6.72276 13.928 6.06032 13.9273 6.06283L13.9321 6.02886L13.9342 6.00296L13.9942 6.00923C13.9942 6.00923 14.3038 6.03621 14.311 6.03693C14.4332 6.08488 14.4836 6.20848 14.4484 6.36981C14.4164 6.51724 14.3221 6.6412 14.201 6.70107C14.1012 6.7518 13.979 6.75601 13.8531 6.75601H13.7717L13.7779 6.72276ZM14.7124 7.29381C14.6728 7.46536 14.6272 7.7787 14.9098 7.89038C14.9999 7.92928 15.0807 7.94084 15.1628 7.93663C15.2494 7.93188 15.3297 7.88778 15.4041 7.82432C15.3974 7.8504 15.3907 7.87649 15.384 7.90266L15.3968 7.91942C15.6001 7.91072 15.6632 7.91072 15.8834 7.91243L15.9034 7.89701C15.9355 7.70521 15.9658 7.51896 16.0494 7.15202C16.0901 6.97626 16.1308 6.8022 16.1726 6.62716L16.166 6.60789C15.9386 6.65064 15.8778 6.65978 15.6591 6.69124L15.6425 6.70495C15.6403 6.72279 15.638 6.73991 15.6359 6.75703C15.6018 6.70128 15.5525 6.65369 15.4765 6.62402C15.3792 6.58521 15.1507 6.63522 14.9543 6.81663C14.8163 6.94614 14.7501 7.12361 14.7124 7.29381ZM15.1901 7.3043C15.2387 7.09287 15.2947 6.91397 15.4396 6.91397C15.5312 6.91397 15.5794 6.99974 15.5696 7.14601C15.5618 7.18249 15.5534 7.22094 15.5434 7.26441C15.529 7.32724 15.5132 7.38953 15.4979 7.45192C15.4824 7.49458 15.4643 7.53482 15.4444 7.56162C15.4071 7.61522 15.3184 7.64847 15.2674 7.64847C15.2529 7.64847 15.1635 7.64847 15.1604 7.51475C15.1597 7.44815 15.1732 7.37959 15.1901 7.3043ZM17.6842 6.60617L17.6666 6.58583C17.4416 6.63208 17.4008 6.63943 17.1941 6.66775L17.1789 6.68316C17.1782 6.68567 17.1776 6.68953 17.1765 6.69302L17.1758 6.68953C17.0219 7.04974 17.0264 6.97204 16.9011 7.25562C16.9004 7.24271 16.9004 7.23465 16.8997 7.22093L16.8684 6.60617L16.8487 6.58583C16.6129 6.63208 16.6074 6.63943 16.3897 6.66775L16.3727 6.68316C16.3703 6.69051 16.3703 6.69858 16.3689 6.70736L16.3703 6.7105C16.3976 6.85158 16.391 6.82012 16.4183 7.04275C16.431 7.15201 16.448 7.26189 16.4607 7.36981C16.4822 7.55041 16.4942 7.63932 16.5204 7.91493C16.3734 8.16105 16.3386 8.25417 16.1971 8.47018L16.1981 8.47233L16.0984 8.63222C16.087 8.64907 16.0767 8.66064 16.0622 8.66557C16.0463 8.67354 16.0256 8.67498 15.9969 8.67498H15.9417L15.8596 8.95193L16.1412 8.95686C16.3065 8.95614 16.4104 8.87772 16.4663 8.77231L16.6433 8.46453H16.6405L16.6592 8.44284C16.7782 8.18274 17.6842 6.60617 17.6842 6.60617ZM14.7124 10.2435H14.593L15.0351 8.76008H15.1817L15.2283 8.60726L15.2328 8.7772C15.2273 8.88224 15.3088 8.97537 15.5228 8.95995H15.7702L15.8554 8.6743H15.7623C15.7087 8.6743 15.6839 8.66059 15.687 8.63119L15.6825 8.4583H15.2242V8.4592C15.0761 8.46233 14.6336 8.47363 14.544 8.49783C14.4356 8.52615 14.3214 8.6095 14.3214 8.6095L14.3663 8.45651H13.9376L13.8483 8.76008L13.4003 10.2662H13.3134L13.2281 10.5498H14.0819L14.0533 10.6443H14.474L14.5019 10.5498H14.6199L14.7124 10.2435ZM14.3621 9.0615C14.2935 9.08077 14.1657 9.13921 14.1657 9.13921L14.2794 8.76008H14.6199L14.5378 9.03631C14.5378 9.03631 14.4326 9.04259 14.3621 9.0615ZM14.3687 9.60312C14.3687 9.60312 14.2617 9.61675 14.1913 9.63288C14.1219 9.65421 13.9919 9.72143 13.9919 9.72143L14.1092 9.32689H14.4515L14.3687 9.60312ZM14.1778 10.247H13.8362L13.9352 9.91404H14.2758L14.1778 10.247ZM15.0006 9.32689H15.493L15.4223 9.55938H14.9233L14.8484 9.81357H15.285L14.9544 10.2858C14.9312 10.3205 14.9105 10.3328 14.8874 10.3426C14.8643 10.3545 14.8339 10.3685 14.7987 10.3685H14.6776L14.5944 10.6468H14.9112C15.0759 10.6468 15.1731 10.5708 15.245 10.4711L15.4717 10.1563L15.5203 10.4759C15.5307 10.5358 15.5731 10.5708 15.6018 10.5845C15.6335 10.6006 15.6663 10.6283 15.7126 10.6324C15.7622 10.6346 15.7981 10.6363 15.822 10.6363H15.9776L16.0711 10.3247H16.0097C15.9745 10.3247 15.9138 10.3187 15.9034 10.3075C15.8931 10.2939 15.8931 10.2729 15.8875 10.241L15.8381 9.92068H15.6359L15.7246 9.81357H16.2226L16.2992 9.55938H15.8381L15.91 9.32689H16.3696L16.4549 9.04017H15.0844L15.0006 9.32689ZM10.8413 10.3118L10.9563 9.92384H11.4287L11.515 9.63533H11.0421L11.1143 9.39656H11.5764L11.662 9.11718H10.5059L10.422 9.39656H10.6847L10.6146 9.63533H10.3513L10.264 9.92877H10.5265L10.3734 10.442C10.3527 10.5099 10.3831 10.5358 10.4023 10.5674C10.422 10.5981 10.442 10.6185 10.4869 10.63C10.5332 10.6405 10.5649 10.6468 10.608 10.6468H11.1406L11.2354 10.3272L10.9994 10.3601C10.9538 10.3601 10.8275 10.3545 10.8413 10.3118ZM10.8955 8.45476L10.7758 8.67426C10.7502 8.72221 10.7271 8.75197 10.7064 8.76568C10.6881 8.77724 10.6518 8.78208 10.5994 8.78208H10.5369L10.4534 9.06289H10.6609C10.7606 9.06289 10.8372 9.02578 10.8738 9.00723C10.9131 8.9859 10.9234 8.99809 10.9538 8.96833L11.0239 8.90675H11.6717L11.7576 8.61439H11.2834L11.3662 8.45476H10.8955ZM11.8518 10.3174C11.8408 10.3013 11.8487 10.2728 11.8656 10.2137L12.0427 9.61918H12.6725C12.7643 9.61784 12.8305 9.61676 12.8737 9.61363C12.92 9.6087 12.9703 9.59194 13.0252 9.56182C13.0818 9.53027 13.1108 9.49702 13.1353 9.45884C13.1626 9.42075 13.2064 9.33739 13.244 9.20887L13.4666 8.45652L12.813 8.46038C12.813 8.46038 12.6117 8.49049 12.5231 8.52375C12.4337 8.56085 12.3059 8.66446 12.3059 8.66446L12.365 8.45823H11.9612L11.396 10.3601C11.3759 10.4339 11.3625 10.4875 11.3594 10.5197C11.3583 10.5544 11.4025 10.5887 11.4311 10.6146C11.465 10.6405 11.515 10.6363 11.5629 10.6405C11.6134 10.6444 11.6851 10.6468 11.7842 10.6468H12.0944L12.1897 10.3205L11.9119 10.3471C11.8822 10.3471 11.8608 10.331 11.8518 10.3174ZM12.1569 9.21765H12.8184L12.7764 9.35137C12.7705 9.35451 12.7563 9.34474 12.689 9.35281H12.1162L12.1569 9.21765ZM12.2894 8.76915H12.9565L12.9086 8.93021C12.9086 8.93021 12.5941 8.92707 12.5438 8.93648C12.3222 8.97538 12.1928 9.09549 12.1928 9.09549L12.2894 8.76915ZM12.7912 9.79918C12.7857 9.81917 12.7771 9.83136 12.765 9.8405C12.7515 9.84929 12.7298 9.85242 12.6974 9.85242H12.6031L12.6087 9.68957H12.2166L12.2007 10.4857C12.2001 10.5432 12.2055 10.5764 12.247 10.6031C12.2884 10.6363 12.4161 10.6405 12.5879 10.6405H12.8336L12.9223 10.3425L12.7084 10.3544L12.6373 10.3586C12.6276 10.3544 12.6183 10.3506 12.608 10.3401C12.599 10.331 12.5838 10.3366 12.5862 10.2791L12.5879 10.0751L12.8122 10.0656C12.9333 10.0656 12.9851 10.0257 13.0293 9.98758C13.0714 9.9511 13.0852 9.90916 13.1011 9.85242L13.1388 9.67173H12.8305L12.7912 9.79918Z" fill="#FEFEFE"/>
</svg>
