<svg width="23" height="16" viewBox="0 0 23 16" fill="none" xmlns="http://www.w3.org/2000/svg">
<rect x="0.5" y="0.5" width="22" height="15" rx="2" fill="white" stroke="#D9D9D9"/>
<path d="M16.1 7.18608C16.0526 6.8974 15.7917 6.70495 15.436 6.70495C15.3175 6.70495 15.2226 6.70495 15.104 6.70495C14.8906 6.68089 14.8432 6.75306 14.8432 6.92146C14.8432 7.76344 14.8432 8.58136 14.8432 9.42333C14.8432 9.85635 14.4164 10.3134 13.9184 10.4096C12.3534 10.7705 10.7883 11.1073 9.22326 11.4681C9.05727 11.5162 8.86757 11.5162 8.67787 11.5162C8.60673 11.5162 8.48817 11.4681 8.46446 11.396C8.44074 11.3479 8.51188 11.2516 8.55931 11.2035C8.63044 11.1554 8.7253 11.1073 8.82015 11.0592C9.1047 10.9629 9.41296 10.8667 9.69752 10.7705C10.8594 10.3856 12.0214 10.0007 13.1833 9.59173C13.705 9.42333 13.9895 9.06249 13.9895 8.60541C14.0133 7.16202 13.9895 5.69458 13.9895 4.25119C13.9895 4.01062 13.871 3.81817 13.6101 3.72195C13.3019 3.60167 13.0173 3.69789 12.7565 3.81817C11.0966 4.61204 9.46039 5.4059 7.80049 6.19977C7.32624 6.44033 7.04169 6.77712 7.04169 7.25825C7.04169 8.62947 7.04169 10.0007 7.04169 11.3719C7.04169 11.4441 7.04168 11.5162 7.06539 11.5644C7.23138 12.0214 7.65822 12.3101 8.22733 12.3101C9.38926 12.3101 10.5512 12.3101 11.7131 12.3101C12.875 12.3101 14.0133 12.3101 15.1752 12.3101C15.436 12.3101 15.6494 12.262 15.8391 12.0936C16.0763 11.9012 16.0763 11.6365 16.0763 11.396C16.0763 10.2124 16.1 7.18608 16.1 7.18608ZM11.2626 6.75307C11.3811 6.44033 11.642 6.24788 12.0214 6.19977C12.2822 6.17571 12.4956 6.32005 12.5431 6.56061C12.5905 6.92146 12.1637 7.35448 11.7131 7.35448C11.3574 7.35448 11.144 7.08986 11.2626 6.75307Z" fill="#FD6727"/>
</svg>
