<svg width="23" height="16" viewBox="0 0 23 16" fill="none" xmlns="http://www.w3.org/2000/svg">
<rect x="0.5" y="0.5" width="22" height="15" rx="2" fill="white" stroke="#D9D9D9"/>
<path fill-rule="evenodd" clip-rule="evenodd" d="M16.8406 7.96667C16.8406 10.8938 14.468 13.2667 11.5412 13.2667C8.6145 13.2667 6.24191 10.8938 6.24191 7.96667C6.24191 5.03956 8.6145 2.66667 11.5412 2.66667C14.468 2.66667 16.8406 5.03956 16.8406 7.96667ZM12.8144 5.99755C13.5515 6.25072 14.0907 6.62982 13.985 7.33531C13.9081 7.85193 13.6207 8.10178 13.2388 8.18926C13.7627 8.46099 13.9413 8.97669 13.7754 9.60026C13.4604 10.4976 12.7116 10.5732 11.7156 10.3856L11.4738 11.3502L10.89 11.2051L11.1285 10.2534C10.9771 10.2159 10.8224 10.1759 10.6631 10.1331L10.4236 11.0895L9.84045 10.9443L10.082 9.97769L8.90604 9.68211L9.19611 9.01604C9.19611 9.01604 9.62656 9.1297 9.62057 9.12142C9.7859 9.16218 9.85942 9.05481 9.88836 8.98357L10.5437 6.36538C10.551 6.24178 10.5081 6.08603 10.2716 6.02705C10.2806 6.02075 9.84744 5.922 9.84744 5.922L10.0028 5.30067L11.1804 5.59129L11.4199 4.63561L12.0034 4.78075L11.7688 5.71754C11.9258 5.753 12.0835 5.78912 12.2369 5.82723L12.4697 4.8964L13.0535 5.04154L12.8144 5.99755ZM11.4174 7.59167C11.8151 7.69711 12.6805 7.92656 12.8313 7.32495C12.9852 6.70942 12.1444 6.52352 11.7328 6.4325L11.7328 6.43249C11.6861 6.42218 11.645 6.41309 11.6115 6.40472L11.3207 7.56652C11.3484 7.57337 11.3809 7.582 11.4174 7.59167ZM10.9669 9.46214C11.4432 9.58762 12.4849 9.86206 12.6507 9.19913C12.8203 8.52132 11.8103 8.29554 11.3175 8.18538L11.3175 8.18538C11.2624 8.17307 11.2138 8.16221 11.174 8.15232L10.8534 9.43275C10.8859 9.4408 10.9239 9.45083 10.9665 9.46205L10.9667 9.4621L10.9669 9.46214Z" fill="#F7931A"/>
</svg>
