<svg width="23" height="16" viewBox="0 0 23 16" fill="none" xmlns="http://www.w3.org/2000/svg">
<rect x="0.5" y="0.5" width="22" height="15" rx="2" fill="white" stroke="#D9D9D9"/>
<path d="M12.6364 12.9999C15.3061 13.013 17.7429 10.7708 17.7429 8.04325C17.7429 5.06072 15.3061 2.99889 12.6364 3H10.3387C7.63723 2.99889 5.41336 5.06128 5.41336 8.04325C5.41336 10.7714 7.63723 13.013 10.3387 12.9999H12.6364Z" fill="#0079BE"/>
<path d="M10.3497 3.41331C7.88086 3.41415 5.88058 5.46262 5.87976 7.99093C5.88058 10.519 7.88086 12.5674 10.3497 12.5683C12.8189 12.5674 14.82 10.519 14.8202 7.99093C14.82 5.46262 12.8191 3.41415 10.3497 3.41331ZM7.51653 7.99093C7.51601 7.40636 7.68933 6.83523 8.01384 6.35219C8.33836 5.86914 8.79896 5.49664 9.33546 5.28338V10.6982C8.79892 10.4851 8.33826 10.1127 8.01373 9.62964C7.6892 9.14662 7.51591 8.57548 7.51653 7.99093ZM11.3637 10.6993V5.2831C11.9006 5.49606 12.3616 5.86853 12.6864 6.35173C13.0111 6.83494 13.1845 7.40637 13.1838 7.99121C13.1844 8.57601 13.011 9.14739 12.6862 9.63058C12.3615 10.1138 11.9006 10.4863 11.3637 10.6993Z" fill="white"/>
<path d="M12.6364 12.9999C15.3061 13.013 17.7429 10.7708 17.7429 8.04325C17.7429 5.06072 15.3061 2.99889 12.6364 3H10.3387C7.63723 2.99889 5.41336 5.06128 5.41336 8.04325C5.41336 10.7714 7.63723 13.013 10.3387 12.9999H12.6364Z" fill="#0079BE"/>
<path d="M10.3497 3.41331C7.88086 3.41415 5.88058 5.46262 5.87976 7.99093C5.88058 10.519 7.88086 12.5674 10.3497 12.5683C12.8189 12.5674 14.82 10.519 14.8202 7.99093C14.82 5.46262 12.8191 3.41415 10.3497 3.41331ZM7.51653 7.99093C7.51601 7.40636 7.68933 6.83523 8.01384 6.35219C8.33836 5.86914 8.79896 5.49664 9.33546 5.28338V10.6982C8.79892 10.4851 8.33826 10.1127 8.01373 9.62964C7.6892 9.14662 7.51591 8.57548 7.51653 7.99093ZM11.3637 10.6993V5.2831C11.9006 5.49606 12.3616 5.86853 12.6864 6.35173C13.0111 6.83494 13.1845 7.40637 13.1838 7.99121C13.1844 8.57601 13.011 9.14739 12.6862 9.63058C12.3615 10.1138 11.9006 10.4863 11.3637 10.6993Z" fill="white"/>
</svg>
