<svg width="23" height="16" viewBox="0 0 23 16" fill="none" xmlns="http://www.w3.org/2000/svg">
<rect x="0.5" y="0.5" width="22" height="15" rx="2" fill="white" stroke="#D9D9D9"/>
<path d="M9.34998 15.0333L22.0166 11.2V13.4833C22.0166 14.3394 21.3227 15.0333 20.4666 15.0333H9.34998Z" fill="#FD6020"/>
<path fill-rule="evenodd" clip-rule="evenodd" d="M19.5958 6.07389C20.2927 6.07389 20.6759 6.39625 20.6759 7.00516C20.7108 7.47079 20.3972 7.86479 19.9791 7.93643L20.9198 9.26169H20.1881L19.3867 7.97225H19.317V9.26169H18.7247V6.07389H19.5958ZM19.3171 7.54244H19.4913C19.8745 7.54244 20.0488 7.36335 20.0488 7.04099C20.0488 6.75445 19.8745 6.57536 19.4913 6.57536H19.3171V7.54244ZM16.669 9.26169H18.3414V8.72442H17.2613V7.86479H18.3066V7.32752H17.2613V6.61116H18.3414V6.07389H16.669V9.26169ZM14.9268 8.22297L14.1254 6.07389H13.4982L14.7874 9.33333H15.101L16.3902 6.07389H15.763L14.9268 8.22297ZM7.85366 7.68571C7.85366 8.58116 8.55052 9.33333 9.4216 9.33333C9.70035 9.33333 9.94425 9.2617 10.1881 9.15424V8.43789C10.0139 8.65279 9.77003 8.79606 9.49129 8.79606C8.9338 8.79606 8.48084 8.36625 8.48084 7.79316V7.72153C8.44599 7.14844 8.89895 6.64699 9.45644 6.61117C9.73519 6.61117 10.0139 6.75444 10.1881 6.96935V6.25299C9.97909 6.10972 9.70035 6.0739 9.45644 6.0739C8.55052 6.00226 7.85366 6.75444 7.85366 7.68571ZM6.77352 7.29171C6.42509 7.14844 6.32056 7.0768 6.32056 6.89771C6.3554 6.6828 6.52962 6.50371 6.73867 6.53953C6.91289 6.53953 7.08711 6.64699 7.22648 6.79026L7.54007 6.36044C7.29616 6.14553 6.98258 6.00226 6.66899 6.00226C6.18118 5.96644 5.76307 6.36044 5.72822 6.86189V6.89771C5.72822 7.32753 5.90244 7.57825 6.45993 7.75734C6.5993 7.79316 6.73867 7.8648 6.87805 7.93643C6.98258 8.00807 7.05226 8.11552 7.05226 8.2588C7.05226 8.50952 6.8432 8.72443 6.63415 8.72443H6.5993C6.32056 8.72443 6.07665 8.54534 5.97213 8.29461L5.58885 8.68861C5.79791 9.08261 6.21603 9.29752 6.63415 9.29752C7.19164 9.33333 7.6446 8.90352 7.67944 8.33043V8.22298C7.6446 7.79316 7.47038 7.57825 6.77352 7.29171ZM4.75261 9.26169H5.34495V6.07389H4.75261V9.26169ZM2 6.07391H2.87108H3.04529C3.88153 6.10973 4.54355 6.82609 4.50871 7.68572C4.50871 8.15135 4.29965 8.58117 3.95122 8.90353C3.63763 9.15425 3.25435 9.29753 2.87108 9.26171H2V6.07391ZM2.76655 8.72443C3.0453 8.76025 3.35889 8.65279 3.56795 8.4737C3.77701 8.25879 3.88154 7.97225 3.88154 7.64989C3.88154 7.36334 3.77701 7.0768 3.56795 6.86189C3.35889 6.6828 3.0453 6.57535 2.76655 6.61117H2.59234V8.72443H2.76655Z" fill="black"/>
<path fill-rule="evenodd" clip-rule="evenodd" d="M11.9652 6C11.0941 6 10.3624 6.71636 10.3624 7.64763C10.3624 8.54308 11.0592 9.29525 11.9652 9.33107C12.8711 9.36689 13.5679 8.61471 13.6028 7.68344C13.5679 6.75218 12.8711 6 11.9652 6V6Z" fill="#FD6020"/>
</svg>
