<svg width="24" height="16" viewBox="0 0 24 16" fill="none" xmlns="http://www.w3.org/2000/svg">
<rect x="0.5" y="0.5" width="22.3333" height="15" rx="2" fill="white" stroke="#D9D9D9"/>
<path d="M7.94516 8.37035C7.75808 9.27213 6.94585 9.95023 5.97237 9.95023C5.74902 9.95023 5.53403 9.91443 5.33344 9.84846L4.88629 11.1605C5.22754 11.2726 5.59265 11.3333 5.97237 11.3333C7.62708 11.3333 9.00737 10.1802 9.32545 8.6479L7.94516 8.37035Z" fill="#EC412A"/>
<path fill-rule="evenodd" clip-rule="evenodd" d="M15.9685 5.40747V9.20098L16.6492 9.47385L16.3272 10.2221L15.654 9.95147C15.5026 9.88799 15.4001 9.79128 15.3223 9.68205C15.2476 9.5703 15.1922 9.41755 15.1922 9.21142V5.40747H15.9685ZM10.8054 8.22694C10.8223 7.14211 11.7462 6.27614 12.8672 6.29276C13.8187 6.30719 14.6071 6.95164 14.8141 7.80877L11.1341 9.32969C10.9204 9.01369 10.7989 8.63351 10.8054 8.22694ZM11.6474 8.37906C11.6424 8.33354 11.6388 8.28688 11.6402 8.23979C11.6507 7.60064 12.1946 7.09063 12.8551 7.10123C13.2146 7.10587 13.5338 7.26506 13.7496 7.51145L11.6474 8.37906ZM13.6722 9.0833C13.4504 9.29193 13.1496 9.41903 12.8175 9.41447C12.5899 9.41078 12.379 9.34489 12.1997 9.23509L11.7551 9.92006C12.0596 10.1062 12.4186 10.2163 12.8056 10.2221C13.3689 10.2302 13.8824 10.0162 14.2557 9.66281L13.6722 9.0833ZM18.8017 7.10114C18.6691 7.10114 18.5417 7.12186 18.4226 7.16051L18.1577 6.39295C18.3599 6.32767 18.5764 6.29221 18.8017 6.29221C19.785 6.29221 20.6052 6.96758 20.7933 7.86475L19.9733 8.0264C19.8628 7.49839 19.3803 7.10114 18.8017 7.10114ZM17.4554 9.7291L18.0095 9.12322C17.762 8.91138 17.6062 8.60197 17.6062 8.25711C17.6062 7.91259 17.762 7.60334 18.0093 7.39165L17.4548 6.78577C17.0344 7.14576 16.7696 7.67177 16.7696 8.25711C16.7696 8.84318 17.0346 9.369 17.4554 9.7291ZM18.8017 9.41342C19.3797 9.41342 19.8621 9.01651 19.9733 8.48927L20.793 8.65161C20.604 9.54782 19.784 10.2223 18.8017 10.2223C18.5762 10.2223 18.3594 10.1867 18.1567 10.1211L18.4222 9.35382C18.5415 9.39235 18.669 9.41342 18.8017 9.41342Z" fill="black"/>
<path d="M3.68963 10.5927L4.51634 9.52521C4.14732 9.15196 3.91441 8.60703 3.91441 7.99963C3.91441 7.39268 4.1471 6.84776 4.51601 6.47479L3.68887 5.40747C3.06183 6.04161 2.66669 6.96792 2.66669 7.99963C2.66669 9.03187 3.06241 9.95851 3.68963 10.5927Z" fill="#1BA7DE"/>
<path d="M5.33281 6.15021C5.53338 6.08445 5.74795 6.04875 5.9712 6.04875C6.94555 6.04875 7.75828 6.7277 7.94474 7.62963L9.32545 7.35346C9.00864 5.82056 7.62744 4.66667 5.9712 4.66667C5.59201 4.66667 5.22701 4.72727 4.88629 4.8389L5.33281 6.15021Z" fill="#FECA2F"/>
</svg>
