<svg width="24" height="16" viewBox="0 0 24 16" fill="none" xmlns="http://www.w3.org/2000/svg">
<rect x="0.5" y="0.5" width="22.3333" height="15" rx="2" fill="white" stroke="#D9D9D9"/>
<path fill-rule="evenodd" clip-rule="evenodd" d="M6.21822 5H6.23728V5.48414H6.21822C4.99011 5.48414 3.95089 6.29289 3.60521 7.40741L3.14304 7.26062C3.55132 5.95056 4.77345 5 6.21822 5Z" fill="url(#paint0_linear_450_3086)"/>
<path fill-rule="evenodd" clip-rule="evenodd" d="M6.23747 5.48414V5H6.21841C7.66755 5 8.89349 5.9572 9.29741 7.27391L8.83578 7.42126C8.49609 6.30563 7.46232 5.49245 6.23747 5.48414Z" fill="url(#paint1_linear_450_3086)"/>
<path fill-rule="evenodd" clip-rule="evenodd" d="M7.82581 10.4319L8.11052 10.8241C7.55832 11.2249 6.89655 11.4396 6.21826 11.4379C5.55046 11.4396 4.89839 11.2317 4.35104 10.8424L4.6363 10.4502C5.08269 10.7676 5.6287 10.9543 6.21826 10.9543C6.81925 10.9543 7.37452 10.7604 7.82581 10.4319Z" fill="url(#paint2_linear_450_3086)"/>
<path fill-rule="evenodd" clip-rule="evenodd" d="M3.14372 7.26062L3.60535 7.40741C3.52395 7.66995 3.48264 7.94364 3.48286 8.21893C3.48286 9.14013 3.93796 9.95497 4.6364 10.4502L4.35169 10.8424C3.56071 10.279 3.03593 9.36724 3 8.33193V8.10648C3.01034 7.8129 3.05988 7.52928 3.14372 7.26062Z" fill="url(#paint3_linear_450_3086)"/>
<path fill-rule="evenodd" clip-rule="evenodd" d="M9.43825 8.21893C9.43825 9.29024 8.91565 10.2386 8.10997 10.8241L7.82526 10.4325C8.1734 10.182 8.45752 9.85035 8.65386 9.46524C8.85019 9.08013 8.95303 8.65277 8.95375 8.21893C8.95375 7.94085 8.91238 7.67219 8.83508 7.41959L9.29671 7.27225C9.38925 7.57137 9.43825 7.88933 9.43825 8.21948V8.21893Z" fill="url(#paint4_linear_450_3086)"/>
<path fill-rule="evenodd" clip-rule="evenodd" d="M7.72638 8.69703C7.72638 8.52936 7.60933 8.45423 7.34967 8.45423H6.71002V8.93873H7.34967C7.61369 8.93873 7.72638 8.86633 7.72638 8.69703ZM7.25984 7.68122H6.71002V8.16571H7.25984C7.50863 8.16571 7.62131 8.09059 7.62131 7.92455C7.62131 7.75797 7.50699 7.68122 7.25984 7.68122ZM8.06226 8.72751C8.06226 9.05087 7.80422 9.23487 7.34912 9.23487H6.40898C6.39265 9.23487 6.38176 9.22398 6.38176 9.2082V7.41175C6.38176 7.39596 6.39265 7.38562 6.40898 7.38562H7.26638C7.70896 7.38562 7.95229 7.55601 7.95229 7.86358C7.95229 8.04595 7.87064 8.19239 7.63492 8.26261C7.93324 8.32467 8.05409 8.50051 8.06226 8.72751ZM5.9909 7.41175V7.66271C5.9909 7.67904 5.98001 7.68938 5.96368 7.68938H4.87493V8.15809H5.77859C5.79492 8.15809 5.80527 8.16898 5.80527 8.18477V8.43518C5.80527 8.45151 5.79438 8.4624 5.77805 8.4624H4.87547V9.2082C4.87547 9.22453 4.86458 9.23487 4.84825 9.23487H4.57443C4.5581 9.23487 4.54721 9.22398 4.54721 9.2082V7.41175C4.54721 7.39596 4.5581 7.38562 4.57443 7.38562H5.96423C5.98056 7.38562 5.99144 7.39651 5.99144 7.41175H5.9909Z" fill="#64717D"/>
<path fill-rule="evenodd" clip-rule="evenodd" d="M18.3303 7.13595C18.5974 7.95851 18.904 8.76767 19.2492 9.56061L20.093 7.13595H20.7675L19.5584 10.2683C19.4038 10.6695 19.2204 10.9787 19.0081 11.1965C18.7958 11.4142 18.5111 11.5231 18.1545 11.5231C18.0658 11.5231 17.9819 11.516 17.9041 11.5019V10.9548C17.9694 10.9651 18.0277 10.97 18.0766 10.97C18.2933 10.97 18.4697 10.9101 18.6058 10.7893C18.7419 10.669 18.8616 10.492 18.9645 10.259C18.7091 9.75483 18.4709 9.24209 18.2503 8.72172C18.0277 8.19732 17.8154 7.66862 17.6134 7.13595H18.3303ZM15.8262 7.063C16.2051 7.063 16.5099 7.17025 16.7407 7.38473C16.9721 7.59976 17.0875 7.92094 17.0875 8.34828V10.1736H16.4941V9.67819C16.3744 9.85675 16.2203 9.99393 16.0331 10.0903C15.8343 10.189 15.6147 10.2385 15.3929 10.2345C15.0668 10.2345 14.8136 10.1518 14.6335 9.98685C14.4533 9.82191 14.3629 9.60416 14.3629 9.33523C14.3629 9.06795 14.4647 8.84366 14.6678 8.66347C14.8708 8.48383 15.1947 8.39292 15.64 8.39292H16.4811V8.38421C16.4811 7.87358 16.2421 7.61827 15.7641 7.61827C15.5638 7.61827 15.3956 7.65365 15.2579 7.72497C15.1212 7.79574 15.0102 7.89481 14.9258 8.02274L14.5023 7.68523C14.634 7.4849 14.8077 7.33084 15.0232 7.22359C15.2522 7.11313 15.5039 7.05794 15.7581 7.06246H15.8256L15.8262 7.063ZM12.3128 5.9209C12.855 5.9209 13.26 6.04774 13.5278 6.30196C13.7957 6.55619 13.9301 6.90078 13.9301 7.33628C13.9301 7.77015 13.7957 8.11474 13.5278 8.36951C13.26 8.62482 12.855 8.75221 12.3128 8.75221H11.15V10.1741H10.5V5.9209H12.3122H12.3128ZM16.4811 8.87088H15.6645C15.4217 8.87088 15.2481 8.90899 15.1435 8.9852C15.094 9.01953 15.0538 9.0657 15.0266 9.1195C14.9994 9.17331 14.9861 9.23306 14.9878 9.29332C14.9878 9.56006 15.1675 9.69398 15.529 9.69398C15.7679 9.69398 15.9666 9.64117 16.1256 9.53448C16.2846 9.42832 16.4032 9.28406 16.4811 9.1017V8.87088ZM12.2513 6.5159H11.15V8.15666H12.2507C12.6035 8.15666 12.8604 8.08861 13.0226 7.95143C13.1843 7.81533 13.2649 7.6101 13.2649 7.33628C13.2649 7.063 13.1843 6.85777 13.0226 6.72113C12.8604 6.58449 12.6035 6.5159 12.2507 6.5159H12.2513Z" fill="#1B2529"/>
<defs>
<linearGradient id="paint0_linear_450_3086" x1="6.23728" y1="5.6265" x2="3.75932" y2="7.42325" gradientUnits="userSpaceOnUse">
<stop stop-color="#24D365"/>
<stop offset="1" stop-color="#139DBD"/>
</linearGradient>
<linearGradient id="paint1_linear_450_3086" x1="6.21841" y1="5.61044" x2="8.70364" y2="7.41755" gradientUnits="userSpaceOnUse">
<stop stop-color="#23D068"/>
<stop offset="0.52" stop-color="#EACD36"/>
<stop offset="1" stop-color="#FF6C5C"/>
</linearGradient>
<linearGradient id="paint2_linear_450_3086" x1="4.49313" y1="10.6524" x2="7.96353" y2="10.6524" gradientUnits="userSpaceOnUse">
<stop stop-color="#266FF3"/>
<stop offset="1" stop-color="#C439D6"/>
</linearGradient>
<linearGradient id="paint3_linear_450_3086" x1="3.95647" y1="10.6623" x2="2.9152" y2="7.62445" gradientUnits="userSpaceOnUse">
<stop stop-color="#266FF3"/>
<stop offset="1" stop-color="#149FBA"/>
</linearGradient>
<linearGradient id="paint4_linear_450_3086" x1="8.72729" y1="7.34924" x2="7.68381" y2="10.3743" gradientUnits="userSpaceOnUse">
<stop stop-color="#FF6C5C"/>
<stop offset="1" stop-color="#C439D6"/>
</linearGradient>
</defs>
</svg>
