<svg width="24" height="16" viewBox="0 0 24 16" fill="none" xmlns="http://www.w3.org/2000/svg">
<rect x="0.5" y="0.5" width="22.3333" height="15" rx="2" fill="white" stroke="#D9D9D9"/>
<path fill-rule="evenodd" clip-rule="evenodd" d="M7.08589 6.82588H10.0487H10.1311C10.1311 6.82588 10.1804 4.76063 10.6773 4.15968C11.5179 3.14418 12.4367 3.08954 12.8011 3.06787C12.8377 3.06569 12.8688 3.06384 12.8936 3.06138C12.9203 3.05848 12.9441 3.05766 12.9684 3.05684C12.6372 3.02294 12.278 3.00477 11.888 3.0003C11.8404 3 11.7945 3 11.7475 3H11.6643C11.6175 3 11.5714 3 11.5241 3.0003C8.44492 3.03568 7.26289 3.91593 7.03665 6.82588H7.08589ZM9.82943 10.3668C9.48205 10.8013 8.98197 10.7721 8.97496 10.7717V12.5374C7.73773 12.0379 7.18006 10.9964 7.03464 9.07598C7.01706 8.8446 7.00656 8.64122 7 8.47271L10.1312 8.47152L10.1291 8.65793C10.1254 8.97995 10.1183 9.60594 10.1191 9.6268C10.1214 9.71851 10.0983 10.031 9.82943 10.3668ZM13.9597 3.23128C15.5331 3.65032 16.2146 4.69758 16.3773 6.84902C16.4279 7.51724 16.4221 7.96236 16.4221 7.96236C16.4221 7.96236 16.428 8.40769 16.3774 9.07585C16.1559 12.0044 14.9752 12.8891 11.888 12.9246C11.8405 12.9249 11.5715 12.9249 11.5241 12.9246C10.9886 12.9183 10.5122 12.8859 10.0866 12.8226C10.0884 12.8226 10.0902 12.8226 10.092 12.8226C10.1051 12.8224 10.1179 12.8223 10.1312 12.8214C10.6898 12.7894 11.4674 12.3586 11.9303 11.3564C12.1324 10.9181 12.1867 10.1358 12.1867 10.1358V8.47183H12.1869V8.47139H13.8778H13.9598V6.8257H13.8778H12.187L12.1869 6.8254C12.1869 6.8254 12.1861 6.82369 12.1856 6.82056L12.1851 6.8184C12.1847 6.81706 12.1843 6.81565 12.1839 6.81407C12.1834 6.81213 12.1828 6.80993 12.182 6.80723L12.1812 6.80201C12.18 6.79724 12.1788 6.79262 12.178 6.78629C12.1775 6.78473 12.1772 6.78287 12.177 6.78097C12.1768 6.77971 12.1766 6.77843 12.1764 6.7772C12.1752 6.77102 12.1742 6.76476 12.1733 6.75739C12.1725 6.75448 12.1723 6.75089 12.1721 6.74749C12.172 6.7467 12.172 6.74593 12.1719 6.74517C12.1707 6.73735 12.1699 6.7299 12.1689 6.72096C12.1688 6.71914 12.1687 6.7172 12.1687 6.71525C12.1686 6.7124 12.1685 6.7095 12.1682 6.70681C12.1681 6.70494 12.168 6.70308 12.1678 6.70122C12.1673 6.69359 12.1668 6.68594 12.1667 6.67738C12.1666 6.67485 12.1666 6.67216 12.1666 6.66947C12.1666 6.66678 12.1666 6.66408 12.1666 6.66151C12.1666 6.65779 12.1665 6.6541 12.1664 6.65038C12.1663 6.64283 12.1661 6.63515 12.1666 6.62687C12.1666 6.62401 12.1667 6.62091 12.1669 6.61778C12.1671 6.61536 12.1672 6.61292 12.1673 6.61056C12.1676 6.59737 12.1681 6.58426 12.1695 6.56966C12.1697 6.56755 12.1699 6.56531 12.1702 6.56302C12.1704 6.56054 12.1707 6.55802 12.1709 6.55558C12.1723 6.53964 12.1742 6.52355 12.1766 6.50641C12.1768 6.50479 12.1771 6.50311 12.1774 6.50145C12.1777 6.49982 12.178 6.4982 12.1782 6.49665C12.1812 6.47728 12.1844 6.45762 12.1886 6.43691L12.1889 6.43512C12.2189 6.29127 12.2831 6.11419 12.4117 5.91357C12.7577 5.37527 13.7401 5.4006 13.9285 5.41058L13.9597 5.41259V3.23128ZM10.0239 12.8125L10.024 12.8125L10.0241 12.8125C10.0347 12.8127 10.0454 12.8129 10.0563 12.8128C10.0454 12.8129 10.0346 12.8127 10.0239 12.8125Z" fill="#659AD2"/>
</svg>
