<svg width="24" height="16" viewBox="0 0 24 16" fill="none" xmlns="http://www.w3.org/2000/svg">
<rect x="0.5" y="0.5" width="22" height="15" rx="2" fill="white" stroke="#D9D9D9"/>
<path fill-rule="evenodd" clip-rule="evenodd" d="M4.10859 5.16194C3.69488 5.1626 3.36016 5.45896 3.35935 5.82519V5.82522V10.2286V10.2286C3.35936 10.2314 3.35939 10.2343 3.35943 10.2371C3.35976 10.2569 3.36106 10.2765 3.3633 10.2958C3.40197 10.6303 3.72053 10.8912 4.10859 10.8918H11.9041V10.8918V5.16197V5.16194H4.10859ZM4.1086 4.66675H19.028C19.7507 4.66686 20.3363 5.18514 20.3366 5.82518V10.2286C20.3363 10.8684 19.7507 11.3867 19.028 11.3869H4.1086C3.3858 11.3867 2.8003 10.8684 2.80005 10.2286V5.82518C2.8003 5.18514 3.3858 4.66686 4.1086 4.66675Z" fill="#0F3365"/>
<path fill-rule="evenodd" clip-rule="evenodd" d="M13.1799 9.50828H12.5254V7.15483H13.129V7.45749H13.1363C13.2672 7.22246 13.5437 7.11621 13.8419 7.11621C14.3656 7.11621 14.6526 7.55732 14.6526 7.96288C14.6526 8.45872 14.3509 8.87081 13.7872 8.87081C13.5582 8.87081 13.3108 8.79687 13.1872 8.59727H13.1799V9.50828ZM13.5801 8.42655C13.8272 8.42655 13.9764 8.24313 13.9764 7.97584C13.9764 7.75359 13.8345 7.56052 13.5801 7.56052C13.34 7.56052 13.1798 7.74728 13.1798 7.99833C13.1798 8.24313 13.3618 8.42655 13.5801 8.42655ZM17.1606 9.50836C17.2952 9.53419 17.4297 9.54708 17.5679 9.54708C18.1341 9.54708 18.2922 9.1831 18.4639 8.78806L18.4951 8.71654L19.1898 7.15491H18.5353L18.1461 8.2495H18.1388L17.7315 7.15491H17.0262L17.7932 8.87089C17.7462 9.01899 17.6225 9.10274 17.4627 9.10274C17.3716 9.10274 17.2915 9.09325 17.2044 9.06726L17.1606 9.50836ZM16.9166 8.88675C16.8876 8.75478 16.8802 8.62286 16.8802 8.49078V7.86621C16.8802 7.35429 16.4621 7.17087 15.9784 7.17087C15.6983 7.17087 15.4547 7.20614 15.222 7.29001L15.2328 7.68273C15.4148 7.59267 15.6256 7.55718 15.8364 7.55718C16.0729 7.55718 16.2657 7.61834 16.2693 7.84701C16.1857 7.83401 16.0694 7.82425 15.9639 7.82425C15.6148 7.82425 14.9857 7.88562 14.9857 8.39748C14.9857 8.76141 15.3202 8.92558 15.6948 8.92558C15.9639 8.92558 16.1457 8.83206 16.2947 8.62286H16.3019C16.3019 8.67391 16.3057 8.72499 16.3096 8.77667C16.3123 8.81301 16.3151 8.84963 16.3165 8.88675H16.9166ZM15.5965 8.35572C15.5965 8.19473 15.771 8.13357 15.9929 8.13357C16.0624 8.13357 16.1301 8.13679 16.1934 8.1398L16.1934 8.1398C16.2195 8.14104 16.2449 8.14224 16.2693 8.14317C16.2693 8.33948 16.113 8.53935 15.8655 8.53935C15.7129 8.53935 15.5965 8.47145 15.5965 8.35572Z" fill="#FFFFFE"/>
<path fill-rule="evenodd" clip-rule="evenodd" d="M6.83685 8.83206H7.49138V7.1548H6.83685V8.83206ZM6.83686 6.88108H7.49138V6.4561H6.83686V6.88108ZM9.09221 7.1162C9.16848 7.1162 9.24846 7.12586 9.31395 7.13534L9.28114 7.6183C9.20853 7.59905 9.13573 7.59905 9.05946 7.59905C8.75402 7.59905 8.58304 7.79547 8.58304 8.12396V8.83208H7.92852V7.15482H8.52491V7.46379H8.53209C8.64488 7.25141 8.80856 7.1162 9.09221 7.1162ZM11.5427 7.99518C11.5427 8.54894 11.0663 8.8708 10.441 8.8708C9.81555 8.8708 9.33913 8.54894 9.33913 7.99518C9.33913 7.43806 9.81555 7.1162 10.441 7.1162C11.0663 7.1162 11.5427 7.43806 11.5427 7.99518ZM10.0155 7.99519C10.0155 8.24311 10.1391 8.46514 10.441 8.46514C10.7428 8.46514 10.8665 8.24311 10.8665 7.99519C10.8665 7.74403 10.7428 7.52188 10.441 7.52188C10.1391 7.52188 10.0155 7.74403 10.0155 7.99519ZM5.79234 7.15482H6.3852V8.63588C6.3852 9.32474 6.00702 9.547 5.24336 9.547C4.93068 9.547 4.67247 9.48891 4.51969 9.44081L4.5525 8.98357C4.75245 9.07051 4.91972 9.12196 5.19247 9.12196C5.57072 9.12196 5.77426 8.96427 5.77426 8.63588V8.54554H5.76689C5.61064 8.74218 5.39249 8.83208 5.13069 8.83208C4.61063 8.83208 4.28699 8.48466 4.28699 7.98865C4.28699 7.48957 4.5525 7.1162 5.14153 7.1162C5.42146 7.1162 5.64698 7.25141 5.78522 7.45737H5.79234V7.15482ZM5.33433 7.56051C5.09067 7.56051 4.9634 7.75045 4.9634 7.97896C4.9634 8.23966 5.13797 8.38792 5.33433 8.38792C5.56697 8.38792 5.7525 8.2141 5.7525 7.95642C5.7525 7.7696 5.62882 7.56051 5.33433 7.56051Z" fill="#D8232A"/>
</svg>
