<svg width="23" height="16" viewBox="0 0 23 16" fill="none" xmlns="http://www.w3.org/2000/svg">
<rect x="0.5" y="0.5" width="22" height="15" rx="2" fill="white" stroke="#D9D9D9"/>
<path fill-rule="evenodd" clip-rule="evenodd" d="M6.25159 3.30399H11.7247C15.4438 3.30399 16.873 5.36595 16.873 7.97227C16.873 11.09 14.8754 12.6571 11.7247 12.6571H6.25159V3.30399ZM6.77124 3.8649V12.1293H11.7247C14.713 12.1293 16.337 10.7106 16.337 7.98883C16.337 5.18456 14.583 3.8649 11.7247 3.8649H6.77124ZM8.23294 8.13725C8.78008 8.13725 9.22363 7.68674 9.22363 7.13101C9.22363 6.57528 8.78008 6.12477 8.23294 6.12477C7.6858 6.12477 7.24226 6.57528 7.24226 7.13101C7.24226 7.68674 7.6858 8.13725 8.23294 8.13725ZM7.4372 8.56609H9.0288V11.4363H7.4372V8.56609Z" fill="black"/>
<path fill-rule="evenodd" clip-rule="evenodd" d="M14.5344 6.20719H14.9891V7.59283H15.655C15.4764 5.06899 13.5112 4.50813 11.7248 4.50813H9.82459V6.20719H10.1007C10.6204 6.20719 10.929 6.5536 10.929 7.13095C10.929 7.7083 10.6204 8.05471 10.1169 8.05471H9.82459V11.4363H11.7248C14.6318 11.4363 15.6225 10.0672 15.6713 8.05471H14.5344V6.20719ZM12.3419 7.59284V8.05472H11.205V6.2072H12.3094V6.66908H11.6598V6.88352H12.2769V7.3454H11.676V7.59284H12.3419ZM12.5367 8.05472L13.0889 6.2072H13.7386L14.2907 8.05472H13.8198L13.7223 7.70831H13.1214L13.024 8.05472H12.5367ZM13.2564 7.22987H13.2514V7.24637L13.2564 7.22987ZM13.2564 7.22987H13.5762L13.43 6.7185H13.4138L13.2564 7.22987ZM9.82458 7.59278V6.66902H10.1007C10.2793 6.66902 10.4742 6.7185 10.4742 7.1309C10.4742 7.54329 10.2956 7.59278 10.1007 7.59278H9.82458Z" fill="#D50072"/>
</svg>
