<svg width="23" height="16" viewBox="0 0 23 16" fill="none" xmlns="http://www.w3.org/2000/svg">
<rect x="0.5" y="0.5" width="22" height="15" rx="2" fill="white" stroke="#D9D9D9"/>
<path fill-rule="evenodd" clip-rule="evenodd" d="M16.6717 7.95667C16.6717 10.8783 14.3371 13.2467 11.4573 13.2467C8.57744 13.2467 6.24286 10.8783 6.24286 7.95667C6.24286 5.03509 8.57744 2.66667 11.4573 2.66667C14.3371 2.66667 16.6717 5.03509 16.6717 7.95667ZM10.1856 7.95674L10.9485 5.05366H12.6019L12.0296 7.31168L12.7928 6.98915L12.6019 7.69866L11.8387 7.95674L11.4573 9.37606H14.1918L13.9374 10.4081H9.54944L9.99471 8.66626L9.35886 8.92434L9.54944 8.21483L10.1856 7.95674Z" fill="#A5A8A9"/>
</svg>
