<svg width="23" height="16" viewBox="0 0 23 16" fill="none" xmlns="http://www.w3.org/2000/svg">
<rect x="0.5" y="0.5" width="22" height="15" rx="2" fill="white" stroke="#D9D9D9"/>
<path fill-rule="evenodd" clip-rule="evenodd" d="M2.66239 9.44867L2.66239 9.44866L2.6624 9.44866L2.6624 9.44865C2.67909 9.3524 2.69527 9.25913 2.71387 9.16587C2.79263 8.74399 2.87194 8.32268 2.95124 7.90136C3.03055 7.48003 3.10986 7.05871 3.18862 6.63684C3.19956 6.58341 3.21488 6.54779 3.26739 6.53888C3.67651 6.47655 4.08782 6.43202 4.49694 6.53665C4.85356 6.62571 5.10297 6.88173 5.14454 7.18227C5.22986 7.78114 4.88638 8.25978 4.37661 8.4312C4.10751 8.52025 3.83403 8.54252 3.55618 8.5158C3.49054 8.50912 3.47085 8.52693 3.45991 8.5915C3.40084 8.91876 3.33958 9.24379 3.27614 9.56882C3.27176 9.59554 3.24769 9.63784 3.23238 9.63784C3.08369 9.64116 2.93745 9.64076 2.78544 9.64035H2.78544H2.78544L2.62854 9.64007C2.64057 9.57448 2.65159 9.51096 2.66239 9.44869L2.66239 9.44867ZM3.69388 7.98821H3.69388C3.77946 7.99057 3.86027 7.9928 3.93906 7.98373C4.1666 7.95924 4.34819 7.8546 4.45101 7.6342C4.56697 7.38486 4.48383 7.11994 4.26505 7.04202C4.10971 6.98636 3.95 6.99749 3.79029 7.01975C3.7706 7.02198 3.74435 7.05315 3.73997 7.07318L3.64701 7.57025L3.56932 7.98595C3.61209 7.98595 3.65351 7.98709 3.69387 7.98821L3.69388 7.98821ZM6.50756 9.21247C6.47295 9.2491 6.44052 9.28596 6.40883 9.32198C6.34037 9.39979 6.27535 9.4737 6.19908 9.53305C5.96936 9.71337 5.70682 9.75345 5.44209 9.62878C5.17955 9.50633 5.07235 9.26812 5.06141 8.98761C5.03735 8.39765 5.24081 7.9101 5.7287 7.57171C6.03499 7.35799 6.38723 7.29343 6.7526 7.31346C6.87346 7.3207 6.99339 7.34204 7.1136 7.36342C7.17836 7.37495 7.2432 7.38648 7.30831 7.39583C7.38269 7.40697 7.39363 7.44926 7.38051 7.51383C7.36296 7.60688 7.34521 7.69984 7.32748 7.79274L7.32747 7.79277L7.32746 7.7928L7.32746 7.79283L7.32745 7.79285L7.32745 7.79288L7.32745 7.79289L7.32744 7.7929L7.32744 7.79291L7.32744 7.79291L7.32744 7.79292C7.26118 8.14002 7.19507 8.48632 7.13984 8.834C7.10818 9.03302 7.09555 9.23687 7.08304 9.4387L7.08303 9.43876V9.43877L7.08303 9.43878L7.0764 9.54418C7.07202 9.61542 7.05452 9.64436 6.98232 9.64213C6.84668 9.63768 6.71103 9.63768 6.57539 9.64213C6.50538 9.64436 6.48131 9.61765 6.48787 9.54863C6.49412 9.47236 6.49814 9.39382 6.50231 9.3122L6.50756 9.21247ZM6.66072 7.83668C6.4485 7.77657 6.27129 7.81887 6.12251 7.94577C5.84247 8.1862 5.71558 8.49788 5.73965 8.86967C5.74621 8.98321 5.78997 9.09229 5.90811 9.14127C6.02625 9.19025 6.13345 9.15463 6.22534 9.07448C6.28004 9.02551 6.33255 8.96985 6.37193 8.90751C6.52624 8.66784 6.5684 8.39749 6.61121 8.12288C6.62607 8.02762 6.641 7.93186 6.66072 7.83668ZM9.76084 9.08348C9.88117 9.4753 10.2115 9.69348 10.7913 9.69348C11.1895 9.68234 11.5855 9.45304 11.8327 8.98107C11.964 8.72728 12.0121 8.45567 11.9946 8.17071C11.9793 7.89688 11.8721 7.66535 11.6533 7.50061C11.4236 7.32696 11.161 7.29134 10.881 7.3225C9.94462 7.42937 9.56175 8.43786 9.76084 9.08348ZM10.3839 8.75656C10.3841 8.74519 10.3844 8.73389 10.3844 8.72284C10.3909 8.46682 10.4522 8.22861 10.6031 8.01712C10.671 7.92361 10.7563 7.85237 10.8701 7.82566C11.102 7.77223 11.2923 7.90803 11.3142 8.16405C11.3404 8.47795 11.2661 8.76737 11.0713 9.01893C10.997 9.11244 10.9029 9.177 10.7825 9.18813C10.566 9.20817 10.4019 9.05901 10.3844 8.82525C10.3829 8.80291 10.3834 8.77956 10.3839 8.75656ZM12.5153 7.36915H13.071C13.0623 7.48937 13.0535 7.60513 13.0426 7.72312C13.0629 7.70393 13.0825 7.68496 13.1017 7.66636C13.1426 7.62672 13.1818 7.58878 13.222 7.55393C13.4386 7.36247 13.6858 7.27787 13.9724 7.32462C14.2087 7.3647 14.3728 7.54057 14.3991 7.78769C14.4276 8.04482 14.3802 8.29422 14.3329 8.5431L14.3329 8.54311L14.3225 8.59805C14.3033 8.69921 14.2843 8.80037 14.2653 8.90146L14.2653 8.90154L14.2653 8.90165C14.2237 9.12308 14.1823 9.34419 14.1387 9.56424C14.1321 9.59319 14.0993 9.63548 14.0774 9.63771C13.8893 9.64216 13.7011 9.63994 13.513 9.63771C13.5067 9.63771 13.5004 9.63424 13.4908 9.62897C13.4871 9.62693 13.4829 9.62461 13.478 9.62213C13.513 9.43735 13.548 9.25034 13.5808 9.06333C13.6311 8.77615 13.6793 8.49118 13.723 8.204C13.7318 8.15502 13.7274 8.10382 13.7208 8.05484C13.7033 7.88342 13.5786 7.8055 13.4167 7.8567C13.2592 7.9079 13.1651 8.03257 13.0885 8.1706C12.9748 8.37319 12.9354 8.59805 12.896 8.8229L12.8666 8.98978L12.8666 8.98979L12.8666 8.98981L12.8666 8.98982C12.8332 9.1806 12.7998 9.37064 12.7626 9.56202C12.756 9.59096 12.7232 9.63548 12.7013 9.63771C12.5479 9.64303 12.3931 9.6427 12.228 9.64235L12.0996 9.64216C12.244 8.87633 12.3797 8.12608 12.5153 7.36915ZM15.6702 9.17485C15.4383 9.14591 15.2829 8.98117 15.2982 8.74964C15.3466 8.74964 15.3947 8.75039 15.4426 8.75113C15.5377 8.75261 15.6317 8.75408 15.7249 8.74964C15.9502 8.73628 16.1712 8.69843 16.3768 8.5938C16.6394 8.46022 16.7619 8.23982 16.7422 7.95263C16.7225 7.66099 16.5672 7.4495 16.2893 7.3649C15.8736 7.238 15.4908 7.32705 15.1648 7.60979C14.7688 7.95263 14.62 8.40679 14.6769 8.92551C14.7163 9.29285 14.9132 9.55554 15.272 9.64905C15.657 9.74923 16.0355 9.6958 16.4009 9.54441C16.4271 9.53328 16.4578 9.49098 16.4556 9.46427C16.4503 9.35563 16.4395 9.247 16.4286 9.13836L16.4206 9.05686C16.4134 9.05686 16.4081 9.05649 16.404 9.0562C16.3981 9.05578 16.3947 9.05555 16.3921 9.05686L16.3921 9.05687L16.3921 9.05688C16.368 9.06578 16.344 9.07468 16.3221 9.08358C16.1121 9.16595 15.8955 9.20157 15.6702 9.17485ZM16.0093 8.18867C15.8758 8.25991 15.5301 8.30221 15.3617 8.26659C15.3967 7.9705 15.7052 7.73897 15.9655 7.80353C16.053 7.82579 16.1165 7.87254 16.1318 7.96827C16.1471 8.06178 16.1012 8.13969 16.0093 8.18867ZM17.4839 8.75852C17.4642 8.97669 17.6174 9.14366 17.8515 9.17483C18.0702 9.20154 18.2803 9.16815 18.4859 9.09246C18.5049 9.08522 18.5232 9.07799 18.5433 9.07005L18.5997 9.04793C18.604 9.09507 18.6087 9.14127 18.6134 9.18683L18.6134 9.18691L18.6134 9.18693C18.6231 9.28118 18.6325 9.37271 18.6369 9.46424C18.6391 9.49096 18.6084 9.53326 18.5844 9.54439C18.2124 9.70022 17.8296 9.75366 17.438 9.64457C17.0857 9.54661 16.9019 9.28614 16.8582 8.92994C16.8035 8.47355 16.9194 8.0617 17.2323 7.7233C17.5692 7.36042 17.9827 7.2313 18.4597 7.36488C18.7507 7.44725 18.906 7.66097 18.9235 7.96151C18.941 8.25538 18.8097 8.47578 18.5362 8.6049C18.2606 8.73403 17.9674 8.75406 17.6699 8.76074C17.6108 8.75852 17.5495 8.75852 17.4839 8.75852ZM17.5474 8.28428C17.5872 8.28175 17.6263 8.27976 17.6648 8.2778C17.7618 8.27285 17.8553 8.26809 17.9477 8.25534C18.0352 8.24421 18.1228 8.2175 18.2015 8.17965C18.2868 8.1418 18.3284 8.06166 18.3153 7.9637C18.3022 7.8702 18.2409 7.82567 18.1556 7.80341C17.8974 7.73217 17.5758 7.97261 17.5474 8.28428ZM19.0438 9.17484C19.0153 9.32623 18.9891 9.47539 18.9606 9.64013C19.0045 9.64013 19.0477 9.64022 19.0903 9.64031C19.2587 9.64067 19.4192 9.64101 19.5798 9.63568C19.5951 9.63568 19.6192 9.59338 19.6236 9.56666C19.6459 9.45547 19.6666 9.34373 19.6872 9.23201C19.7254 9.02612 19.7635 8.82033 19.8117 8.61828C19.9189 8.16857 20.1005 8.01273 20.5315 7.95485C20.549 7.95262 20.5774 7.93259 20.5818 7.917C20.6093 7.78905 20.6339 7.66013 20.6594 7.52638C20.6725 7.45767 20.6859 7.38769 20.7 7.31591C20.2843 7.27139 20.0524 7.51628 19.8511 7.81682L19.8543 7.77316C19.8642 7.6403 19.8743 7.5051 19.8861 7.36266C19.8406 7.36266 19.796 7.36252 19.752 7.36238C19.6224 7.36196 19.4983 7.36157 19.3741 7.36489C19.3566 7.36712 19.3238 7.40719 19.3216 7.43168C19.2749 8.00389 19.1645 8.56353 19.0541 9.12279L19.0438 9.17484Z" fill="black"/>
<path fill-rule="evenodd" clip-rule="evenodd" d="M13.2513 4.68356C13.2292 4.67761 13.207 4.67167 13.1849 4.66666C13.1171 4.66666 13.0492 4.66666 12.977 4.66888C12.9524 4.6739 12.9277 4.67937 12.9029 4.68489C12.8726 4.69161 12.842 4.69839 12.8108 4.7045C12.476 4.76906 12.161 4.88706 11.8569 5.04289C11.1983 5.38129 10.6076 5.81986 10.0782 6.33858C9.72592 6.68142 9.38462 7.03985 9.05426 7.40719C8.47448 8.0528 7.97785 8.76298 7.58185 9.54217C7.37838 9.94512 7.19461 10.357 7.11147 10.8045C7.09615 10.8868 7.12241 10.9826 7.14866 11.0649C7.1596 11.0983 7.22086 11.1228 7.26243 11.1362C7.27337 11.1406 7.30619 11.085 7.3215 11.0538C7.32694 11.0417 7.33251 11.0294 7.33819 11.0167C7.43321 10.8056 7.56169 10.52 7.67316 10.331C7.90945 9.93023 8.09599 9.62009 8.36072 9.2394C8.78516 8.62718 9.28108 8.02649 9.80179 7.49664C10.294 6.99573 10.787 6.54785 11.4062 6.20946C11.6906 6.05584 11.9816 5.90446 12.2791 5.77979C12.7933 5.56384 13.3293 5.41691 13.8806 5.33454C13.9397 5.32563 14.0184 5.27888 14.0381 5.2299C14.0556 5.18538 14.0141 5.10078 13.9725 5.05848C13.804 4.8826 13.6071 4.74903 13.3621 4.70896C13.3252 4.70339 13.2882 4.69348 13.2513 4.68356ZM8.24259 7.72121C8.34761 7.4318 8.40011 7.13125 8.40668 6.81957C8.40376 6.78618 8.40133 6.75279 8.3989 6.71939C8.39404 6.65261 8.38918 6.58582 8.38042 6.51903C8.32135 6.00254 8.10257 5.56396 7.75471 5.18772C7.71314 5.14543 7.65625 5.11203 7.59937 5.09199C7.54249 5.06973 7.50529 5.10313 7.50967 5.16991C7.50978 5.17132 7.50988 5.17274 7.50999 5.17415C7.51426 5.23073 7.51869 5.28932 7.52936 5.34579C7.54473 5.43475 7.56 5.52382 7.57527 5.61295C7.62958 5.92976 7.68401 6.24734 7.74377 6.56355C7.80284 6.88191 7.86847 7.19804 7.93848 7.51194C7.96255 7.61212 8.00193 7.71231 8.05006 7.80581C8.08726 7.87705 8.13976 7.87037 8.1879 7.80581C8.20977 7.77909 8.23165 7.75238 8.24259 7.72121Z" fill="#FC461E"/>
</svg>
