<svg width="24" height="16" viewBox="0 0 24 16" fill="none" xmlns="http://www.w3.org/2000/svg">
<rect x="0.5" y="0.5" width="22.3333" height="15" rx="2" fill="white" stroke="#D9D9D9"/>
<path d="M19.8369 6.6561C20.1111 6.6561 20.3333 6.43388 20.3333 6.15975C20.3333 5.88562 20.1111 5.66339 19.8369 5.66339C19.5628 5.66339 19.3406 5.88562 19.3406 6.15975C19.3406 6.43388 19.5628 6.6561 19.8369 6.6561Z" fill="#7887E6"/>
<path d="M19.8369 8.20997C20.1111 8.20997 20.3333 7.98774 20.3333 7.71361C20.3333 7.43948 20.1111 7.21725 19.8369 7.21725C19.5628 7.21725 19.3406 7.43948 19.3406 7.71361C19.3406 7.98774 19.5628 8.20997 19.8369 8.20997Z" fill="#FF5073"/>
<path fill-rule="evenodd" clip-rule="evenodd" d="M4.2637 6.95085H3.78209V8.15315H3V4.86218H4.2637C5.01732 4.86218 5.3751 5.30091 5.3751 5.88268C5.3751 6.555 4.89795 6.95085 4.2637 6.95085ZM4.14639 5.43434H3.78209V6.37834H4.17794C4.45168 6.37834 4.63176 6.19723 4.61564 5.87136C4.60329 5.62472 4.39336 5.43434 4.14639 5.43434ZM7.53272 8.15281H6.76949H6.76915V8.04475C6.61684 8.14046 6.41755 8.20975 6.23403 8.20975C5.76889 8.20975 5.41523 7.85918 5.41523 7.44172C5.41523 7.01431 5.71778 6.55157 6.76949 6.62635V6.4641C6.76949 6.27818 6.61204 6.21609 6.43573 6.21609C6.18772 6.21609 5.89684 6.32586 5.7586 6.38795L5.54867 5.95402C5.77746 5.81098 6.14964 5.66314 6.62165 5.66314C7.18455 5.66314 7.53272 5.91115 7.53272 6.45964V8.15281ZM6.17777 7.428C6.17777 7.60431 6.30675 7.71408 6.49747 7.71408C6.61684 7.71408 6.72661 7.6712 6.79762 7.61872V7.1083C6.33556 7.0318 6.17777 7.22767 6.17777 7.428ZM15.1245 5.72043V5.62026C15.1245 5.0433 15.4487 4.66666 16.0641 4.66666C16.2026 4.66666 16.3217 4.68587 16.4266 4.71434V5.25769C16.3649 5.23882 16.2743 5.22441 16.2026 5.22441C15.9687 5.22441 15.8829 5.37706 15.8829 5.59179V5.72043H16.4074V6.24045H15.8829V8.15281H15.1245V6.24045H14.7191V5.72043H15.1245ZM12.5165 5.95437C12.7453 5.81133 13.1175 5.66348 13.5895 5.66348C14.1524 5.66348 14.5006 5.91149 14.5002 6.45964V8.15281H13.737V8.0451C13.5847 8.1408 13.3854 8.21009 13.2019 8.21009C12.7367 8.21009 12.3831 7.85952 12.3831 7.44206C12.3831 7.01465 12.6856 6.55191 13.7373 6.62669V6.46444C13.7373 6.27853 13.5799 6.21644 13.4036 6.21644C13.1556 6.21644 12.8647 6.32621 12.7264 6.38829L12.5165 5.95437ZM13.4368 7.71408C13.5562 7.71408 13.6656 7.6712 13.7373 7.61872H13.737V7.1083C13.2749 7.0318 13.1171 7.22767 13.1171 7.428C13.1171 7.60431 13.2461 7.71408 13.4368 7.71408ZM10.246 5.72077L9.01355 8.83542H8.28737L8.60844 8.03858L7.57971 5.72077H8.36078L8.96313 7.17416L9.48795 5.72077H10.246ZM18.8446 6.8994V7.08943V7.09012H17.2633C17.2753 7.21498 17.3072 7.31686 17.3552 7.39781L17.3559 7.39884C17.3638 7.41153 17.372 7.42388 17.3806 7.43554C17.3857 7.44275 17.3909 7.44927 17.3964 7.45613C17.3974 7.4574 17.3985 7.45871 17.3996 7.46003C17.402 7.46297 17.4044 7.46598 17.407 7.46882C17.4163 7.47979 17.4262 7.49043 17.4365 7.50038L17.4375 7.5014C17.4629 7.52576 17.4914 7.54771 17.5229 7.56692C17.5232 7.56705 17.5234 7.56713 17.5236 7.5672C17.5239 7.56732 17.5241 7.5674 17.5243 7.56761C17.5384 7.57618 17.5535 7.58407 17.5689 7.59162L17.5775 7.59574C17.5867 7.6002 17.5967 7.60431 17.6066 7.60808C17.6156 7.61152 17.6245 7.6146 17.6334 7.61769L17.6536 7.62386C17.6663 7.62729 17.679 7.63072 17.6921 7.63381C17.6943 7.63433 17.6965 7.63476 17.6987 7.63518C17.701 7.63561 17.7032 7.63604 17.7054 7.63656C17.7181 7.6393 17.7308 7.64136 17.7438 7.64342C17.7476 7.6441 17.7511 7.64479 17.7548 7.64513C17.7709 7.64719 17.7874 7.6489 17.8039 7.64993C17.8059 7.65011 17.8079 7.65019 17.8099 7.65028C17.8119 7.65036 17.8138 7.65045 17.8159 7.65062C17.8334 7.65165 17.8509 7.65233 17.8691 7.65233C18.0762 7.65233 18.3074 7.59402 18.5355 7.4647L18.7482 7.93739C18.4117 8.17064 17.975 8.21043 17.7545 8.21043C16.9628 8.21043 16.4668 7.71888 16.4668 6.95119C16.4668 6.20237 16.9916 5.66348 17.6687 5.66348C18.3459 5.66348 18.8446 6.18625 18.8446 6.8994ZM18.0742 6.68878C18.0454 6.36462 17.8787 6.19757 17.6687 6.19757C17.4588 6.19757 17.2921 6.36428 17.2633 6.68878H18.0742ZM11.0597 7.65679C11.284 7.65679 11.4175 7.5899 11.4175 7.45647C11.4175 7.31389 11.2353 7.25171 11.0164 7.17697C10.6865 7.06433 10.2729 6.92315 10.2731 6.43529C10.2731 5.92041 10.7307 5.6628 11.2984 5.6628C11.6085 5.6628 11.9138 5.75816 12.1141 5.85832L11.8994 6.35914C11.7468 6.29259 11.5368 6.2209 11.3365 6.2209C11.1458 6.2209 11.0312 6.29225 11.0312 6.40682C11.0312 6.53284 11.2013 6.5897 11.4093 6.65921C11.7362 6.7685 12.1567 6.90906 12.1567 7.39884C12.1567 7.92367 11.6799 8.20975 11.1266 8.20975C10.8165 8.20975 10.4827 8.1384 10.1966 7.98575L10.4398 7.49454C10.6114 7.58064 10.8309 7.65679 11.0597 7.65679ZM13.7929 9.78211V9.46173H13.6554V9.37186H14.0358L14.0498 9.46173H13.9198V9.78211H13.7929ZM14.4875 9.78211L14.4721 9.48505L14.4615 9.52501L14.4614 9.52512C14.4386 9.61083 14.4159 9.69634 14.3918 9.78211H14.2803L14.2001 9.48505L14.1846 9.78211H14.0711C14.0834 9.64593 14.0944 9.50838 14.1051 9.3722H14.2646L14.3373 9.66308L14.3381 9.65979C14.3611 9.5635 14.3839 9.46852 14.4083 9.3722H14.5678L14.6004 9.78211H14.4875ZM3.00342 9.49256V11.3229H3.43838V10.6544H3.70628C4.05925 10.6544 4.32441 10.4342 4.32441 10.0603C4.32441 9.73644 4.12546 9.49256 3.70628 9.49256H3.00342ZM3.90283 10.076C3.90283 10.2431 3.80473 10.3361 3.65894 10.3361H3.43872V9.81088H3.65894C3.81536 9.81088 3.90283 9.91962 3.90283 10.076ZM5.15486 11.1877L5.17887 11.3229V11.3232H5.56615V10.3816C5.56615 10.0763 5.37268 9.93843 5.0595 9.93843C4.79674 9.93843 4.5899 10.0208 4.46264 10.1003L4.57927 10.3418C4.6561 10.3072 4.81801 10.2461 4.95591 10.2461C5.05401 10.2461 5.14148 10.2804 5.14148 10.384V10.4742C4.57652 10.4636 4.3882 10.6571 4.3882 10.949C4.3882 11.2196 4.60053 11.3548 4.81012 11.3548C4.97992 11.3548 5.08042 11.27 5.15486 11.1877ZM5.10725 10.7383C5.11822 10.7395 5.1295 10.7408 5.14183 10.7418V11.0255C5.10203 11.0546 5.04098 11.0786 4.97477 11.0786C4.86878 11.0786 4.79709 11.0176 4.79709 10.9195C4.79709 10.8083 4.87667 10.7339 5.04646 10.7339C5.06856 10.7339 5.08738 10.736 5.10724 10.7383L5.10725 10.7383ZM5.97745 11.8984L6.20041 11.3228H6.07315C6.02392 11.168 5.97502 11.0131 5.92611 10.8583L5.92603 10.858C5.83253 10.562 5.73904 10.2661 5.64334 9.96995H6.07315L6.32767 10.9726L6.6141 9.96995H7.03602C6.91375 10.3234 6.79314 10.6769 6.67282 11.0296L6.6728 11.0297C6.57371 11.3201 6.47481 11.61 6.37535 11.8988H5.97745V11.8984ZM7.80266 9.49256V11.3229H8.93532V11.0073H8.23761V9.49256H7.80266ZM9.84537 11.3229L9.82136 11.1877C9.74693 11.27 9.64642 11.3548 9.47662 11.3548C9.26704 11.3548 9.0547 11.2196 9.0547 10.949C9.0547 10.6571 9.24302 10.4636 9.80798 10.4742V10.384C9.80798 10.2804 9.72051 10.2461 9.62241 10.2461C9.48451 10.2461 9.32261 10.3072 9.24577 10.3418L9.12914 10.1003C9.2564 10.0208 9.46324 9.93843 9.726 9.93843C10.0392 9.93843 10.2326 10.0763 10.2326 10.3816V11.3232H9.84537V11.3229ZM9.80833 10.7418C9.796 10.7408 9.78472 10.7395 9.77375 10.7383C9.75389 10.736 9.73507 10.7339 9.71297 10.7339C9.54317 10.7339 9.46359 10.8083 9.46359 10.9195C9.46359 11.0176 9.53528 11.0786 9.64127 11.0786C9.70748 11.0786 9.76854 11.0546 9.80833 11.0255V10.7418ZM10.5829 10.9542C10.5829 11.3072 10.835 11.323 10.9623 11.323V11.3236H11.2648V11.0396H11.1482C11.0552 11.0396 11.0048 10.9971 11.0048 10.8592V10.2596H11.2648V9.97041H11.0048V9.56702L10.5829 9.7128V9.97007H10.376V10.2592H10.5829V10.9542ZM12.6122 11.222C12.5275 11.2858 12.3069 11.3547 12.0894 11.3547C11.649 11.3547 11.3732 11.0813 11.3732 10.6543C11.3732 10.2378 11.6651 9.93805 12.0418 9.93805C12.3309 9.93805 12.6174 10.0945 12.6174 10.572V10.7311H11.8164C11.8377 10.9541 11.9728 11.0443 12.1532 11.0443C12.2887 11.0443 12.4424 10.9887 12.4928 10.9568L12.6122 11.222ZM12.2277 10.5085C12.2277 10.3253 12.1481 10.2351 12.0366 10.2351C11.92 10.2351 11.8325 10.3281 11.8164 10.5085H12.2277ZM12.7899 9.96995V11.3228H13.2142V10.4474C13.2887 10.373 13.408 10.3281 13.5195 10.3281C13.5459 10.3281 13.6015 10.3281 13.6255 10.3332V9.93805C13.4427 9.93805 13.2808 10.0495 13.1933 10.2166V9.96995H12.7899Z" fill="#2D2341"/>
</svg>
