<svg width="24" height="16" viewBox="0 0 24 16" fill="none" xmlns="http://www.w3.org/2000/svg">
<rect x="0.5" y="0.5" width="22.3333" height="15" rx="2" fill="white" stroke="#D9D9D9"/>
<path fill-rule="evenodd" clip-rule="evenodd" d="M13.9155 10.4913H17.1461V9.04366H15.5092V5.6611H13.9155V10.4913ZM4.0083 5.68966V10.5124L5.44813 10.5146V9.04262H5.77205C6.34593 9.04262 7.00078 8.92265 7.29771 8.63513C7.59464 8.34761 7.71719 7.91686 7.71719 7.36667C7.72412 7.07132 7.669 6.77774 7.55523 6.50412C7.46212 6.279 7.2989 6.08833 7.08878 5.95921C6.87967 5.84467 6.65309 5.76383 6.41773 5.71978C6.23036 5.68671 5.89382 5.68786 5.51438 5.68914L5.51438 5.68914C5.439 5.6894 5.36193 5.68966 5.28401 5.68966H4.0083ZM5.50373 8.15998C5.48132 8.15965 5.45896 8.15788 5.43679 8.1547L5.43517 6.6706V6.58974C5.7213 6.58974 5.98044 6.62832 6.08841 6.74142C6.24295 6.90532 6.24266 7.07596 6.24231 7.28134L6.24227 7.31117C6.24227 7.57438 6.23903 7.85872 6.1343 7.9861C6.06627 8.06855 5.94858 8.17637 5.50373 8.15998ZM18.949 7.32702H17.4223V10.4982H18.949V7.32702ZM17.4008 5.68224H18.9599V6.99351H17.4008V5.68224Z" fill="black"/>
<path fill-rule="evenodd" clip-rule="evenodd" d="M11.7729 10.1588C11.9786 10.0864 12.1816 9.93369 12.3565 9.77831C12.8494 9.33857 13.3688 8.5923 13.3283 7.68376C13.2862 6.72713 12.762 6.11404 12.0639 5.73192C12.2653 5.77526 12.4316 5.90633 12.5865 6.02948C13.0346 6.38465 13.3747 6.93484 13.3893 7.70807C13.4087 8.73658 12.8494 9.43794 12.295 9.92154C12.4688 9.83697 12.6027 9.68053 12.7323 9.52884C13.0994 9.09862 13.4373 8.48606 13.4373 7.7197C13.4373 6.64098 12.8143 6.01997 12.0877 5.61353C12.3218 5.6876 12.5373 5.80936 12.7199 5.97081C12.9883 6.19946 13.1984 6.48638 13.3333 6.80867C13.4683 7.13096 13.5245 7.47968 13.4973 7.82699C13.4532 8.5839 13.1138 9.29532 12.5493 9.81425C11.9933 10.3343 11.273 10.6534 10.5069 10.7191C10.4058 10.7262 10.3042 10.7262 10.203 10.7191C8.93431 10.616 8.01384 9.82059 7.91774 8.60075C7.90775 8.47392 7.90775 8.34652 7.91774 8.21969C7.97173 7.45015 8.32696 6.83707 8.79286 6.36351C9.2998 5.8482 9.94062 5.45973 10.8346 5.39948C10.8568 5.30381 10.8827 5.19441 10.8962 5.1257C11.1904 5.43172 11.5478 5.76522 11.9171 6.12514C11.4722 6.34818 11.0393 6.58285 10.6041 6.8154C10.6138 6.72819 10.6344 6.62883 10.6403 6.5654C9.89365 6.69489 9.26417 7.22553 9.13352 7.96969C8.97156 8.8777 9.59349 9.57165 10.4832 9.57641C11.3821 9.58117 12.1449 8.90148 12.282 8.12455C12.39 7.49666 12.1093 7.05799 11.747 6.76783C12.085 6.98664 12.4488 7.38197 12.4035 7.96969C12.3301 8.89039 11.4458 9.65305 10.5204 9.65992C10.2771 9.66087 10.0366 9.60926 9.81599 9.50876C9.59539 9.40827 9.40015 9.26137 9.24419 9.07854C9.54706 9.50982 10.0767 9.73708 10.6786 9.69744C11.1515 9.66626 11.5516 9.43899 11.8458 9.16205C12.14 8.8851 12.3803 8.48553 12.4397 8.0791C12.4637 7.91734 12.4637 7.75303 12.4397 7.59127C12.3657 7.1156 12.0709 6.89415 11.801 6.58707C12.1854 6.88728 12.5881 7.28737 12.5617 7.93481C12.5217 8.88087 11.5964 9.71488 10.6284 9.77936C9.99353 9.82165 9.60266 9.60918 9.26687 9.30369C9.58485 9.69797 10.1846 9.9004 10.8109 9.80368C11.7044 9.66573 12.5007 8.93584 12.5978 8.03047C12.6853 7.21285 12.2626 6.83337 11.8588 6.43274C12.2907 6.74986 12.6562 7.1045 12.6826 7.7567C12.7058 8.32328 12.424 8.8777 12.0628 9.23234C11.4852 9.79945 10.3601 10.1715 9.48551 9.64882C10.2305 10.2054 11.3875 9.88665 12.0018 9.33963C12.4478 8.94324 12.7733 8.41471 12.7193 7.62562C12.6756 6.99139 12.3085 6.66688 11.8928 6.32862C12.3204 6.54321 12.7328 6.97237 12.7922 7.59021C12.8716 8.39886 12.491 8.99609 12.0277 9.39777C11.4679 9.88137 10.6781 10.1694 9.79108 9.94532C11.2606 10.3935 12.6346 9.32536 12.83 8.08914C12.9704 7.20069 12.5061 6.67692 12.0645 6.30378C12.0191 6.26573 11.9932 6.23825 11.9311 6.18487C12.5622 6.50621 13.0864 7.21655 12.8791 8.21969C12.6378 9.38773 11.4425 10.3338 9.90067 10.088C10.1247 10.1758 10.3866 10.1567 10.6122 10.1451C11.314 10.1065 11.9489 9.76351 12.289 9.39407C12.7015 8.94482 13.0281 8.37877 12.965 7.56326C12.9077 6.82332 12.4866 6.47185 11.9716 6.08339C12.1874 6.16817 12.3794 6.30228 12.5314 6.4745C12.8252 6.77958 13.0035 7.17383 13.0368 7.5918C13.0994 8.43268 12.7047 9.0574 12.2712 9.49449C11.8091 9.96118 11.1829 10.2608 10.3871 10.2677C11.6353 10.3047 12.4645 9.55474 12.8667 8.72073C13.0972 8.24506 13.1642 7.5696 12.9747 7.04266C12.8014 6.55748 12.404 6.22451 12.0137 5.95443C12.6956 6.31118 13.2694 6.98082 13.1447 8.01832C13.1027 8.37659 12.9815 8.7216 12.7895 9.02939C12.4175 9.64036 11.8091 10.0701 11.1267 10.3037C11.632 10.198 12.1114 9.9004 12.464 9.51774C12.8959 9.05106 13.2273 8.46069 13.2057 7.63778C13.1814 6.75197 12.6221 6.24142 12.051 5.8408C12.0584 5.8418 12.0656 5.84376 12.0726 5.84661C12.6961 6.14575 13.1679 6.66477 13.2662 7.4713C13.4228 8.74451 12.5665 9.67419 11.7729 10.1588Z" fill="#30469D"/>
</svg>
