<svg width="23" height="16" viewBox="0 0 23 16" fill="none" xmlns="http://www.w3.org/2000/svg">
<rect x="0.5" y="0.5" width="22" height="15" rx="2" fill="white" stroke="#D9D9D9"/>
<path fill-rule="evenodd" clip-rule="evenodd" d="M13.0841 7.65873H13.8371C14.0759 7.64999 14.2211 7.63134 14.2734 7.60213C14.3448 7.56223 14.3927 7.48239 14.4165 7.36259C14.4318 7.28286 14.4394 7.16434 14.4394 7.00686C14.4394 6.81397 14.4243 6.67099 14.3938 6.57759C14.3504 6.44679 14.2463 6.36711 14.0815 6.33817C14.0489 6.3338 13.9709 6.33147 13.8473 6.33147H13.0841V7.65873ZM11.8762 9.89428V5.33334H14.1266C14.4353 5.33334 14.6708 5.35896 14.8326 5.41014C15.2028 5.528 15.4511 5.76931 15.5783 6.134C15.644 6.3254 15.6768 6.61357 15.6768 6.99835C15.6768 7.46098 15.6404 7.79348 15.5684 7.99588C15.424 8.39616 15.1269 8.62673 14.6782 8.68648C14.6255 8.69545 14.401 8.70347 14.0047 8.70989L13.8042 8.7167H13.0841V9.89428H11.8762ZM5.81085 6.78832H6.93457C6.94181 6.68756 6.94546 6.6122 6.94546 6.56179C6.94546 5.94722 6.70098 5.57322 6.21197 5.43971C6.0116 5.38509 5.67548 5.35754 5.20384 5.35754C4.90427 5.35754 4.63191 5.36866 4.3864 5.39041C4.09134 5.41453 3.84893 5.49526 3.6595 5.63276C3.53018 5.72235 3.43648 5.85332 3.37832 6.02584C3.32023 6.19831 3.29115 6.42761 3.29115 6.71357C3.29115 7.08905 3.34495 7.36976 3.45248 7.55529C3.57483 7.77363 3.82002 7.91744 4.18793 7.98738C4.32765 8.01167 4.57713 8.03673 4.93628 8.06279C5.38353 8.09339 5.6341 8.11752 5.68795 8.13484C5.83197 8.17866 5.90412 8.30083 5.90412 8.50163C5.90412 8.59127 5.89557 8.66453 5.87836 8.72114C5.84597 8.8131 5.77818 8.87955 5.67489 8.92083C5.61684 8.94286 5.4823 8.95381 5.27147 8.95381H4.85836C4.74838 8.95138 4.65483 8.93085 4.57735 8.89173C4.46557 8.83501 4.40954 8.70764 4.40954 8.5096L4.40943 8.41476H3.28571C3.28571 8.78588 3.31244 9.05097 3.36645 9.21017C3.46343 9.49612 3.6638 9.68602 3.96774 9.77976C4.21537 9.85628 4.65396 9.89435 5.28329 9.89435C5.66029 9.89435 5.9406 9.87681 6.12382 9.84173C6.56116 9.75879 6.84222 9.56131 6.96735 9.24862C7.03639 9.0782 7.07086 8.80928 7.07086 8.4421C7.07086 8.2828 7.06334 8.13943 7.04821 8.01272C7.02234 7.80091 6.94127 7.62938 6.80531 7.49813C6.63254 7.32992 6.35409 7.22611 5.97 7.18677C5.84901 7.17366 5.54568 7.15058 5.05999 7.11783L4.83337 7.10156C4.73389 7.09503 4.65412 7.07317 4.59374 7.03599C4.50945 6.98359 4.46742 6.87425 4.46742 6.7082C4.46742 6.52478 4.5149 6.40564 4.60975 6.35087C4.70465 6.29625 4.89915 6.26897 5.19252 6.26897C5.4946 6.26897 5.67919 6.31639 5.74605 6.41112C5.78917 6.47514 5.81085 6.60091 5.81085 6.78832ZM3.29005 10.7988L3.45852 10.7815C3.46864 10.8392 3.48922 10.8815 3.52021 10.9087C3.55124 10.9357 3.59306 10.9492 3.64571 10.9492C3.70147 10.9492 3.74345 10.9372 3.77176 10.9132C3.80002 10.8891 3.81412 10.861 3.81412 10.8288C3.81412 10.8082 3.80819 10.7906 3.79637 10.7761C3.7845 10.7616 3.76381 10.749 3.73425 10.7382C3.71399 10.7312 3.66793 10.7186 3.596 10.7004C3.50338 10.6772 3.43848 10.6485 3.40113 10.6145C3.34864 10.5667 3.32239 10.5084 3.32239 10.4395C3.32239 10.3953 3.33475 10.3539 3.35953 10.3154C3.38425 10.2768 3.41997 10.2474 3.46652 10.2273C3.51313 10.2072 3.56937 10.197 3.63526 10.197C3.74285 10.197 3.82382 10.2211 3.87821 10.2691C3.93261 10.3172 3.96114 10.3813 3.96386 10.4616L3.79033 10.4685C3.78292 10.4237 3.76702 10.3915 3.74263 10.3718C3.71829 10.3521 3.68176 10.3423 3.63303 10.3423C3.58271 10.3423 3.5434 10.3528 3.51492 10.3738C3.49658 10.3873 3.48743 10.4053 3.48743 10.4279C3.48743 10.4485 3.49603 10.4661 3.51318 10.4808C3.53496 10.4994 3.58794 10.5188 3.67212 10.5389C3.75624 10.5591 3.81848 10.5799 3.85883 10.6016C3.89912 10.6233 3.9307 10.6529 3.95351 10.6904C3.97627 10.728 3.98771 10.7744 3.98771 10.8296C3.98771 10.8797 3.97404 10.9266 3.94671 10.9703C3.91937 11.014 3.88077 11.0465 3.83084 11.0677C3.78091 11.089 3.71867 11.0997 3.64413 11.0997C3.53567 11.0997 3.45236 11.074 3.39421 11.0228C3.33611 10.9716 3.30137 10.8969 3.29005 10.7988ZM4.16751 10.4531H4.33255V11.0842H4.16751V10.4531ZM4.16751 10.2127H4.33254V10.3666H4.16751V10.2127ZM4.93781 11.0842H5.10284V10.6911C5.10284 10.6423 5.09979 10.6048 5.09375 10.5786C5.08771 10.5524 5.07698 10.529 5.06157 10.5084C5.04616 10.4877 5.02346 10.4707 4.99345 10.4575C4.96345 10.4442 4.93029 10.4375 4.89403 10.4375C4.81181 10.4375 4.74353 10.4736 4.68935 10.5458V10.453H4.53624V11.0842H4.70128V10.7977C4.70128 10.727 4.70542 10.6786 4.7138 10.6524C4.72213 10.6262 4.73754 10.6052 4.76008 10.5893C4.78263 10.5734 4.80805 10.5654 4.83642 10.5654C4.85853 10.5654 4.87748 10.571 4.89321 10.5821C4.90895 10.5932 4.92027 10.6089 4.9273 10.6289C4.93427 10.6489 4.93781 10.6931 4.93781 10.7614V11.0842ZM5.43661 10.755C5.43661 10.8222 5.44925 10.8714 5.47462 10.9025C5.49994 10.9338 5.53119 10.9493 5.56838 10.9493C5.60818 10.9493 5.64183 10.9333 5.66933 10.9014C5.69677 10.8694 5.71055 10.822 5.71055 10.7591C5.71055 10.6936 5.69737 10.6449 5.67107 10.6131C5.64472 10.5814 5.6115 10.5654 5.57127 10.5654C5.53217 10.5654 5.49994 10.5811 5.47462 10.6122C5.44925 10.6435 5.43661 10.691 5.43661 10.755ZM5.28859 11.1257L5.47573 11.1464C5.47889 11.1699 5.48613 11.1861 5.49746 11.1949C5.51314 11.2076 5.5378 11.2139 5.57145 11.2139C5.61452 11.2139 5.64681 11.2073 5.66837 11.1943C5.6828 11.1855 5.6938 11.1715 5.70126 11.1521C5.70632 11.1381 5.70888 11.1126 5.70888 11.0753L5.70937 10.9832C5.6607 11.0505 5.59895 11.0842 5.52403 11.0842C5.44045 11.0842 5.37435 11.0483 5.32556 10.9764C5.28728 10.9197 5.26817 10.8489 5.26817 10.7644C5.26817 10.6584 5.29322 10.5774 5.34337 10.5214C5.39351 10.4655 5.45591 10.4375 5.53045 10.4375C5.60734 10.4375 5.67077 10.4719 5.72075 10.5405V10.453H5.87392V11.0204C5.87392 11.095 5.86788 11.1508 5.85573 11.1876C5.84365 11.2246 5.82666 11.2535 5.80477 11.2746C5.78288 11.2956 5.7537 11.3121 5.71716 11.324C5.68062 11.3359 5.63445 11.3418 5.57864 11.3418C5.47317 11.3418 5.39836 11.3234 5.3542 11.2865C5.31004 11.2496 5.28799 11.2027 5.28799 11.146C5.28799 11.1404 5.28821 11.1337 5.28859 11.1257ZM6.23657 10.2127H6.07153V11.0842H6.23657V10.2127ZM6.8112 10.7159C6.81005 10.6667 6.79769 10.6295 6.77412 10.6038C6.75059 10.5783 6.72195 10.5654 6.68819 10.5654C6.6521 10.5654 6.62226 10.579 6.59873 10.6059C6.57516 10.6329 6.56361 10.6696 6.564 10.7159H6.8112ZM6.80272 10.8854L6.96607 10.913C6.94494 10.9738 6.91156 11.0202 6.86599 11.052C6.82042 11.0839 6.76335 11.0998 6.69491 11.0998C6.5865 11.0998 6.5063 11.0637 6.4543 10.9918C6.41319 10.9341 6.39266 10.8613 6.39266 10.7734C6.39266 10.6685 6.41961 10.5862 6.47363 10.5267C6.52759 10.4672 6.59581 10.4375 6.6783 10.4375C6.77103 10.4375 6.84416 10.4687 6.89773 10.5311C6.95131 10.5935 6.9769 10.6891 6.97456 10.8179H6.56113C6.56227 10.8676 6.57567 10.9062 6.60126 10.9339C6.62685 10.9614 6.65876 10.9753 6.69698 10.9753C6.72295 10.9753 6.74484 10.9682 6.76254 10.954C6.78023 10.9398 6.79368 10.9169 6.80272 10.8854ZM7.51455 10.2127V11.0842H8.16625V10.9372H7.68813V10.7003H8.11692V10.5534H7.68813V10.3597H8.14926V10.2127H7.51455ZM8.75618 11.0841V10.9896C8.73347 11.0233 8.70369 11.0501 8.66672 11.07C8.62974 11.0898 8.59076 11.0997 8.5497 11.0997C8.50783 11.0997 8.47037 11.0904 8.4371 11.0718C8.40389 11.0531 8.37982 11.0269 8.36496 10.9932C8.35009 10.9594 8.34269 10.9128 8.34269 10.8532V10.453H8.50772V10.7433C8.50772 10.8322 8.51072 10.8866 8.51682 10.9066C8.52286 10.9267 8.53386 10.9425 8.54987 10.9543C8.56588 10.966 8.58613 10.9718 8.61074 10.9718C8.63884 10.9718 8.66405 10.964 8.68626 10.9483C8.70853 10.9326 8.72372 10.9132 8.73195 10.89C8.74011 10.8668 8.74425 10.81 8.74425 10.7196V10.453H8.90929V11.0841H8.75618ZM9.10692 11.0842H9.27196V10.889C9.27196 10.7816 9.27659 10.7109 9.28579 10.6772C9.29499 10.6435 9.30762 10.6202 9.32369 10.6073C9.33975 10.5944 9.3593 10.5879 9.38244 10.5879C9.40629 10.5879 9.4322 10.5971 9.45997 10.6153L9.51018 10.4691C9.47544 10.4481 9.43928 10.4375 9.40182 10.4375C9.37525 10.4375 9.35156 10.4445 9.33066 10.4584C9.30975 10.4723 9.28623 10.5004 9.26004 10.5428V10.453H9.10692V11.0842ZM9.74521 10.7687C9.74521 10.8316 9.75986 10.8797 9.7892 10.9131C9.81855 10.9465 9.85471 10.9632 9.89777 10.9632C9.94079 10.9632 9.97689 10.9465 10.006 10.9131C10.0352 10.8797 10.0497 10.8311 10.0497 10.7675C10.0497 10.7055 10.0352 10.6577 10.006 10.6243C9.97689 10.5909 9.94079 10.5742 9.89777 10.5742C9.85471 10.5742 9.81855 10.5909 9.7892 10.6243C9.75986 10.6577 9.74521 10.7059 9.74521 10.7687ZM9.57675 10.7596C9.57675 10.704 9.5902 10.6501 9.61715 10.598C9.64405 10.5459 9.68216 10.5061 9.73155 10.4787C9.78088 10.4512 9.83604 10.4375 9.89691 10.4375C9.99094 10.4375 10.068 10.4686 10.1281 10.5308C10.1882 10.5931 10.2182 10.6718 10.2182 10.7668C10.2182 10.8627 10.1878 10.9422 10.1272 11.0052C10.0665 11.0682 9.99013 11.0998 9.89805 11.0998C9.8411 11.0998 9.78676 11.0866 9.73509 11.0604C9.68336 11.0341 9.64405 10.9957 9.61715 10.9449C9.5902 10.8942 9.57675 10.8325 9.57675 10.7596ZM10.9292 10.6087V10.3597H11.0126C11.0749 10.3597 11.1163 10.3617 11.1369 10.3657C11.1649 10.3709 11.188 10.3839 11.2063 10.4046C11.2246 10.4253 11.2338 10.4517 11.2338 10.4836C11.2338 10.5096 11.2272 10.5323 11.2142 10.5518C11.2012 10.5714 11.1832 10.5858 11.1602 10.595C11.1373 10.6042 11.0918 10.6087 11.0237 10.6087H10.9292ZM10.7556 10.2127V11.0842H10.9292V10.7557H11.042C11.1202 10.7557 11.18 10.7515 11.2213 10.7432C11.2517 10.7364 11.2816 10.7227 11.311 10.7018C11.3404 10.681 11.3647 10.6524 11.3838 10.6159C11.4029 10.5794 11.4124 10.5344 11.4124 10.4809C11.4124 10.4115 11.3958 10.3549 11.3627 10.3112C11.3295 10.2674 11.2884 10.2389 11.2393 10.2258C11.2073 10.2171 11.1387 10.2127 11.0334 10.2127H10.7556ZM11.9309 10.7817C11.9098 10.7889 11.8766 10.7974 11.831 10.8074C11.7855 10.8173 11.7557 10.8271 11.7418 10.8366C11.7204 10.8521 11.7097 10.8718 11.7097 10.8957C11.7097 10.9192 11.7182 10.9394 11.7353 10.9566C11.7525 10.9737 11.7743 10.9823 11.8008 10.9823C11.8303 10.9823 11.8585 10.9723 11.8854 10.9524C11.9052 10.9373 11.9183 10.9188 11.9245 10.8969C11.9287 10.8826 11.9309 10.8553 11.9309 10.8151V10.7817ZM11.7098 10.645L11.5617 10.6173C11.5785 10.5562 11.6073 10.511 11.6483 10.4816C11.6893 10.4522 11.7502 10.4375 11.8309 10.4375C11.9042 10.4375 11.9589 10.4463 11.9948 10.4639C12.0307 10.4817 12.056 10.5041 12.0706 10.5313C12.0852 10.5585 12.0926 10.6084 12.0926 10.6811L12.0909 10.8764C12.0909 10.9319 12.0935 10.973 12.0987 10.9993C12.104 11.0257 12.1139 11.054 12.1283 11.0842H11.965C11.9606 11.0733 11.9554 11.0571 11.9491 11.0356C11.9464 11.0258 11.9444 11.0194 11.9433 11.0162C11.9152 11.044 11.8852 11.065 11.8533 11.0789C11.8213 11.0928 11.7873 11.0998 11.751 11.0998C11.6871 11.0998 11.6367 11.0821 11.5999 11.0468C11.5631 11.0114 11.5447 10.9667 11.5447 10.9127C11.5447 10.877 11.553 10.8451 11.5698 10.8171C11.5866 10.7891 11.6101 10.7677 11.6403 10.7528C11.6706 10.7379 11.7142 10.7248 11.7712 10.7137C11.848 10.6991 11.9013 10.6854 11.9309 10.6727V10.6558C11.9309 10.6232 11.9231 10.6001 11.9074 10.5862C11.8917 10.5723 11.8621 10.5654 11.8185 10.5654C11.7891 10.5654 11.7662 10.5713 11.7497 10.5831C11.7332 10.5949 11.7199 10.6155 11.7098 10.645ZM12.3863 10.453H12.2111L12.4479 11.0859C12.4381 11.1215 12.424 11.1509 12.4055 11.1741C12.387 11.1971 12.3587 11.2086 12.3202 11.2086C12.2994 11.2086 12.276 11.2061 12.2502 11.2008L12.2655 11.3317C12.296 11.3385 12.3271 11.3418 12.3587 11.3418C12.39 11.3418 12.418 11.3385 12.4429 11.3316C12.4677 11.325 12.4885 11.3154 12.5055 11.3033C12.5225 11.2913 12.5376 11.2754 12.5507 11.256C12.5637 11.2365 12.5775 11.2084 12.592 11.1714L12.8508 10.453H12.6807L12.5352 10.9011L12.3863 10.453ZM12.9795 10.453H13.1309V10.5393C13.1853 10.4714 13.2501 10.4375 13.3252 10.4375C13.3651 10.4375 13.3997 10.4458 13.429 10.4624C13.4584 10.4792 13.4825 10.5044 13.5012 10.5381C13.5285 10.5044 13.5581 10.4792 13.5897 10.4624C13.6214 10.4458 13.6551 10.4375 13.691 10.4375C13.7367 10.4375 13.7754 10.4469 13.807 10.4658C13.8387 10.4846 13.8624 10.5123 13.878 10.5489C13.8892 10.5758 13.8949 10.6195 13.8949 10.6799V11.0842H13.7299V10.7227C13.7299 10.6599 13.7242 10.6195 13.7129 10.6012C13.6977 10.5773 13.6743 10.5654 13.6428 10.5654C13.6198 10.5654 13.5981 10.5726 13.5779 10.5869C13.5576 10.6012 13.543 10.6221 13.5341 10.6497C13.5251 10.6773 13.5206 10.7209 13.5206 10.7804V11.0842H13.3555V10.7376C13.3555 10.676 13.3527 10.6364 13.3468 10.6184C13.3409 10.6006 13.3319 10.5873 13.3196 10.5785C13.3073 10.5698 13.2907 10.5654 13.2696 10.5654C13.2443 10.5654 13.2215 10.5724 13.2012 10.5863C13.181 10.6002 13.1665 10.6203 13.1577 10.6464C13.1489 10.6727 13.1445 10.7161 13.1445 10.7768V11.0842H12.9795V10.453ZM14.4263 10.6038C14.4499 10.6295 14.4622 10.6667 14.4634 10.7159H14.2162C14.2159 10.6696 14.2274 10.6329 14.251 10.6059C14.2745 10.579 14.3043 10.5654 14.3404 10.5654C14.3741 10.5654 14.4028 10.5783 14.4263 10.6038ZM14.6183 10.913L14.455 10.8854C14.4459 10.9169 14.4325 10.9398 14.4147 10.954C14.397 10.9682 14.3752 10.9753 14.3492 10.9753C14.3109 10.9753 14.279 10.9614 14.2535 10.9339C14.2279 10.9062 14.2145 10.8676 14.2133 10.8179H14.6268C14.6291 10.6891 14.6035 10.5935 14.5499 10.5311C14.4963 10.4687 14.4233 10.4375 14.3305 10.4375C14.248 10.4375 14.1798 10.4672 14.1258 10.5267C14.0719 10.5862 14.0448 10.6685 14.0448 10.7734C14.0448 10.8613 14.0654 10.9341 14.1065 10.9918C14.1585 11.0637 14.2387 11.0998 14.3471 11.0998C14.4156 11.0998 14.4726 11.0839 14.5182 11.052C14.5638 11.0202 14.5971 10.9738 14.6183 10.913ZM15.3613 11.0842H15.1962V10.7614C15.1962 10.6931 15.1927 10.6489 15.1858 10.6289C15.1787 10.6089 15.1674 10.5932 15.1516 10.5821C15.1359 10.571 15.1169 10.5654 15.0948 10.5654C15.0665 10.5654 15.041 10.5734 15.0186 10.5893C14.996 10.6052 14.9806 10.6262 14.9722 10.6524C14.9639 10.6786 14.9597 10.727 14.9597 10.7977V11.0842H14.7947V10.453H14.9478V10.5458C15.002 10.4736 15.0702 10.4375 15.1524 10.4375C15.1887 10.4375 15.2219 10.4442 15.2519 10.4575C15.2819 10.4707 15.3046 10.4877 15.32 10.5084C15.3355 10.529 15.3461 10.5524 15.3522 10.5786C15.3583 10.6048 15.3613 10.6423 15.3613 10.6911V11.0842ZM15.8482 10.5861V10.453H15.7359V10.2282L15.5709 10.3268V10.453H15.496V10.5861H15.5709V10.862C15.5709 10.9212 15.5725 10.9605 15.5761 10.98C15.5803 11.0074 15.588 11.0291 15.599 11.0452C15.6101 11.0613 15.6275 11.0744 15.6511 11.0845C15.6748 11.0946 15.7013 11.0997 15.7309 11.0997C15.779 11.0997 15.822 11.0914 15.8601 11.0747L15.8457 10.9453C15.8172 10.956 15.7957 10.9614 15.7807 10.9614C15.7699 10.9614 15.7609 10.9586 15.7534 10.953C15.7459 10.9474 15.7411 10.9404 15.7391 10.9318C15.7369 10.9233 15.7359 10.8932 15.7359 10.8415V10.5861H15.8482ZM15.941 10.9061L16.1061 10.8802C16.1131 10.9124 16.1273 10.9369 16.1487 10.9536C16.1701 10.9704 16.2001 10.9787 16.2386 10.9787C16.2812 10.9787 16.3131 10.9707 16.3345 10.9548C16.3489 10.9436 16.3562 10.9287 16.3562 10.9099C16.3562 10.8971 16.3522 10.8865 16.3444 10.8782C16.3361 10.8702 16.3177 10.8628 16.2891 10.856C16.1557 10.8261 16.0711 10.7988 16.0355 10.7742C15.9861 10.7401 15.9614 10.6925 15.9614 10.6318C15.9614 10.5769 15.9827 10.5308 16.0255 10.4935C16.0683 10.4562 16.1345 10.4375 16.2243 10.4375C16.3098 10.4375 16.3733 10.4515 16.4149 10.4794C16.4564 10.5074 16.4851 10.5488 16.5008 10.6035L16.346 10.6329C16.3393 10.6084 16.3265 10.5895 16.3078 10.5764C16.289 10.5633 16.2623 10.5568 16.2276 10.5568C16.1838 10.5568 16.1524 10.5629 16.1335 10.5754C16.1208 10.5841 16.1145 10.5955 16.1145 10.6094C16.1145 10.6214 16.12 10.6316 16.131 10.64C16.1459 10.6511 16.1973 10.6669 16.2852 10.6873C16.3732 10.7076 16.4346 10.7325 16.4695 10.762C16.5039 10.7919 16.5212 10.8336 16.5212 10.887C16.5212 10.9451 16.4974 10.9951 16.4498 11.037C16.4022 11.0789 16.3319 11.0998 16.2386 11.0998C16.1541 11.0998 16.0871 11.0823 16.0378 11.0476C15.9884 11.0128 15.9562 10.9658 15.941 10.9061ZM17.4058 10.4167L17.5257 10.7401H17.2899L17.4058 10.4167ZM17.6571 11.0842H17.844L17.4977 10.2127H17.3151L16.983 11.0842H17.1666L17.2373 10.8871H17.5829L17.6571 11.0842ZM18.1272 11.0842H17.9622V10.453H18.1153V10.5428C18.1415 10.5004 18.165 10.4723 18.1859 10.4584C18.2068 10.4445 18.2305 10.4375 18.2571 10.4375C18.2945 10.4375 18.3306 10.4481 18.3654 10.4691L18.3152 10.6153C18.2874 10.5971 18.2615 10.5879 18.2377 10.5879C18.2145 10.5879 18.195 10.5944 18.1789 10.6073C18.1628 10.6202 18.1502 10.6435 18.1411 10.6772C18.1318 10.7109 18.1272 10.7816 18.1272 10.889V11.0842ZM18.805 10.6038C18.8285 10.6295 18.8409 10.6667 18.8421 10.7159H18.5949C18.5944 10.6696 18.606 10.6329 18.6296 10.6059C18.6531 10.579 18.6829 10.5654 18.7191 10.5654C18.7528 10.5654 18.7814 10.5783 18.805 10.6038ZM18.9969 10.913L18.8336 10.8854C18.8245 10.9169 18.8111 10.9398 18.7934 10.954C18.7756 10.9682 18.7538 10.9753 18.7278 10.9753C18.6896 10.9753 18.6577 10.9614 18.632 10.9339C18.6065 10.9062 18.5931 10.8676 18.5919 10.8179H19.0054C19.0077 10.6891 18.9821 10.5935 18.9286 10.5311C18.8749 10.4687 18.8018 10.4375 18.7091 10.4375C18.6266 10.4375 18.5584 10.4672 18.5045 10.5267C18.4504 10.5862 18.4234 10.6685 18.4234 10.7734C18.4234 10.8613 18.444 10.9341 18.4851 10.9918C18.5371 11.0637 18.6173 11.0998 18.7257 11.0998C18.7942 11.0998 18.8512 11.0839 18.8968 11.052C18.9424 11.0202 18.9758 10.9738 18.9969 10.913ZM19.517 10.7817C19.496 10.7889 19.4626 10.7974 19.4171 10.8074C19.3716 10.8173 19.3419 10.8271 19.3279 10.8366C19.3064 10.8521 19.2958 10.8718 19.2958 10.8957C19.2958 10.9192 19.3043 10.9394 19.3215 10.9566C19.3385 10.9737 19.3603 10.9823 19.3868 10.9823C19.4164 10.9823 19.4446 10.9723 19.4715 10.9524C19.4913 10.9373 19.5043 10.9188 19.5106 10.8969C19.5148 10.8826 19.517 10.8553 19.517 10.8151V10.7817ZM19.2958 10.645L19.1477 10.6173C19.1645 10.5562 19.1934 10.511 19.2343 10.4816C19.2753 10.4522 19.3362 10.4375 19.4169 10.4375C19.4903 10.4375 19.545 10.4463 19.5808 10.4639C19.6167 10.4817 19.642 10.5041 19.6566 10.5313C19.6713 10.5585 19.6786 10.6084 19.6786 10.6811L19.6769 10.8764C19.6769 10.9319 19.6796 10.973 19.6848 10.9993C19.6901 11.0257 19.6999 11.054 19.7143 11.0842H19.551C19.5466 11.0733 19.5415 11.0571 19.5352 11.0356C19.5325 11.0258 19.5305 11.0194 19.5294 11.0162C19.5013 11.044 19.4713 11.065 19.4394 11.0789C19.4074 11.0928 19.3733 11.0998 19.3371 11.0998C19.2731 11.0998 19.2227 11.0821 19.1859 11.0468C19.1492 11.0114 19.1308 10.9667 19.1308 10.9127C19.1308 10.877 19.1391 10.8451 19.1559 10.8171C19.1726 10.7891 19.1961 10.7677 19.2264 10.7528C19.2566 10.7379 19.3003 10.7248 19.3572 10.7137C19.434 10.6991 19.4873 10.6854 19.517 10.6727V10.6558C19.517 10.6232 19.5091 10.6001 19.4934 10.5862C19.4778 10.5723 19.4481 10.5654 19.4046 10.5654C19.3752 10.5654 19.3523 10.5713 19.3358 10.5831C19.3193 10.5949 19.3059 10.6155 19.2958 10.645ZM17.4493 6.24047L18.0153 8.21755H16.9001L17.4493 6.24047ZM16.6402 9.10601H18.2552L18.4857 9.89428H19.7091L18.3441 5.33334H16.522L15.1735 9.89428H16.4232L16.6402 9.10601Z" fill="#10298E"/>
<path fill-rule="evenodd" clip-rule="evenodd" d="M10.209 5.9751C10.7072 5.9751 11.1518 6.20832 11.4441 6.57363L11.7045 6.00631C11.2972 5.61516 10.743 5.37402 10.1317 5.37402C9.17993 5.37402 8.36575 5.95817 8.0316 6.78505H7.52386L7.22406 7.4382H7.87723C7.87233 7.49879 7.86918 7.55943 7.86918 7.62129C7.86918 7.69616 7.87299 7.77014 7.88028 7.84323H7.55201L7.25226 8.49659H8.04717C8.39085 9.30256 9.19485 9.86839 10.1317 9.86839C10.6038 9.86839 11.0419 9.72464 11.4047 9.47907V8.67836C11.1126 9.01633 10.6853 9.22991 10.209 9.22991C9.65217 9.22991 9.1624 8.93815 8.87719 8.49659H10.5418L10.8415 7.84323H8.63228C8.6209 7.7646 8.6148 7.68426 8.6148 7.60242C8.6148 7.54709 8.61764 7.49231 8.62286 7.4382H11.0273L11.327 6.78505H8.8308C9.10686 6.3009 9.62059 5.9751 10.209 5.9751Z" fill="#FFBE00"/>
</svg>
