<svg width="23" height="16" viewBox="0 0 23 16" fill="none" xmlns="http://www.w3.org/2000/svg">
<rect x="0.5" y="0.5" width="22" height="15" rx="2" fill="#F884A1" stroke="#D9D9D9"/>
<path fill-rule="evenodd" clip-rule="evenodd" d="M13.3833 6.29032L14.0191 3.07872C14.0956 2.71842 13.8852 2.35534 13.5328 2.25003C13.1394 2.15025 12.7433 2.38306 12.6422 2.77662L12.0661 4.77752L11.612 2.80717C11.5765 2.62425 11.4672 2.46073 11.3115 2.35541C11.1558 2.25009 10.9618 2.21406 10.7788 2.25286C10.4182 2.33046 10.1832 2.75728 10.2734 3.1453L10.5413 5.37718C10.3085 5.14182 10.0367 5.06932 9.72171 5.25445L9.68073 5.28217C9.39366 5.48051 9.33525 5.8858 9.51971 6.25495C9.367 6.26366 9.21773 6.32826 9.10422 6.44622L9.07691 6.4767C8.81191 6.75386 8.86381 7.22225 9.19438 7.55761L9.46366 7.82989C9.49426 9.08457 10.5005 9.96327 11.6868 9.96327C11.7009 9.96327 11.7145 9.96129 11.7274 9.95759C13.334 9.94092 14.0401 8.96985 14.1612 7.49653C14.1994 7.0309 14.1147 6.71218 13.9371 6.52094C13.8388 6.41562 13.735 6.36573 13.6558 6.35465L13.3833 6.29032ZM11.6286 9.66314C11.6366 9.66181 11.6448 9.66111 11.6532 9.66111C13.1339 9.67497 13.7568 8.83242 13.8688 7.47435C13.9016 7.08634 13.8361 6.85075 13.7213 6.72603C13.6913 6.69555 13.6612 6.67337 13.6339 6.66229L13.6011 6.6512L11.88 6.24378C11.8749 6.24207 11.8657 6.24036 11.8529 6.23799C11.845 6.23653 11.8358 6.23481 11.8253 6.2327C11.7325 6.21607 11.6368 6.2133 11.5494 6.2327C11.4155 6.26318 11.3309 6.33802 11.2871 6.48214C11.229 6.67884 11.2339 6.82901 11.3572 6.94927C11.3881 6.96086 11.4131 6.98162 11.43 7.0076C11.5161 7.06539 11.637 7.11579 11.8008 7.16117L12.9345 7.41892C13.123 7.46327 13.0629 7.74874 12.8744 7.71271L12.8389 7.70716C12.6968 7.69331 12.5356 7.70439 12.3881 7.75982C12.1122 7.86514 11.9401 8.10627 11.9182 8.55526C11.9128 8.63841 11.8445 8.69938 11.7625 8.69661C11.6805 8.69107 11.6177 8.62178 11.6232 8.53863C11.645 8.04252 11.8363 7.71825 12.1422 7.54364L11.7297 7.44664C11.5875 7.40753 11.4676 7.36131 11.3678 7.30858C11.32 7.38474 11.2576 7.45088 11.1833 7.50218L11.1505 7.52435C11.1317 7.53727 11.1124 7.54907 11.0928 7.55977C11.2253 7.81117 11.1904 8.12898 10.9865 8.34473L10.9565 8.37522C10.6997 8.64129 10.2817 8.64683 10.0167 8.38908L9.79679 8.16672C9.97342 9.04455 10.7319 9.63849 11.6286 9.66314ZM11.1319 7.13652C11.105 7.18411 11.0674 7.22545 11.0221 7.25551L10.9893 7.27492C10.82 7.39132 10.5905 7.34698 10.4757 7.17514L9.83099 6.20232C9.65614 5.93071 9.678 5.64801 9.84738 5.52884L9.87743 5.50666C10.096 5.37917 10.279 5.47618 10.4675 5.7561L10.621 5.98848C10.6277 6.0037 10.637 6.01756 10.6481 6.02953L10.9742 6.52315C10.9299 6.76032 10.9699 6.96832 11.1319 7.13652ZM13.0956 6.22239L11.9537 5.95277C11.952 5.95232 11.9497 5.95172 11.9471 5.95101C11.9336 5.94736 11.9093 5.94078 11.8772 5.93614C11.7488 5.91397 11.615 5.9112 11.4838 5.93891C11.3272 5.97485 11.196 6.05469 11.1051 6.18282L10.8968 5.86747L10.5657 3.09818L10.563 3.08155C10.5056 2.84874 10.6476 2.58822 10.8389 2.54664C10.9454 2.52447 11.0574 2.54387 11.1476 2.60485C11.2377 2.66582 11.3006 2.76005 11.3224 2.86814L11.9019 5.3788C11.905 5.44133 11.9455 5.49732 12.0084 5.51492C12.0876 5.53709 12.1696 5.49274 12.1914 5.41237L12.9263 2.857C12.9891 2.62141 13.2241 2.48006 13.4536 2.53827C13.6503 2.59924 13.7732 2.80711 13.7295 3.01775L13.0956 6.22239ZM10.2299 7.3442C10.3619 7.53985 10.5757 7.64358 10.7919 7.63971C10.9098 7.78487 10.9035 7.99959 10.7707 8.13687L10.7434 8.16735C10.6013 8.31425 10.3691 8.31702 10.2243 8.1729L9.40474 7.34974C9.17799 7.1197 9.14794 6.83701 9.29 6.68734L9.31732 6.65686C9.43072 6.53646 9.6154 6.52195 9.74849 6.61583L10.2299 7.3442ZM7.40497 13.5551C7.8694 13.5551 8.22456 13.2392 8.22456 12.7763C8.22456 12.3467 7.92404 12.161 7.55522 12.0502C7.32028 11.9809 7.17275 11.9282 7.17275 11.7592C7.17275 11.6178 7.27383 11.5069 7.43502 11.5069C7.57162 11.5069 7.6727 11.5873 7.74646 11.7093L8.13167 11.4626C8.01146 11.1938 7.741 11.0552 7.44868 11.0552C6.98424 11.0552 6.68919 11.3933 6.68919 11.7869C6.68919 12.1001 6.87497 12.3412 7.3312 12.477C7.57981 12.549 7.73827 12.5989 7.73827 12.7985C7.73827 12.987 7.6044 13.1034 7.41043 13.1034C7.2028 13.1034 7.04435 12.9676 6.94873 12.8428L6.62909 13.1671C6.8012 13.4055 7.07986 13.5551 7.40497 13.5551ZM11.3225 11.0857V11.5292C11.0629 11.5181 10.8744 11.6511 10.8744 11.9449V12.1251C10.9783 12.0142 11.1258 11.9588 11.3088 11.9588V12.4078C11.052 12.4133 10.8744 12.5796 10.8744 12.8124V13.5108H10.41V11.9172C10.41 11.4682 10.6887 11.0857 11.2542 11.0857H11.3225ZM15.1145 12.6542V12.2441C15.2183 12.3549 15.3631 12.4103 15.5489 12.4103V11.9641C15.2975 11.9586 15.1145 11.7867 15.1145 11.5595V11.2962H14.6501V12.682C14.6501 13.1309 14.926 13.5134 15.4942 13.5134H15.5625V13.07C15.303 13.0783 15.1145 12.948 15.1145 12.6542ZM8.39114 12.6709C8.39114 13.1559 8.79001 13.555 9.28176 13.555C9.77351 13.555 10.1724 13.1559 10.1724 12.6709C10.1724 12.1858 9.77351 11.7867 9.28176 11.7867C8.79001 11.7867 8.39114 12.1858 8.39114 12.6709ZM16.4286 13.2225C16.4286 13.3971 16.2865 13.5385 16.1171 13.5385C15.945 13.5385 15.8057 13.3971 15.8057 13.2225C15.8057 13.0479 15.945 12.9065 16.1171 12.9065C16.2893 12.9065 16.4286 13.0507 16.4286 13.2225ZM9.28162 13.1117C9.5193 13.1117 9.7078 12.9205 9.7078 12.671C9.7078 12.4216 9.5193 12.2304 9.28162 12.2304C9.0412 12.2304 8.85543 12.4216 8.85543 12.671C8.85543 12.9232 9.04394 13.1117 9.28162 13.1117ZM11.4455 12.6709C11.4455 13.1559 11.8443 13.555 12.3361 13.555C12.8278 13.555 13.2267 13.1559 13.2267 12.6709C13.2267 12.1858 12.8278 11.7867 12.3361 11.7867C11.8443 11.7867 11.4455 12.1858 11.4455 12.6709ZM12.336 13.1117C12.5764 13.1117 12.7622 12.9205 12.7622 12.671C12.7622 12.4216 12.5737 12.2304 12.336 12.2304C12.0983 12.2304 11.9098 12.4216 11.9098 12.671C11.9098 12.9232 12.0983 13.1117 12.336 13.1117ZM13.9288 11.8339V12.0252C14.0217 11.8727 14.1719 11.8007 14.3823 11.809V12.3134C14.1036 12.3134 13.9424 12.4686 13.9424 12.7458V13.5107H13.478V11.8339H13.9288Z" fill="white"/>
</svg>
