<svg width="23" height="16" viewBox="0 0 23 16" fill="none" xmlns="http://www.w3.org/2000/svg">
<rect x="0.5" y="0.5" width="22" height="15" rx="2" fill="white" stroke="#D9D9D9"/>
<path fill-rule="evenodd" clip-rule="evenodd" d="M9.85021 7.0722H10.5988L10.7192 6.447H9.97043L9.85021 7.0722ZM9.77253 7.47434H10.5213L10.0457 9.94285C10.011 9.95534 9.90378 9.99924 9.75577 9.99924C9.55604 9.99924 9.37281 9.91898 9.37281 9.63445C9.37281 9.58092 9.37879 9.51999 9.39215 9.45072C9.54091 8.68044 9.77253 7.47434 9.77253 7.47434ZM17.2071 7.41794C16.7088 7.41794 16.5107 7.71879 16.4177 7.90193H16.4089L16.4376 7.47484H15.6977C15.6929 7.56876 15.6609 7.8648 15.6134 8.12013C15.6134 8.12013 15.4425 9.01613 15.4102 9.1877C15.3856 9.31874 15.3405 9.51249 15.3405 9.62493C15.3405 9.86433 15.4583 9.99928 15.7212 9.99928C15.8687 9.99928 15.9749 9.95772 16.0136 9.94283L16.2611 8.65726C16.3297 8.3023 16.5788 8.06999 16.8749 8.06999C17.1138 8.06999 17.2281 8.24962 17.2281 8.39647C17.2281 8.52426 17.1969 8.66591 17.1729 8.79117L17.0664 9.3417C17.0538 9.40778 17.0267 9.53473 17.0267 9.6343C17.0267 9.87766 17.1598 9.99928 17.4127 9.99928C17.5507 9.99928 17.6382 9.96371 17.7002 9.94283L17.9223 8.79039C17.9704 8.52992 17.9882 8.39276 17.9882 8.22698C17.9882 7.74975 17.7174 7.41794 17.2071 7.41794ZM13.8813 8.01484C13.4628 8.01484 13.231 8.45585 13.231 8.84899C13.231 9.18055 13.3763 9.40258 13.7065 9.40258C14.0799 9.40258 14.372 9.07512 14.372 8.5162C14.372 8.26048 14.24 8.01484 13.8813 8.01484ZM13.6606 9.99935C12.859 9.99935 12.4754 9.50377 12.4754 8.87208C12.4754 8.00534 13.0527 7.41794 13.9449 7.41794C14.719 7.41794 15.1301 7.90109 15.1301 8.5216C15.1301 9.45142 14.5134 9.99935 13.6606 9.99935ZM10.8569 9.40498C10.8399 9.49382 10.8291 9.55606 10.8291 9.63254C10.8291 9.91552 11.0126 9.99928 11.207 9.99928C11.3625 9.99928 11.4587 9.95545 11.494 9.94283L11.8539 8.07168L12.4361 8.07161L12.551 7.47432L11.9689 7.47439L11.9972 7.32728C12.0499 7.05139 12.1758 6.9301 12.3937 6.9301C12.5392 6.9301 12.6569 6.95677 12.6978 6.96776L12.8074 6.3998C12.7607 6.38764 12.5456 6.33333 12.2272 6.33333C11.7198 6.33333 11.3875 6.65097 11.2892 7.16254L11.229 7.47432H10.85L10.735 8.07161H11.1143C11.1143 8.07161 10.9647 8.84528 10.8569 9.40498ZM9.13332 7.41801C8.75754 7.41801 8.55087 7.687 8.47003 7.90156H8.4614L8.49032 7.47433H7.75009C7.74354 7.62242 7.71349 7.87281 7.63807 8.26647C7.56164 8.6654 7.48716 9.06336 7.41029 9.45065C7.39712 9.51686 7.39126 9.58163 7.39126 9.63646C7.39126 9.8393 7.48848 9.9991 7.7758 9.9991C7.91814 9.9991 8.017 9.96099 8.06444 9.94284L8.28466 8.79847C8.36399 8.36065 8.50809 8.07117 8.92615 8.07117C9.11631 8.07117 9.29695 8.11299 9.33482 8.12443L9.46153 7.46601C9.43418 7.45625 9.32442 7.41801 9.13332 7.41801ZM19.9931 8.47484C20.0332 8.24851 19.9054 8.01484 19.6168 8.01484C19.2643 8.01484 19.1095 8.26308 19.0404 8.47484H19.9931ZM20.3272 9.39341C20.3272 9.73673 20.0047 10 19.4336 10C18.6444 10 18.2585 9.49317 18.2585 8.87273C18.2585 8.25684 18.655 7.41859 19.623 7.41859C20.2613 7.41859 20.7385 7.74546 20.7385 8.49376C20.7385 8.67782 20.6987 8.87787 20.6816 8.95799H18.9851C18.9823 9.13756 19.1291 9.44875 19.7188 9.44875C19.9816 9.44875 20.2792 9.35302 20.3272 9.32863C20.3272 9.3473 20.3272 9.38105 20.3272 9.39341ZM6.46492 8.47484C6.50493 8.24851 6.37721 8.01484 6.08857 8.01484C5.73611 8.01484 5.58136 8.26308 5.51217 8.47484H6.46492ZM6.79903 9.39341C6.79903 9.73673 6.47655 10 5.90557 10C5.11627 10 4.7304 9.49317 4.7304 8.87273C4.7304 8.25684 5.12691 7.41859 6.09498 7.41859C6.73319 7.41859 7.21041 7.74546 7.21041 8.49376C7.21041 8.67782 7.17065 8.87787 7.15352 8.95799H5.45708C5.45424 9.13756 5.60099 9.44875 6.19069 9.44875C6.45349 9.44875 6.75108 9.35302 6.79903 9.32863C6.79903 9.3473 6.79903 9.38105 6.79903 9.39341ZM2.30005 6.63439H3.05325V9.08878C3.05325 9.45786 3.23144 9.64627 3.5175 9.64627C3.54667 9.64627 3.56387 9.64243 3.56954 9.641C3.44416 9.83663 3.28159 9.99708 2.90833 9.99708C2.5134 9.99708 2.30005 9.71443 2.30005 9.29026V6.63439Z" fill="#1A1919"/>
<path fill-rule="evenodd" clip-rule="evenodd" d="M3.399 8.61645C3.31015 8.75948 3.26306 8.9245 3.26306 9.09288C3.26306 9.34171 3.39343 9.43087 3.53576 9.43087C3.68125 9.43087 3.75913 9.32916 3.83058 9.21352C3.95029 9.01991 5.41322 6.63439 5.41322 6.63439H4.63034L3.399 8.61645Z" fill="#00A3DA"/>
</svg>
