<svg width="24" height="16" viewBox="0 0 24 16" fill="none" xmlns="http://www.w3.org/2000/svg">
<rect x="0.5" y="0.5" width="22.3333" height="15" rx="2" fill="white" stroke="#D9D9D9"/>
<path fill-rule="evenodd" clip-rule="evenodd" d="M8.77818 10.7724C8.88262 10.7182 9.06015 10.647 9.24821 10.647C9.67988 10.647 9.91321 10.9385 9.91321 11.4809C9.91321 12.1145 9.59995 12.4229 9.09507 12.4229C8.91045 12.4229 8.62497 12.3653 8.41603 12.2567V9.89127L8.77818 9.80652V10.7724ZM8.77473 12.1314C8.88607 12.1789 9.008 12.1856 9.09507 12.1856C9.35272 12.1856 9.54768 12.0297 9.54768 11.4809C9.54768 11.0503 9.38751 10.9114 9.15425 10.9114C9.01489 10.9114 8.91403 10.9487 8.77473 11.0232V12.1314ZM5.06635 10.691H5.09074L5.56416 12.3822H5.94016L6.50429 9.97925H6.09688L5.74175 11.7722H5.71749L5.23342 9.97925H4.92355L4.47094 11.7722H4.44656L4.05658 9.97925H3.66666L4.23072 12.3822H4.60666L5.06635 10.691ZM8.04714 12.2669V12.0093C7.85563 12.1212 7.6816 12.1855 7.4936 12.1855C7.13497 12.1855 6.96439 12.0058 6.96439 11.5992H8.09936V11.4739C8.09936 10.9215 7.83124 10.6469 7.39612 10.6469C6.87387 10.6469 6.60576 11.0198 6.60576 11.5348C6.60576 12.0704 6.84598 12.4229 7.43085 12.4229C7.6816 12.4229 7.89048 12.3551 8.04714 12.2669ZM7.7686 11.3722H6.97146C7.00964 11.0334 7.17319 10.8741 7.3857 10.8741C7.5737 10.8741 7.75136 11.0163 7.7686 11.3722ZM11.5149 11.8738H11.4974L10.7175 9.97925H10.2962V12.3822H10.6096V10.6809H10.6409L11.3513 12.3822H11.574L12.2843 10.6402H12.3157V12.3822H12.6917V9.97925H12.2599L11.5149 11.8738ZM13.0748 11.5348C13.0748 10.9417 13.409 10.6469 13.8686 10.6469C14.3282 10.6469 14.6625 10.9417 14.6625 11.5348C14.6625 12.1144 14.3456 12.4229 13.8686 12.4229C13.3915 12.4229 13.0748 12.1144 13.0748 11.5348ZM14.2968 11.5348C14.2968 11.0774 14.1052 10.8842 13.8685 10.8842C13.6387 10.8842 13.4403 11.0774 13.4403 11.5348C13.4403 11.9993 13.6214 12.1855 13.8685 12.1855C14.1157 12.1855 14.2968 11.9993 14.2968 11.5348ZM15.8809 10.6469C15.4807 10.6469 15.1498 10.8062 14.9931 10.8977V12.3822H15.3553V11.0401C15.4632 10.9792 15.6408 10.9181 15.7801 10.9181C15.9576 10.9181 16.0933 10.9655 16.0933 11.2333V12.3822H16.4554V11.1552C16.4554 10.8062 16.2989 10.6469 15.8809 10.6469ZM18.2206 12.0093V12.2669C18.064 12.3551 17.8552 12.4229 17.6043 12.4229C17.0195 12.4229 16.7792 12.0704 16.7792 11.5348C16.7792 11.0198 17.0474 10.6469 17.5696 10.6469C18.0049 10.6469 18.2731 10.9215 18.2731 11.4739V11.5992H17.138C17.138 12.0058 17.3086 12.1855 17.6672 12.1855C17.8552 12.1855 18.0292 12.1212 18.2206 12.0093ZM17.1449 11.3722H17.9422C17.9249 11.0163 17.7472 10.8741 17.5592 10.8741C17.3467 10.8741 17.1833 11.0334 17.1449 11.3722ZM20 10.7045H19.6274L19.2304 11.9516H19.2096L18.764 10.7045H18.381L19.0495 12.3991C18.9658 12.6498 18.8197 12.833 18.5829 12.833V13.1107C18.9831 13.1107 19.1956 12.8669 19.3697 12.3991L20 10.7045Z" fill="#0068A3"/>
<path fill-rule="evenodd" clip-rule="evenodd" d="M11.5999 2.87555C12.079 2.87555 12.5328 2.98416 12.9369 3.17699C13.0004 3.2063 13.0637 3.23854 13.1272 3.27415L12.8463 3.51888L12.4242 3.09409L11.7119 3.71255L11.2888 3.26306L9.9618 4.42733L10.8125 5.33991L10.4782 5.62613L11.3161 6.54009L10.9838 6.82564L12.1811 8.12292L12.8919 7.486L13.5064 8.16853C13.3841 8.26102 13.251 8.34805 13.1043 8.42849C12.6599 8.67514 12.1464 8.81636 11.5999 8.81636C9.91912 8.81636 8.54831 7.48186 8.54831 5.84604C8.54831 4.20987 9.91912 2.87555 11.5999 2.87555ZM11.0437 5.6582L11.7694 5.02212L12.4228 5.72863L11.6972 6.36447L11.0437 5.6582ZM12.2854 6.24285L11.5597 6.87876L12.2133 7.58527L12.9389 6.94918L12.2854 6.24285ZM10.5245 4.45198L11.2501 3.81608L11.9034 4.52241L11.1777 5.15831L10.5245 4.45198ZM12.4003 3.63286L11.8561 4.10974L12.3461 4.63967L12.8903 4.16261L12.4003 3.63286ZM12.8231 6.29448L13.3675 5.81742L13.8575 6.34728L13.3132 6.82422L12.8231 6.29448ZM13.846 6.8874L13.3019 7.36452L13.7918 7.89409L14.3361 7.41715L13.846 6.8874ZM13.5211 4.91207L13.8839 4.59409L14.2105 4.94726L13.8479 5.26518L13.5211 4.91207ZM13.4203 3.5448L13.0575 3.86272L13.3841 4.21588L13.747 3.89796L13.4203 3.5448ZM13.9849 5.96135L14.3477 5.64337L14.6744 5.99648L14.3116 6.31446L13.9849 5.96135ZM12.9019 4.69791L12.3577 5.17503L12.8479 5.7046L13.3919 5.22766L12.9019 4.69791Z" fill="#0068A3"/>
</svg>
