<svg width="23" height="16" viewBox="0 0 23 16" fill="none" xmlns="http://www.w3.org/2000/svg">
<rect x="0.5" y="0.5" width="22" height="15" rx="2" fill="white" stroke="#D9D9D9"/>
<path d="M10.2757 9.23723C10.2297 9.26135 10.178 9.27529 10.123 9.27529C9.99561 9.27529 9.88493 9.20254 9.82681 9.09483L9.80455 9.04427L8.87737 6.9312C8.86737 6.90823 8.86117 6.88222 8.86117 6.85693C8.86117 6.75954 8.9372 6.68065 9.03097 6.68065C9.06901 6.68065 9.10423 6.69374 9.13254 6.7156L10.2267 7.52468C10.3066 7.57894 10.4021 7.61079 10.5048 7.61079C10.5661 7.61079 10.6245 7.59895 10.679 7.57835L15.8242 5.2C14.9019 4.07114 13.383 3.33333 11.6642 3.33333C8.85141 3.33333 6.57141 5.30671 6.57141 7.74116C6.57141 9.0692 7.25738 10.2648 8.33111 11.0728C8.41722 11.1367 8.47363 11.2416 8.47363 11.3601C8.47363 11.3992 8.46555 11.435 8.45568 11.4723C8.36993 11.8045 8.23268 12.3366 8.2263 12.3615C8.21558 12.4032 8.19888 12.4468 8.19888 12.4904C8.19888 12.5878 8.27484 12.6667 8.36875 12.6667C8.40554 12.6667 8.43567 12.6524 8.46676 12.6339L9.58169 11.9653C9.66556 11.9151 9.75434 11.8839 9.8522 11.8839C9.90423 11.8839 9.95452 11.8923 10.0018 11.9073C10.5219 12.0627 11.0831 12.149 11.6642 12.149C14.4768 12.149 16.7571 10.1755 16.7571 7.74116C16.7571 7.0038 16.5467 6.30938 16.177 5.69851L10.313 9.21489L10.2757 9.23723Z" fill="#1AAD19"/>
</svg>
